<svg width="332" height="332" viewBox="0 0 332 332" fill="none" xmlns="http://www.w3.org/2000/svg">
<path d="M332 253.914H0V254.08H332V253.914Z" fill="#EBEBEB"/>
<path d="M298.733 264.597H276.742V264.763H298.733V264.597Z" fill="#EBEBEB"/>
<path d="M219.93 266.403H214.16V266.569H219.93V266.403Z" fill="#EBEBEB"/>
<path d="M276.078 258.435H263.336V258.601H276.078V258.435Z" fill="#EBEBEB"/>
<path d="M63.5117 259.551H34.8335V259.717H63.5117V259.551Z" fill="#EBEBEB"/>
<path d="M73.6309 259.551H69.4277V259.717H73.6309V259.551Z" fill="#EBEBEB"/>
<path d="M149.499 262.353H87.2959V262.519H149.499V262.353Z" fill="#EBEBEB"/>
<path d="M157.368 224.299H29.1564C28.152 224.297 27.1893 223.897 26.4797 223.186C25.7701 222.476 25.3716 221.512 25.3716 220.508V40.2783C25.3803 39.2796 25.7827 38.3248 26.4914 37.6211C27.2 36.9174 28.1577 36.5217 29.1564 36.52H157.368C158.374 36.52 159.338 36.9195 160.049 37.6305C160.76 38.3415 161.16 39.3059 161.16 40.3115V220.508C161.16 221.513 160.76 222.478 160.049 223.189C159.338 223.9 158.374 224.299 157.368 224.299ZM29.1564 36.6528C28.196 36.6546 27.2756 37.0373 26.5971 37.717C25.9186 38.3967 25.5376 39.3179 25.5376 40.2783V220.508C25.5376 221.468 25.9186 222.389 26.5971 223.069C27.2756 223.749 28.196 224.131 29.1564 224.133H157.368C158.329 224.131 159.25 223.749 159.93 223.069C160.609 222.39 160.992 221.469 160.994 220.508V40.2783C160.992 39.3173 160.609 38.3961 159.93 37.7166C159.25 37.0371 158.329 36.6546 157.368 36.6528H29.1564Z" fill="#EBEBEB"/>
<path d="M300.998 224.299H172.779C171.774 224.297 170.811 223.897 170.1 223.187C169.39 222.476 168.99 221.513 168.988 220.508V40.2783C168.998 39.279 169.402 38.3242 170.112 37.6207C170.822 36.9172 171.78 36.5217 172.779 36.52H300.998C301.995 36.5235 302.951 36.9199 303.658 37.6234C304.366 38.3269 304.767 39.2808 304.776 40.2783V220.508C304.776 221.511 304.378 222.473 303.67 223.184C302.962 223.895 302.001 224.296 300.998 224.299ZM172.779 36.6528C171.818 36.6546 170.897 37.0371 170.218 37.7166C169.538 38.3961 169.156 39.3173 169.154 40.2783V220.508C169.156 221.469 169.538 222.39 170.218 223.069C170.897 223.749 171.818 224.131 172.779 224.133H300.998C301.959 224.131 302.88 223.749 303.559 223.069C304.239 222.39 304.621 221.469 304.623 220.508V40.2783C304.621 39.3173 304.239 38.3961 303.559 37.7166C302.88 37.0371 301.959 36.6546 300.998 36.6528H172.779Z" fill="#EBEBEB"/>
<path d="M36.1084 255.487V222.745H51.221V192.381H53.3525V209.784H59.1625V204.97H69.6271V188.304H71.566V167.939H73.1131V187.939H76.7983V217.56H83.7703V187.939H96.3664V212.991H109.587V182.627H111.718V200.03H117.528V195.216H127.993V178.55H129.932V158.178H131.479V178.178H135.164V207.805H142.136V178.178H154.732V206.836H163.225V190.17H165.163V169.805H166.711V189.804H170.396V219.425H177.368V189.804H189.964V219.425H196.159V222.745H207.022V192.381H209.153V209.784H214.97V204.97H225.428V188.304H227.367V167.939H228.914V187.939H232.294V186.265H244.89V187.939H251.862V186.265H255.547V166.272H257.094V186.637H259.033V203.304H269.498V208.118H275.308V190.714H277.439V221.079H292.552V255.487H36.1084Z" fill="#E0E0E0"/>
<path d="M248.34 93.1399C252.24 83.7245 247.769 72.9304 238.354 69.0304C228.939 65.1305 218.145 69.6016 214.245 79.0169C210.345 88.4322 214.816 99.2264 224.231 103.126C233.646 107.026 244.441 102.555 248.34 93.1399Z" fill="#FAFAFA"/>
<path d="M240.859 85.8752C240.859 85.3723 240.977 84.8763 241.203 84.4272C241.429 83.9781 241.758 83.5884 242.162 83.2893C242.566 82.9903 243.035 82.7903 243.531 82.7055C244.027 82.6206 244.535 82.6533 245.016 82.8008C244.874 81.8385 244.941 80.8569 245.212 79.9226C245.483 78.9884 245.952 78.1234 246.587 77.3865C247.222 76.6495 248.008 76.0578 248.892 75.6515C249.775 75.2453 250.736 75.034 251.709 75.032C252.13 75.0325 252.55 75.0702 252.964 75.1449C253.634 74.0467 254.643 73.196 255.839 72.7209C257.035 72.2457 258.352 72.1719 259.593 72.5105C260.835 72.849 261.932 73.5817 262.721 74.5982C263.51 75.6146 263.947 76.8598 263.967 78.1462H264.066C264.785 78.1462 265.496 78.2877 266.16 78.5627C266.824 78.8376 267.427 79.2407 267.935 79.7487C268.443 80.2568 268.846 80.8599 269.121 81.5238C269.396 82.1876 269.538 82.899 269.538 83.6176C269.538 84.3361 269.396 85.0475 269.121 85.7114C268.846 86.3752 268.443 86.9783 267.935 87.4864C267.427 87.9945 266.824 88.3975 266.16 88.6724C265.496 88.9474 264.785 89.0889 264.066 89.0889H243.98C243.143 89.0681 242.347 88.7199 241.764 88.1191C241.18 87.5182 240.856 86.7126 240.859 85.8752Z" fill="#F0F0F0"/>
<path d="M35.9556 136.326C35.9523 135.825 36.0669 135.331 36.2901 134.883C36.5133 134.435 36.8388 134.046 37.2403 133.748C37.6419 133.449 38.1081 133.249 38.6013 133.164C39.0944 133.079 39.6007 133.111 40.0791 133.258C40.0334 132.93 40.0112 132.6 40.0127 132.269C40.0179 130.471 40.7359 128.748 42.0092 127.479C43.2826 126.209 45.0073 125.496 46.8054 125.496C47.2242 125.499 47.642 125.539 48.0537 125.616C48.7151 124.5 49.7237 123.631 50.9252 123.143C52.1268 122.655 53.4552 122.574 54.7074 122.912C55.9595 123.25 57.0665 123.989 57.859 125.015C58.6516 126.042 59.086 127.3 59.096 128.597H59.1956C59.9141 128.597 60.6256 128.738 61.2894 129.013C61.9533 129.288 62.5564 129.691 63.0645 130.199C63.5725 130.707 63.9756 131.311 64.2505 131.974C64.5255 132.638 64.667 133.35 64.667 134.068C64.667 134.787 64.5255 135.498 64.2505 136.162C63.9756 136.826 63.5725 137.429 63.0645 137.937C62.5564 138.445 61.9533 138.848 61.2894 139.123C60.6256 139.398 59.9141 139.54 59.1956 139.54H39.0698C38.2348 139.514 37.4428 139.164 36.8614 138.564C36.2801 137.964 35.9552 137.161 35.9556 136.326Z" fill="#F0F0F0"/>
<path d="M143.424 98.0064C143.423 97.2156 143.237 96.4359 142.882 95.7295C142.526 95.0231 142.011 94.4094 141.376 93.9374C140.742 93.4654 140.006 93.148 139.227 93.0106C138.448 92.8732 137.648 92.9196 136.89 93.146C136.965 92.6292 137.003 92.1077 137.003 91.5856C137.008 90.0055 136.664 88.4438 135.995 87.0122C135.326 85.5806 134.35 84.3143 133.135 83.3038C131.92 82.2933 130.497 81.5636 128.968 81.1667C127.438 80.7699 125.84 80.7157 124.287 81.008C123.223 79.2783 121.626 77.9405 119.737 77.1953C117.847 76.45 115.767 76.3376 113.808 76.8748C111.85 77.412 110.118 78.5698 108.873 80.1747C107.628 81.7795 106.937 83.7448 106.904 85.7756H106.745C104.449 85.7756 102.248 86.6875 100.624 88.3106C99.0012 89.9338 98.0894 92.1353 98.0894 94.4308C98.0894 96.7263 99.0012 98.9278 100.624 100.551C102.248 102.174 104.449 103.086 106.745 103.086H138.53C139.846 103.041 141.093 102.486 142.006 101.538C142.92 100.59 143.428 99.323 143.424 98.0064Z" fill="#F0F0F0"/>
<path d="M234.551 141.571C234.552 140.619 234.33 139.68 233.903 138.828C233.476 137.977 232.856 137.238 232.092 136.669C231.328 136.1 230.441 135.719 229.503 135.554C228.565 135.39 227.601 135.447 226.689 135.722C226.783 135.102 226.829 134.476 226.829 133.849C226.829 132.15 226.494 130.469 225.844 128.899C225.194 127.33 224.241 125.904 223.04 124.703C221.839 123.502 220.413 122.549 218.844 121.899C217.275 121.249 215.593 120.914 213.894 120.914C213.097 120.916 212.301 120.99 211.517 121.133C210.249 119.034 208.331 117.404 206.053 116.492C203.776 115.579 201.263 115.433 198.896 116.076C196.528 116.72 194.435 118.116 192.932 120.056C191.429 121.995 190.599 124.371 190.568 126.824H190.382C188.992 126.789 187.609 127.032 186.315 127.54C185.021 128.048 183.841 128.809 182.846 129.78C181.85 130.75 181.059 131.91 180.519 133.191C179.979 134.472 179.701 135.849 179.701 137.239C179.701 138.629 179.979 140.005 180.519 141.286C181.059 142.567 181.85 143.727 182.846 144.698C183.841 145.669 185.021 146.43 186.315 146.938C187.609 147.445 188.992 147.689 190.382 147.654H228.628C230.212 147.607 231.715 146.946 232.821 145.811C233.926 144.676 234.547 143.156 234.551 141.571Z" fill="#F0F0F0"/>
<path d="M200.614 95.4832C200.613 95.1717 200.685 94.8644 200.825 94.5858C200.964 94.3072 201.167 94.0652 201.417 93.8793C201.667 93.6933 201.957 93.5685 202.264 93.515C202.571 93.4614 202.886 93.4806 203.184 93.5709C203.155 93.3685 203.14 93.1645 203.137 92.96C203.137 91.84 203.582 90.7659 204.374 89.9739C205.166 89.1819 206.24 88.737 207.361 88.737C207.621 88.7377 207.881 88.7621 208.137 88.81C208.554 88.1256 209.181 87.5952 209.925 87.2987C210.669 87.0022 211.49 86.9557 212.263 87.1664C213.035 87.377 213.719 87.8333 214.21 88.4664C214.7 89.0994 214.972 89.8749 214.983 90.6759H215.043C215.945 90.6759 216.809 91.0341 217.447 91.6716C218.084 92.3092 218.443 93.1739 218.443 94.0756C218.443 94.9772 218.084 95.8419 217.447 96.4795C216.809 97.1171 215.945 97.4752 215.043 97.4752H202.553C202.034 97.4614 201.541 97.2454 201.179 96.8733C200.817 96.5013 200.614 96.0025 200.614 95.4832Z" fill="#F0F0F0"/>
<path d="M66.9446 73.9696C66.944 73.6619 66.8721 73.3584 66.7345 73.0831C66.597 72.8078 66.3975 72.5681 66.1518 72.3828C65.906 72.1976 65.6207 72.0718 65.3182 72.0153C65.0156 71.9588 64.7041 71.9732 64.4081 72.0573C64.437 71.8549 64.4525 71.6509 64.4546 71.4464C64.4546 70.3264 64.0097 69.2523 63.2177 68.4603C62.4257 67.6683 61.3516 67.2234 60.2315 67.2234C59.9687 67.224 59.7065 67.2485 59.448 67.2964C59.0335 66.6104 58.4066 66.0781 57.6624 65.7805C56.9182 65.4828 56.0972 65.4359 55.3239 65.6468C54.5506 65.8578 53.8671 66.3152 53.3772 66.9495C52.8872 67.5839 52.6175 68.3608 52.6088 69.1623H52.5225C52.063 69.142 51.6041 69.2149 51.1735 69.3768C50.7429 69.5387 50.3496 69.786 50.0173 70.104C49.6849 70.422 49.4204 70.8041 49.2397 71.2271C49.059 71.6501 48.9658 72.1053 48.9658 72.5653C48.9658 73.0253 49.059 73.4805 49.2397 73.9035C49.4204 74.3265 49.6849 74.7085 50.0173 75.0265C50.3496 75.3445 50.7429 75.5919 51.1735 75.7537C51.6041 75.9156 52.063 75.9886 52.5225 75.9683H65.0057C65.5259 75.9544 66.02 75.7375 66.3824 75.364C66.7447 74.9905 66.9465 74.49 66.9446 73.9696Z" fill="#F0F0F0"/>
<path d="M166 283.9C237.103 283.9 294.743 280.535 294.743 276.383C294.743 272.232 237.103 268.867 166 268.867C94.897 268.867 37.2568 272.232 37.2568 276.383C37.2568 280.535 94.897 283.9 166 283.9Z" fill="#F5F5F5"/>
<path d="M284.551 257.526V265.494H59.9129V257.526C59.8949 257.205 59.9422 256.884 60.052 256.582C60.1618 256.281 60.3318 256.004 60.5516 255.77C60.7714 255.536 61.0365 255.349 61.3308 255.221C61.625 255.092 61.9423 255.025 62.2635 255.022H282.2C282.521 255.025 282.839 255.092 283.133 255.221C283.427 255.349 283.692 255.536 283.912 255.77C284.132 256.004 284.302 256.281 284.412 256.582C284.521 256.884 284.569 257.205 284.551 257.526Z" fill="#263238"/>
<path d="M86.6854 255.022H72.7148V265.5H86.6854V255.022Z" fill="#4BC853"/>
<path d="M112.874 255.022H99.4873V265.5H112.874V255.022Z" fill="#4BC853"/>
<path d="M139.639 255.022H125.675V265.5H139.639V255.022Z" fill="#4BC853"/>
<path d="M165.834 255.022H152.448V265.5H165.834V255.022Z" fill="#4BC853"/>
<path d="M192.022 255.022H178.636V265.5H192.022V255.022Z" fill="#4BC853"/>
<path d="M218.788 255.022H204.824V265.5H218.788V255.022Z" fill="#4BC853"/>
<path d="M244.976 255.022H231.59V265.5H244.976V255.022Z" fill="#4BC853"/>
<path d="M271.742 255.022H257.778V265.5H271.742V255.022Z" fill="#4BC853"/>
<path opacity="0.6" d="M86.6854 255.022H72.7148V265.5H86.6854V255.022Z" fill="white"/>
<path opacity="0.6" d="M112.874 255.022H99.4873V265.5H112.874V255.022Z" fill="white"/>
<path opacity="0.6" d="M139.639 255.022H125.675V265.5H139.639V255.022Z" fill="white"/>
<path opacity="0.6" d="M165.834 255.022H152.448V265.5H165.834V255.022Z" fill="white"/>
<path opacity="0.6" d="M192.022 255.022H178.636V265.5H192.022V255.022Z" fill="white"/>
<path opacity="0.6" d="M218.788 255.022H204.824V265.5H218.788V255.022Z" fill="white"/>
<path opacity="0.6" d="M244.976 255.022H231.59V265.5H244.976V255.022Z" fill="white"/>
<path opacity="0.6" d="M271.742 255.022H257.778V265.5H271.742V255.022Z" fill="white"/>
<path opacity="0.2" d="M284.551 257.526V265.494H59.9129V257.526C59.8949 257.205 59.9422 256.884 60.052 256.582C60.1618 256.281 60.3318 256.004 60.5516 255.77C60.7714 255.536 61.0365 255.349 61.3308 255.221C61.625 255.092 61.9423 255.025 62.2635 255.022H282.2C282.521 255.025 282.839 255.092 283.133 255.221C283.427 255.349 283.692 255.536 283.912 255.77C284.132 256.004 284.302 256.281 284.412 256.582C284.521 256.884 284.569 257.205 284.551 257.526Z" fill="white"/>
<path d="M157.388 277.333C170.707 277.333 181.504 264.303 181.504 248.23C181.504 232.157 170.707 219.127 157.388 219.127C144.069 219.127 133.271 232.157 133.271 248.23C133.271 264.303 144.069 277.333 157.388 277.333Z" fill="#2E353A"/>
<path d="M161.425 266.583C169.827 266.583 176.637 258.366 176.637 248.23C176.637 238.094 169.827 229.877 161.425 229.877C153.024 229.877 146.213 238.094 146.213 248.23C146.213 258.366 153.024 266.583 161.425 266.583Z" fill="black"/>
<path d="M164.918 255.633C168.416 255.633 171.252 252.212 171.252 247.991C171.252 243.77 168.416 240.348 164.918 240.348C161.419 240.348 158.583 243.77 158.583 247.991C158.583 252.212 161.419 255.633 164.918 255.633Z" fill="#4BC853"/>
<path opacity="0.4" d="M164.918 255.633C168.416 255.633 171.252 252.212 171.252 247.991C171.252 243.77 168.416 240.348 164.918 240.348C161.419 240.348 158.583 243.77 158.583 247.991C158.583 252.212 161.419 255.633 164.918 255.633Z" fill="black"/>
<path d="M132.381 220.116L139.035 240.341L135.708 241.776L129.706 223.987L132.381 220.116Z" fill="black"/>
<path d="M135.177 224.478L130.429 228.296C130.361 228.354 130.281 228.398 130.195 228.424C130.109 228.45 130.018 228.458 129.929 228.448C129.839 228.438 129.753 228.41 129.674 228.366C129.596 228.322 129.528 228.262 129.473 228.19C129.415 228.121 129.372 228.042 129.346 227.955C129.32 227.869 129.312 227.779 129.321 227.689C129.331 227.6 129.359 227.513 129.404 227.435C129.448 227.357 129.508 227.289 129.58 227.234L134.327 223.416C134.396 223.358 134.476 223.315 134.562 223.289C134.648 223.263 134.739 223.254 134.828 223.264C134.917 223.274 135.004 223.302 135.082 223.347C135.16 223.391 135.229 223.451 135.283 223.522C135.341 223.591 135.385 223.671 135.411 223.757C135.437 223.843 135.445 223.934 135.435 224.023C135.425 224.113 135.397 224.199 135.353 224.277C135.309 224.356 135.249 224.424 135.177 224.478Z" fill="#2E353A"/>
<path d="M136.014 227.002L131.273 230.813C131.205 230.871 131.125 230.915 131.039 230.942C130.953 230.968 130.863 230.977 130.774 230.968C130.684 230.959 130.598 230.931 130.519 230.888C130.441 230.844 130.372 230.785 130.317 230.713C130.258 230.645 130.215 230.565 130.188 230.48C130.161 230.394 130.152 230.303 130.162 230.214C130.171 230.125 130.198 230.038 130.242 229.96C130.286 229.881 130.345 229.812 130.416 229.757L135.164 225.939C135.233 225.881 135.313 225.838 135.399 225.812C135.485 225.786 135.575 225.777 135.665 225.787C135.754 225.797 135.841 225.825 135.919 225.87C135.997 225.914 136.066 225.974 136.12 226.046C136.178 226.114 136.221 226.194 136.248 226.28C136.274 226.366 136.282 226.457 136.272 226.546C136.262 226.636 136.234 226.722 136.19 226.801C136.145 226.879 136.086 226.947 136.014 227.002Z" fill="#2E353A"/>
<path d="M136.857 229.518L132.136 233.336C132.067 233.394 131.987 233.437 131.901 233.464C131.815 233.49 131.724 233.498 131.635 233.488C131.545 233.478 131.459 233.45 131.381 233.406C131.302 233.361 131.234 233.302 131.18 233.23C131.121 233.162 131.077 233.082 131.051 232.996C131.024 232.91 131.015 232.82 131.025 232.731C131.034 232.641 131.061 232.555 131.105 232.476C131.149 232.398 131.208 232.329 131.279 232.274L136.027 228.462C136.095 228.404 136.175 228.36 136.261 228.334C136.346 228.307 136.437 228.298 136.526 228.307C136.616 228.317 136.702 228.344 136.781 228.388C136.859 228.432 136.928 228.491 136.983 228.562C137.04 228.632 137.082 228.713 137.106 228.8C137.131 228.887 137.137 228.978 137.126 229.067C137.114 229.157 137.084 229.243 137.038 229.32C136.991 229.398 136.93 229.465 136.857 229.518Z" fill="#2E353A"/>
<path d="M137.694 232.041L132.946 235.859C132.877 235.917 132.798 235.961 132.711 235.987C132.625 236.013 132.535 236.021 132.445 236.011C132.356 236.001 132.27 235.973 132.191 235.929C132.113 235.885 132.045 235.825 131.99 235.753C131.932 235.685 131.888 235.605 131.861 235.519C131.835 235.434 131.826 235.343 131.835 235.254C131.844 235.164 131.872 235.078 131.916 234.999C131.959 234.921 132.019 234.852 132.09 234.797L136.837 230.979C136.906 230.921 136.986 230.878 137.072 230.852C137.158 230.826 137.249 230.817 137.338 230.827C137.428 230.837 137.514 230.865 137.592 230.909C137.671 230.954 137.739 231.014 137.793 231.085C137.852 231.154 137.896 231.233 137.922 231.319C137.949 231.405 137.958 231.495 137.948 231.585C137.939 231.674 137.912 231.761 137.868 231.839C137.824 231.918 137.765 231.986 137.694 232.041Z" fill="#2E353A"/>
<path d="M138.53 234.565L133.783 238.376C133.714 238.434 133.635 238.478 133.549 238.505C133.463 238.531 133.373 238.54 133.283 238.531C133.194 238.522 133.107 238.494 133.029 238.451C132.95 238.407 132.881 238.348 132.827 238.276C132.768 238.208 132.724 238.128 132.698 238.043C132.671 237.957 132.662 237.866 132.672 237.777C132.681 237.688 132.708 237.601 132.752 237.522C132.796 237.444 132.855 237.375 132.926 237.32L137.674 233.502C137.743 233.444 137.822 233.401 137.909 233.375C137.995 233.349 138.085 233.34 138.175 233.35C138.264 233.36 138.35 233.388 138.429 233.433C138.507 233.477 138.575 233.537 138.63 233.608C138.688 233.677 138.732 233.756 138.759 233.842C138.785 233.928 138.794 234.018 138.785 234.108C138.776 234.197 138.748 234.284 138.704 234.362C138.661 234.441 138.601 234.51 138.53 234.565Z" fill="#2E353A"/>
<path d="M139.367 237.088L134.619 240.899C134.551 240.957 134.471 241 134.385 241.027C134.299 241.053 134.208 241.061 134.119 241.051C134.029 241.041 133.943 241.013 133.864 240.969C133.786 240.924 133.718 240.865 133.663 240.793C133.605 240.724 133.562 240.644 133.536 240.558C133.51 240.472 133.501 240.382 133.511 240.292C133.521 240.203 133.549 240.116 133.594 240.038C133.638 239.96 133.698 239.891 133.77 239.837L138.51 236.025C138.579 235.967 138.658 235.923 138.744 235.897C138.83 235.87 138.92 235.861 139.01 235.87C139.099 235.88 139.186 235.907 139.264 235.951C139.343 235.995 139.412 236.054 139.467 236.125C139.526 236.194 139.571 236.274 139.598 236.36C139.625 236.447 139.634 236.538 139.625 236.628C139.616 236.718 139.588 236.806 139.544 236.885C139.499 236.964 139.439 237.033 139.367 237.088Z" fill="#2E353A"/>
<path d="M126.12 237.387L176.159 235.275L179.061 238.555L171.06 238.894L166.617 248.973L122.362 250.846L126.12 237.387Z" fill="#2E353A"/>
<path opacity="0.1" d="M132.754 237.108L176.159 235.275L179.061 238.555L171.06 238.894L166.618 248.973L129.002 250.567L132.754 237.108Z" fill="white"/>
<path d="M111.578 251.842L104.029 277.207H105.981L112.807 257.18H118.962L121.565 277.207H123.404L122.056 251.636L111.578 251.842Z" fill="#2E353A"/>
<path d="M73.0398 211.902L69.2418 223.854L60.6762 250.806L57.4292 248.814L65.7358 221.822L69.5671 209.353C70.583 210.056 71.7583 210.906 73.0398 211.902Z" fill="#4BC853"/>
<path opacity="0.6" d="M73.0398 211.902L69.2418 223.854L60.6762 250.806L57.4292 248.814L65.7358 221.822L69.5671 209.353C70.583 210.056 71.7583 210.906 73.0398 211.902Z" fill="white"/>
<path d="M83.5446 182.7L70.2049 223.868H69.1956C67.3298 221.65 65.7162 221.822 65.7162 221.822L65.0522 220.84L78.7306 181C78.7838 181.053 81.6722 178.855 83.5446 182.7Z" fill="#2E353A"/>
<path d="M62.3363 248.19C62.3363 250.348 61.1145 252.094 59.6073 252.094C58.1 252.094 56.8716 250.348 56.8716 248.19C56.8716 246.032 58.1 244.292 59.6073 244.292C61.1145 244.292 62.3363 246.039 62.3363 248.19Z" fill="#2E353A"/>
<path d="M167.275 204.837L179.227 217.865V218.987H173.968C171.898 216.343 169.272 214.187 166.276 212.67C163.28 211.153 159.987 210.313 156.631 210.209L167.275 204.837Z" fill="black"/>
<path d="M104.029 215.136L112.282 246.769L121.04 254.943C121.042 255.212 121.15 255.469 121.34 255.659C121.53 255.849 121.788 255.957 122.056 255.959H128.032C128.302 255.959 128.562 255.852 128.753 255.662C128.945 255.471 129.053 255.213 129.055 254.943V238.376C129.058 233.384 130.875 228.563 134.168 224.81C136.079 222.645 138.422 220.903 141.047 219.698L166.352 208.124L164.513 204.844L122.09 207.6L104.029 215.136Z" fill="#2E353A"/>
<path opacity="0.1" d="M104.029 215.136L112.282 246.769L121.04 254.943C121.042 255.212 121.15 255.469 121.34 255.659C121.53 255.849 121.788 255.957 122.056 255.959H128.032C128.302 255.959 128.562 255.852 128.753 255.662C128.945 255.471 129.053 255.213 129.055 254.943V238.376C129.058 233.384 130.875 228.563 134.168 224.81C136.079 222.645 138.422 220.903 141.047 219.698L166.352 208.124L164.513 204.844L122.09 207.6L104.029 215.136Z" fill="white"/>
<path d="M122.488 232.852H106.838C104.692 232.852 102.953 234.591 102.953 236.736V246.762C102.953 248.908 104.692 250.647 106.838 250.647H122.488C124.633 250.647 126.372 248.908 126.372 246.762V236.736C126.372 234.591 124.633 232.852 122.488 232.852Z" fill="#2E353A"/>
<path opacity="0.2" d="M126.379 236.743V246.762C126.377 247.793 125.967 248.781 125.237 249.509C124.508 250.238 123.519 250.647 122.488 250.647H106.838C105.807 250.647 104.819 250.237 104.091 249.509C103.362 248.781 102.953 247.793 102.953 246.762V236.743C102.953 235.712 103.362 234.724 104.091 233.996C104.819 233.267 105.807 232.858 106.838 232.858H122.488C123.519 232.858 124.508 233.267 125.237 233.995C125.967 234.724 126.377 235.712 126.379 236.743Z" fill="white"/>
<path opacity="0.2" d="M126.379 236.743V246.762C126.377 247.793 125.966 248.781 125.237 249.509C124.507 250.238 123.519 250.647 122.488 250.647H116.2C115.17 250.647 114.182 250.237 113.453 249.509C112.725 248.781 112.315 247.793 112.315 246.762V236.743C112.315 235.712 112.725 234.724 113.453 233.996C114.182 233.267 115.17 232.858 116.2 232.858H122.521C123.546 232.867 124.526 233.28 125.249 234.007C125.971 234.734 126.377 235.717 126.379 236.743Z" fill="white"/>
<path d="M80.178 193.031C83.3121 189.884 92.13 187.135 104.082 193.031C116.034 198.928 120.895 206.384 118.265 210.209C115.636 214.034 98.1724 223.894 86.6122 218.569C75.052 213.244 74.7864 198.43 80.178 193.031Z" fill="#4BC853"/>
<path opacity="0.2" d="M80.178 193.031C83.3121 189.884 92.13 187.135 104.082 193.031C116.034 198.928 120.895 206.384 118.265 210.209C115.636 214.034 98.1724 223.894 86.6122 218.569C75.052 213.244 74.7864 198.43 80.178 193.031Z" fill="black"/>
<path d="M132.136 208.735C132.039 209.264 131.83 209.766 131.525 210.209C128.869 214.027 111.432 223.894 99.872 218.569C88.3117 213.244 88.0461 198.423 93.4378 193.025C96.5719 189.891 105.39 187.135 117.342 193.025C120.035 194.328 122.599 195.885 124.998 197.673C130.31 201.697 132.727 205.84 132.136 208.735Z" fill="#4BC853"/>
<path d="M73.2393 201.232H88.2656C88.97 201.232 89.6456 200.952 90.1436 200.454C90.6417 199.956 90.9216 199.28 90.9216 198.576V193.085C90.9216 191.61 90.0318 188.988 88.5577 188.988L75.3641 190.415L73.2393 201.232Z" fill="#263238"/>
<path d="M96.2799 247.008H90.7886C90.0439 247.01 89.3126 246.81 88.6729 246.429C88.0332 246.047 87.5091 245.499 87.1566 244.843C84.2814 239.452 75.915 225.647 64.1556 222.267C49.4613 218.024 72.1236 215.475 80.3107 221.338C88.4978 227.201 96.2799 247.008 96.2799 247.008Z" fill="#263238"/>
<path opacity="0.4" d="M96.2799 247.008H90.7886C90.0439 247.01 89.3126 246.81 88.6729 246.429C88.0332 246.047 87.5091 245.499 87.1566 244.843C84.2814 239.452 75.915 225.647 64.1556 222.267C49.4613 218.024 72.1236 215.475 80.3107 221.338C88.4978 227.201 96.2799 247.008 96.2799 247.008Z" fill="black"/>
<path d="M64.1556 277.333C76.9614 277.333 87.3425 264.808 87.3425 249.359C87.3425 233.909 76.9614 221.384 64.1556 221.384C51.3499 221.384 40.9688 233.909 40.9688 249.359C40.9688 264.808 51.3499 277.333 64.1556 277.333Z" fill="#2E353A"/>
<path d="M68.0402 267.001C76.1153 267.001 82.6615 259.102 82.6615 249.359C82.6615 239.615 76.1153 231.716 68.0402 231.716C59.9651 231.716 53.4189 239.615 53.4189 249.359C53.4189 259.102 59.9651 267.001 68.0402 267.001Z" fill="black"/>
<path d="M71.3931 256.47C74.7559 256.47 77.482 253.179 77.482 249.12C77.482 245.06 74.7559 241.769 71.3931 241.769C68.0303 241.769 65.3042 245.06 65.3042 249.12C65.3042 253.179 68.0303 256.47 71.3931 256.47Z" fill="#4BC853"/>
<path opacity="0.4" d="M71.3931 256.47C74.7559 256.47 77.482 253.179 77.482 249.12C77.482 245.06 74.7559 241.769 71.3931 241.769C68.0303 241.769 65.3042 245.06 65.3042 249.12C65.3042 253.179 68.0303 256.47 71.3931 256.47Z" fill="black"/>
<path d="M45.4242 231.842H48.0005C50.1409 231.84 52.2223 231.141 53.93 229.85C57.914 226.856 66.3933 221.829 75.178 224.744C85.3572 228.117 92.2694 241.47 94.2415 245.7C94.4192 246.091 94.7061 246.423 95.0678 246.655C95.4294 246.887 95.8503 247.009 96.28 247.008C96.28 247.008 93.0795 220.86 75.1847 213.755C57.8277 206.863 46.0749 221.364 43.5451 229.286C43.458 229.58 43.4402 229.891 43.4932 230.194C43.5462 230.496 43.6684 230.783 43.8503 231.03C44.0323 231.278 44.2691 231.48 44.5421 231.621C44.8151 231.762 45.117 231.837 45.4242 231.842Z" fill="#4BC853"/>
<path d="M86.9842 211.902L83.1795 223.854L74.6205 250.793L71.3735 248.801L79.6802 221.822L83.5115 209.353C84.5274 210.056 85.7027 210.906 86.9842 211.902Z" fill="#4BC853"/>
<path opacity="0.6" d="M86.9842 211.902L83.1795 223.854L74.6205 250.793L71.3735 248.801L79.6802 221.822L83.5115 209.353C84.5274 210.056 85.7027 210.906 86.9842 211.902Z" fill="white"/>
<path d="M97.4885 182.7L84.1554 223.868H83.1461C81.2736 221.65 79.6601 221.822 79.6601 221.822L78.9961 220.84L92.6745 181C92.7343 181.053 95.616 178.855 97.4885 182.7Z" fill="#2E353A"/>
<path d="M76.287 248.19C76.287 250.348 75.0586 252.094 73.5513 252.094C72.044 252.094 70.8223 250.348 70.8223 248.19C70.8223 246.032 72.044 244.292 73.5513 244.292C75.0586 244.292 76.287 246.039 76.287 248.19Z" fill="#2E353A"/>
<path d="M79.8726 191.464C79.8726 191.464 78.352 201.192 73.2392 201.232C68.4717 201.298 68.0268 192.188 72.5752 190.787C76.2538 189.658 79.8726 191.464 79.8726 191.464Z" fill="#4BC853"/>
<path d="M79.8726 191.464C79.8726 191.464 78.352 201.192 73.2392 201.232C68.4717 201.298 68.0268 192.188 72.5752 190.787C76.2538 189.658 79.8726 191.464 79.8726 191.464Z" fill="#263238"/>
<path d="M69.7199 195.926C69.607 198.39 71.0944 200.389 73.0399 200.389C74.9854 200.389 76.6454 198.397 76.7583 195.926C76.8712 193.456 75.3904 191.464 73.4383 191.464C71.4861 191.464 69.8328 193.463 69.7199 195.926Z" fill="#4BC853"/>
<path opacity="0.7" d="M69.7199 195.926C69.607 198.39 71.0944 200.389 73.0399 200.389C74.9854 200.389 76.6454 198.397 76.7583 195.926C76.8712 193.456 75.3904 191.464 73.4383 191.464C71.4861 191.464 69.8328 193.463 69.7199 195.926Z" fill="white"/>
<path d="M74.1092 197.088C74.1092 198.177 73.4452 199.08 72.5753 199.08C71.7055 199.08 71.0415 198.197 71.0415 197.088C71.0415 195.98 71.7055 195.096 72.5753 195.096C73.4452 195.096 74.1092 196 74.1092 197.088Z" fill="white"/>
<path d="M75.4039 194.552C75.3667 194.695 75.2904 194.824 75.1834 194.926C75.0765 195.027 74.9433 195.097 74.7988 195.127C74.6544 195.156 74.5045 195.145 74.3661 195.094C74.2277 195.043 74.1064 194.955 74.0158 194.838C73.9252 194.722 73.869 194.582 73.8535 194.436C73.838 194.289 73.8639 194.141 73.9282 194.008C73.9925 193.876 74.0926 193.763 74.2173 193.685C74.342 193.606 74.4862 193.564 74.6337 193.563C74.8659 193.594 75.0766 193.715 75.2206 193.9C75.3645 194.085 75.4303 194.319 75.4039 194.552Z" fill="white"/>
<path d="M87.9335 191.464C87.9335 191.464 86.393 201.165 81.2935 201.232C76.5193 201.298 76.0744 192.188 80.6295 190.787C84.328 189.658 87.9335 191.464 87.9335 191.464Z" fill="#4BC853"/>
<path d="M87.9335 191.464C87.9335 191.464 86.393 201.165 81.2935 201.232C76.5193 201.298 76.0744 192.188 80.6295 190.787C84.328 189.658 87.9335 191.464 87.9335 191.464Z" fill="#263238"/>
<path d="M84.7965 196.347C85.0917 193.893 83.7697 191.715 81.8436 191.484C79.9176 191.252 78.1169 193.054 77.8217 195.507C77.5264 197.961 78.8485 200.139 80.7745 200.37C82.7006 200.602 84.5013 198.801 84.7965 196.347Z" fill="#4BC853"/>
<path opacity="0.7" d="M84.7965 196.347C85.0917 193.893 83.7697 191.715 81.8436 191.484C79.9176 191.252 78.1169 193.054 77.8217 195.507C77.5264 197.961 78.8485 200.139 80.7745 200.37C82.7006 200.602 84.5013 198.801 84.7965 196.347Z" fill="white"/>
<path d="M82.1699 197.088C82.1699 198.177 81.5059 199.08 80.6361 199.08C79.7662 199.08 79.1089 198.197 79.1089 197.088C79.1089 195.98 79.7729 195.096 80.6361 195.096C81.4993 195.096 82.1699 196 82.1699 197.088Z" fill="white"/>
<path d="M82.7011 195.515C83.1228 195.515 83.4647 195.072 83.4647 194.525C83.4647 193.979 83.1228 193.536 82.7011 193.536C82.2794 193.536 81.9375 193.979 81.9375 194.525C81.9375 195.072 82.2794 195.515 82.7011 195.515Z" fill="white"/>
<path d="M88.3121 197.872C88.4463 197.869 88.5765 197.826 88.6856 197.748C88.7946 197.669 88.8774 197.56 88.923 197.434L93.3917 184.287C93.4411 184.139 93.4548 183.982 93.4316 183.828C93.4084 183.674 93.3489 183.528 93.2582 183.401C93.1674 183.275 93.0479 183.172 92.9095 183.101C92.7711 183.029 92.6178 182.992 92.4621 182.992H81.6721C81.3538 182.991 81.0395 183.063 80.7538 183.204C80.4682 183.344 80.2189 183.549 80.0254 183.802L75.0122 190.342H86.0346C86.4784 190.342 86.904 190.518 87.2178 190.832C87.5316 191.146 87.7079 191.572 87.7079 192.015V197.208C87.7072 197.374 87.7689 197.535 87.8808 197.658C87.9927 197.78 88.1466 197.857 88.3121 197.872Z" fill="#4BC853"/>
<path d="M84.5801 210.209H69.9721C69.7687 210.229 69.5637 210.194 69.3788 210.107C69.1939 210.02 69.0361 209.884 68.9223 209.715C68.8084 209.545 68.7428 209.348 68.7324 209.143C68.722 208.939 68.7672 208.736 68.8632 208.556L71.0212 202.885C71.2226 202.416 71.5513 202.012 71.9703 201.72C72.3892 201.428 72.8816 201.259 73.3917 201.232H87.9997C88.2036 201.21 88.4095 201.244 88.5954 201.331C88.7813 201.417 88.9401 201.553 89.0548 201.723C89.1694 201.893 89.2357 202.091 89.2463 202.296C89.257 202.5 89.2116 202.704 89.1152 202.885L86.9838 208.556C86.778 209.029 86.4436 209.434 86.0187 209.727C85.5937 210.019 85.0953 210.186 84.5801 210.209Z" fill="#2E353A"/>
<path opacity="0.2" d="M84.5801 210.209H69.9721C69.7687 210.229 69.5637 210.194 69.3788 210.107C69.1939 210.02 69.0361 209.884 68.9223 209.715C68.8084 209.545 68.7428 209.348 68.7324 209.143C68.722 208.939 68.7672 208.736 68.8632 208.556L71.0212 202.885C71.2226 202.416 71.5513 202.012 71.9703 201.72C72.3892 201.428 72.8816 201.259 73.3917 201.232H87.9997C88.2036 201.21 88.4095 201.244 88.5954 201.331C88.7813 201.417 88.9401 201.553 89.0548 201.723C89.1694 201.893 89.2357 202.091 89.2463 202.296C89.257 202.5 89.2116 202.704 89.1152 202.885L86.9838 208.556C86.778 209.029 86.4436 209.434 86.0187 209.727C85.5937 210.019 85.0953 210.186 84.5801 210.209Z" fill="white"/>
<path opacity="0.2" d="M117.448 249.412C120.012 249.412 122.09 245.981 122.09 241.749C122.09 237.517 120.012 234.087 117.448 234.087C114.885 234.087 112.807 237.517 112.807 241.749C112.807 245.981 114.885 249.412 117.448 249.412Z" fill="white"/>
<path d="M114.686 223.197L116.937 230.049C117.087 230.499 117.375 230.891 117.76 231.169C118.145 231.446 118.607 231.596 119.082 231.597H127.342C127.708 231.598 128.069 231.509 128.393 231.339C128.717 231.169 128.994 230.922 129.201 230.62L134.925 222.327C135.254 221.85 135.387 221.265 135.297 220.693C135.207 220.121 134.9 219.605 134.44 219.253L130.204 216.012C129.863 215.752 129.456 215.595 129.029 215.558C128.602 215.522 128.173 215.608 127.794 215.807C125.483 217.002 120.45 219.452 116.386 220.282C116.073 220.344 115.777 220.472 115.517 220.657C115.257 220.842 115.039 221.08 114.879 221.356C114.718 221.632 114.618 221.938 114.584 222.256C114.551 222.573 114.586 222.894 114.686 223.197Z" fill="#4BC853"/>
<path d="M98.584 238.376L104.308 251.125C104.801 252.227 105.61 253.158 106.633 253.8C107.655 254.443 108.844 254.769 110.051 254.737C114.812 254.611 122.09 254.856 122.09 254.856C122.967 253.599 123.431 252.1 123.418 250.567H114.254C113.298 250.567 112.365 250.269 111.586 249.713C110.807 249.157 110.222 248.371 109.912 247.466L106.904 238.595L98.584 238.376Z" fill="#2E353A"/>
<path d="M111.552 223.615V223.987L111.499 224.651L111.36 226.331L111.313 226.995L111.174 228.675L111.121 229.339L110.988 231.019L110.935 231.683L110.802 233.376L110.749 234.04L110.583 236.105C110.526 236.807 110.207 237.462 109.689 237.94C109.171 238.417 108.492 238.682 107.787 238.681H97.6081C96.9895 238.683 96.3879 238.479 95.8977 238.101C95.4075 237.724 95.0562 237.195 94.899 236.596L94.235 234.04L94.0623 233.376L93.6175 231.683L93.4515 231.019L93.0066 229.339L92.8339 228.675L92.3891 226.995L92.2231 226.331L91.7782 224.651L91.6056 223.987L91.2138 222.493C91.0649 221.915 91.103 221.305 91.3225 220.751C91.542 220.196 91.9317 219.725 92.4356 219.405C92.8828 219.13 93.3979 218.986 93.9229 218.987H106.678C107.289 218.984 107.885 219.182 108.372 219.552L110.49 221.158C110.859 221.446 111.15 221.821 111.336 222.251C111.521 222.68 111.596 223.149 111.552 223.615Z" fill="#2E353A"/>
<path opacity="0.2" d="M111.552 223.615V223.987L111.499 224.651L111.36 226.331L111.313 226.995L111.174 228.675L111.121 229.339L110.988 231.019L110.935 231.683L110.802 233.376L110.749 234.04L110.583 236.105C110.526 236.807 110.207 237.462 109.689 237.94C109.171 238.417 108.492 238.682 107.787 238.681H97.6081C96.9895 238.683 96.3879 238.479 95.8977 238.101C95.4075 237.724 95.0562 237.195 94.899 236.596L94.235 234.04L94.0623 233.376L93.6175 231.683L93.4515 231.019L93.0066 229.339L92.8339 228.675L92.3891 226.995L92.2231 226.331L91.7782 224.651L91.6056 223.987L91.2138 222.493C91.0649 221.915 91.103 221.305 91.3225 220.751C91.542 220.196 91.9317 219.725 92.4356 219.405C92.8828 219.13 93.3979 218.986 93.9229 218.987H106.678C107.289 218.984 107.885 219.182 108.372 219.552L110.49 221.158C110.859 221.446 111.15 221.821 111.336 222.251C111.521 222.68 111.596 223.149 111.552 223.615Z" fill="white"/>
<path opacity="0.2" d="M111.552 223.615V223.987L111.499 224.651L111.359 226.331L111.313 226.995L111.174 228.675L111.12 229.339L110.988 231.019L110.934 231.683L110.802 233.376L110.749 234.04L110.583 236.105C110.526 236.807 110.207 237.462 109.689 237.94C109.171 238.417 108.492 238.682 107.787 238.681H106.904C106.285 238.683 105.684 238.479 105.194 238.101C104.703 237.724 104.352 237.195 104.195 236.596L103.531 234.04L103.358 233.376L102.913 231.683L102.747 231.019L102.302 229.339L102.13 228.675L101.685 226.995L101.519 226.331L101.074 224.651L100.901 223.987L100.51 222.493C100.361 221.915 100.399 221.305 100.618 220.751C100.838 220.196 101.228 219.725 101.731 219.405C102.179 219.13 102.694 218.986 103.219 218.987H106.678C107.289 218.984 107.885 219.182 108.371 219.552L110.49 221.158C110.859 221.446 111.15 221.821 111.336 222.251C111.521 222.68 111.596 223.149 111.552 223.615Z" fill="white"/>
<path opacity="0.2" d="M111.538 223.987L111.485 224.638H91.7512L91.5786 223.987H111.538Z" fill="black"/>
<path opacity="0.2" d="M111.346 226.324L111.3 226.962H92.3623L92.1963 226.324H111.346Z" fill="black"/>
<path opacity="0.2" d="M111.16 228.655L111.107 229.292H92.9798L92.8071 228.655H111.16Z" fill="black"/>
<path opacity="0.2" d="M110.974 230.986L110.921 231.623H93.5908L93.4248 230.986H110.974Z" fill="black"/>
<path opacity="0.2" d="M110.788 233.316L110.735 233.96H94.2083L94.0356 233.316H110.788Z" fill="black"/>
<path opacity="0.2" d="M123.404 250.547C123.416 252.045 122.976 253.512 122.143 254.757C122.127 254.783 122.109 254.807 122.089 254.83C122.089 254.83 118.477 254.71 114.679 254.684H111.963C111.299 254.684 110.635 254.684 110.044 254.684C108.839 254.718 107.65 254.393 106.629 253.752C105.608 253.11 104.8 252.179 104.307 251.078L98.5771 238.376L101.233 238.449L106.851 238.615L109.878 247.466C110.189 248.37 110.774 249.154 111.551 249.71C112.328 250.265 113.259 250.565 114.214 250.567L123.404 250.547Z" fill="white"/>
<path opacity="0.2" d="M123.404 250.547C123.416 252.045 122.976 253.512 122.143 254.757C120.151 254.71 117.256 254.657 114.679 254.684H114.161H112.701C112.455 254.697 112.209 254.697 111.964 254.684C110.888 254.58 109.859 254.194 108.981 253.564C108.103 252.934 107.407 252.084 106.964 251.098L101.267 238.429L106.884 238.595L109.912 247.446C110.223 248.35 110.807 249.134 111.584 249.69C112.361 250.245 113.292 250.545 114.248 250.547H123.404Z" fill="white"/>
<path d="M132.136 206.942H132.607C132.856 206.947 133.093 207.051 133.266 207.23C133.439 207.409 133.534 207.649 133.53 207.898C133.53 208.815 133.53 210.189 133.53 210.993C133.53 212.772 136.804 216.132 137.454 216.305C138.105 216.477 168.715 206.823 168.715 206.823C168.715 206.823 169.24 200.229 166.352 198.901C163.463 197.573 147.494 198.988 146.126 200.362C144.758 201.736 140.15 204.811 135.323 204.811C135.323 204.837 132.136 205.687 132.136 206.942Z" fill="#2E353A"/>
<path d="M177.288 199.067L163.862 212.108L147.926 216.849L147.441 213.483L163.131 202.367C163.373 202.191 163.549 201.939 163.63 201.651C163.71 201.363 163.692 201.056 163.576 200.78L163.277 200.083C163.167 199.821 162.983 199.597 162.747 199.439C162.511 199.281 162.233 199.196 161.949 199.193H149.831C149.831 199.193 152.428 198.297 154.659 197.5C156.89 196.703 172.128 197.5 174.359 197.5C174.801 197.482 175.242 197.551 175.657 197.704C176.072 197.856 176.452 198.09 176.776 198.39C176.985 198.584 177.158 198.813 177.288 199.067Z" fill="#4BC853"/>
<path d="M94.0358 184.479C94.0358 184.479 99.547 184.612 102.415 178.437H106.977V180.429L119.859 184.486C119.859 184.486 120.118 186.637 119.334 187.069L105.277 183.39H101.592C101.592 183.39 98.8365 186.943 95.6161 187.109C92.3957 187.275 94.0358 184.479 94.0358 184.479Z" fill="#2E353A"/>
<path d="M103.265 181.717V184.698C103.265 184.698 109.381 185.834 111.578 188.197V188.988H112.369V188.197C112.369 188.197 111.738 186.684 105.981 184.174V181.717H103.265Z" fill="#2E353A"/>
<path d="M79.9986 183.789C79.3418 182.247 78.9987 180.59 78.9893 178.915H75.4037L74.6334 180.754L66.7518 186.73C66.7518 186.73 66.2073 188.656 68.7438 188.397L75.7556 183.676L75.3904 185.123C75.3904 185.123 71.9974 187.042 71.0279 188.443C70.0585 189.844 71.9044 189.612 71.9044 189.612L71.9907 188.423C71.9907 188.423 74.3346 186.132 76.7516 186.093L79.9986 183.789Z" fill="#2E353A"/>
<path opacity="0.2" d="M132.136 208.735C129.586 213.815 117.528 218.35 112.349 216.849C107.17 215.348 97.9003 207.719 105.961 204.844C112.402 202.527 121.572 199.001 124.998 197.686C130.31 201.697 132.727 205.84 132.136 208.735Z" fill="black"/>
<path opacity="0.2" d="M163.55 200.78L163.251 200.083C163.141 199.821 162.956 199.597 162.72 199.439C162.484 199.281 162.207 199.196 161.923 199.193H149.832C149.832 199.193 152.428 198.297 154.659 197.5C156.89 196.703 172.129 197.5 174.36 197.5C174.801 197.482 175.242 197.551 175.657 197.704C176.072 197.856 176.452 198.09 176.777 198.39C176.777 198.39 167.082 199.545 163.105 202.374C163.348 202.198 163.525 201.944 163.606 201.655C163.687 201.365 163.667 201.057 163.55 200.78Z" fill="black"/>
<path d="M129.055 250.368L141.266 249.319C141.266 249.319 148.158 246.875 149.832 246.862C151.505 246.849 167.926 246.118 167.926 246.118C167.926 246.118 170.296 247.712 170.821 249.319C171.345 250.926 168.729 254.305 168.729 254.305C168.729 254.305 142.641 255.162 141.558 255.142C140.67 255.033 139.813 254.748 139.035 254.305L129.075 253.608L129.055 250.368Z" fill="#2E353A"/>
<path opacity="0.2" d="M129.055 250.368L141.266 249.319C141.266 249.319 148.158 246.875 149.832 246.862C151.505 246.849 167.926 246.118 167.926 246.118C167.926 246.118 170.296 247.712 170.821 249.319C171.345 250.926 168.729 254.305 168.729 254.305C168.729 254.305 142.641 255.162 141.558 255.142C140.67 255.033 139.813 254.748 139.035 254.305L129.075 253.608L129.055 250.368Z" fill="white"/>
<path d="M170.874 277.333L175.715 263.867H185.064L184.539 277.333H182.826L182.043 265.308H177.587L172.322 277.333H170.874Z" fill="black"/>
<path d="M208.968 257.141L206.371 263.117C205.881 264.247 205.071 265.209 204.041 265.885C203.012 266.561 201.807 266.921 200.575 266.921H189.692C188.248 266.921 186.863 266.348 185.841 265.328H165.509C164.723 265.327 163.948 265.139 163.248 264.78C162.549 264.421 161.944 263.901 161.485 263.263L158.829 259.531L208.968 257.141Z" fill="#2E353A"/>
<path opacity="0.4" d="M208.968 257.141L206.371 263.117C205.881 264.247 205.071 265.209 204.041 265.885C203.012 266.561 201.807 266.921 200.575 266.921H189.692C188.248 266.921 186.863 266.348 185.841 265.328H165.509C164.723 265.327 163.948 265.139 163.248 264.78C162.549 264.421 161.944 263.901 161.485 263.263L158.829 259.531L208.968 257.141Z" fill="black"/>
<path d="M161.498 191.962C161.47 191.969 161.441 191.969 161.412 191.962C161.358 191.94 161.316 191.898 161.293 191.844C161.271 191.791 161.271 191.731 161.293 191.677C162.123 189.632 166.498 187.832 169.925 187.5C170.996 187.437 172.061 187.298 173.112 187.082C173.138 187.062 173.168 187.049 173.201 187.043C173.233 187.037 173.266 187.039 173.298 187.049C173.355 187.066 173.403 187.105 173.432 187.157C173.46 187.209 173.467 187.27 173.45 187.328C173.404 187.487 173.364 187.607 169.971 187.945C166.698 188.264 162.468 190.004 161.724 191.843C161.702 191.883 161.669 191.915 161.629 191.936C161.589 191.958 161.544 191.967 161.498 191.962Z" fill="#263238"/>
<path d="M150.004 191.697C149.974 191.705 149.942 191.705 149.911 191.697C148.444 190.986 148.172 190.024 147.793 188.696L147.747 188.51C147.408 187.321 146.02 187.487 145.967 187.494C145.938 187.498 145.908 187.497 145.879 187.49C145.85 187.483 145.823 187.469 145.8 187.451C145.776 187.433 145.756 187.411 145.742 187.385C145.727 187.359 145.718 187.331 145.715 187.301C145.707 187.242 145.723 187.183 145.759 187.135C145.795 187.088 145.848 187.057 145.907 187.049C146.382 186.958 146.873 187.043 147.289 187.287C147.706 187.531 148.019 187.919 148.172 188.377L148.225 188.563C148.577 189.824 148.816 190.661 150.104 191.285C150.157 191.311 150.198 191.357 150.218 191.413C150.238 191.469 150.235 191.53 150.21 191.584C150.189 191.62 150.159 191.649 150.123 191.669C150.087 191.689 150.046 191.699 150.004 191.697Z" fill="#263238"/>
<path d="M245.016 251.842H243.761V249.916H246.271C246.249 250.319 246.121 250.709 245.901 251.047C245.681 251.385 245.376 251.659 245.016 251.842Z" fill="#2E353A"/>
<path d="M225.674 277.333C234.897 277.333 242.373 268.31 242.373 257.18C242.373 246.051 234.897 237.028 225.674 237.028C216.451 237.028 208.974 246.051 208.974 257.18C208.974 268.31 216.451 277.333 225.674 277.333Z" fill="#2E353A"/>
<path opacity="0.4" d="M225.674 277.333C234.897 277.333 242.373 268.31 242.373 257.18C242.373 246.051 234.897 237.028 225.674 237.028C216.451 237.028 208.974 246.051 208.974 257.18C208.974 268.31 216.451 277.333 225.674 277.333Z" fill="black"/>
<path d="M228.47 269.889C234.286 269.889 239.001 264.199 239.001 257.18C239.001 250.162 234.286 244.471 228.47 244.471C222.653 244.471 217.938 250.162 217.938 257.18C217.938 264.199 222.653 269.889 228.47 269.889Z" fill="black"/>
<path d="M230.886 251.716C233.31 251.716 235.275 254.086 235.275 257.028C235.275 259.969 233.283 262.34 230.886 262.34C228.489 262.34 226.497 259.969 226.497 257.028C226.497 254.086 228.463 251.716 230.886 251.716Z" fill="#4BC853"/>
<path opacity="0.4" d="M230.886 251.716C233.31 251.716 235.275 254.086 235.275 257.028C235.275 259.969 233.283 262.34 230.886 262.34C228.489 262.34 226.497 259.969 226.497 257.028C226.497 254.086 228.463 251.716 230.886 251.716Z" fill="black"/>
<path d="M243.363 246.855C243.363 246.855 245.249 250.939 243.363 254.159C237.728 256.905 231.562 258.387 225.295 258.502C215.435 258.515 228.257 245.906 243.363 246.855Z" fill="#2E353A"/>
<path opacity="0.2" d="M243.363 246.855C243.363 246.855 245.249 250.939 243.363 254.159C237.728 256.905 231.562 258.387 225.295 258.502C215.435 258.515 228.257 245.906 243.363 246.855Z" fill="white"/>
<path d="M236.517 221.311C236.517 221.311 238.131 221.809 238.131 225.435C238.131 227.639 235.893 229.857 235.893 229.857C235.893 229.857 232.301 221.192 236.517 221.311Z" fill="#263238"/>
<path opacity="0.7" d="M236.517 221.311C236.517 221.311 238.131 221.809 238.131 225.435C238.131 227.639 235.893 229.857 235.893 229.857C235.893 229.857 232.301 221.192 236.517 221.311Z" fill="white"/>
<path d="M229.279 220.315H237.247C237.247 220.315 238.482 222.433 235.255 224.91C232.028 227.387 229.279 220.315 229.279 220.315Z" fill="#263238"/>
<path d="M237.632 224.492C237.632 225.202 237.413 225.78 237.134 225.78C236.856 225.78 236.643 225.202 236.643 224.492C236.643 223.781 236.862 223.21 237.134 223.21C237.407 223.21 237.632 223.768 237.632 224.492Z" fill="white"/>
<path d="M192.407 233.442C192.407 236.304 180.98 256.682 179.838 257.473C178.696 258.263 163.782 257.38 163.782 257.38L164.898 261.603H205.84L222.845 228.569L211.597 212.341L191.093 212.905C191.093 212.905 192.407 230.581 192.407 233.442Z" fill="#4BC853"/>
<path opacity="0.5" d="M192.407 233.442C192.407 236.304 180.98 256.682 179.838 257.473C178.696 258.263 163.782 257.38 163.782 257.38L164.898 261.603H205.84L222.845 228.569L211.597 212.341L191.093 212.905C191.093 212.905 192.407 230.581 192.407 233.442Z" fill="white"/>
<path d="M132.621 226.743C132.621 226.743 145.941 236.955 152.315 257.951C152.671 259.153 153.406 260.208 154.409 260.959C155.413 261.711 156.633 262.118 157.886 262.121H177.587L154.719 224.937L142.654 219.917L132.621 226.743Z" fill="#4BC853"/>
<path opacity="0.2" d="M131.041 225.567C131.041 225.567 145.775 236.855 152.289 257.991C152.65 259.186 153.386 260.234 154.387 260.98C155.389 261.726 156.604 262.13 157.853 262.134H177.567L154.699 224.95L142.634 219.93L131.041 225.567Z" fill="white"/>
<path d="M245.833 244.883C245.787 245.277 245.596 245.64 245.298 245.901C245 246.162 244.616 246.303 244.219 246.297H241.324C241.06 246.297 240.799 246.353 240.557 246.46C240.316 246.568 240.1 246.725 239.923 246.922L231.258 256.477C230.996 256.763 230.691 257.007 230.355 257.2C224.6 260.433 218.111 262.131 211.511 262.134H171.007C169.928 262.122 168.893 261.706 168.107 260.969C167.32 260.231 166.838 259.225 166.757 258.15C165.774 246.45 158.729 237.851 152.813 232.579C150.929 230.895 148.933 229.342 146.837 227.931C145.358 226.963 143.624 226.457 141.857 226.477H132.561C131.386 226.477 130.569 224.976 130.914 223.861C132.448 219.213 135.297 214.186 138.139 209.884C140.683 206.042 143.446 202.348 146.412 198.821H159.446C160.108 198.832 160.756 199.004 161.335 199.324C161.914 199.643 162.405 200.1 162.766 200.654C163.438 201.604 163.716 202.777 163.543 203.928C162.746 209.293 162.688 214.742 163.371 220.123C165.236 236.019 172.308 250.474 175.987 257.054C176.629 258.233 177.57 259.222 178.716 259.921C179.862 260.621 181.172 261.006 182.514 261.038H192.646C200.05 258.913 205.774 238.183 205.774 232.772C205.774 227.048 199.95 213.171 199.95 213.171H228.967V220.069C229.498 220.129 229.233 220.202 229.405 220.282C240.521 224.744 244.399 236.145 245.78 242.778C245.906 243.473 245.924 244.183 245.833 244.883Z" fill="#4BC853"/>
<path opacity="0.7" d="M229.352 220.315C229.18 220.236 229.445 220.162 228.914 220.103V213.204H199.897C199.897 213.204 205.721 227.081 205.721 232.805C205.721 238.217 199.997 258.94 192.593 261.065H182.461C181.119 261.033 179.808 260.648 178.662 259.949C177.517 259.249 176.575 258.26 175.934 257.081C172.242 250.501 165.17 236.045 163.318 220.143C162.632 214.764 162.69 209.317 163.49 203.954C163.66 202.804 163.382 201.632 162.713 200.681C162.351 200.128 161.86 199.671 161.281 199.352C160.702 199.032 160.054 198.859 159.393 198.848H146.359C143.402 202.376 140.648 206.069 138.112 209.91C135.27 214.213 132.422 219.206 130.888 223.888C130.523 225.003 131.359 226.504 132.535 226.504H141.831C143.598 226.482 145.332 226.988 146.811 227.958C148.907 229.368 150.903 230.921 152.787 232.606C158.716 237.878 165.768 246.483 166.731 258.176C166.813 259.251 167.295 260.256 168.082 260.994C168.868 261.731 169.902 262.147 170.98 262.16H204.671V249.305C204.672 245.56 205.495 241.861 207.082 238.469L211.876 228.204C212.973 225.854 214.718 223.867 216.906 222.476C219.094 221.084 221.633 220.346 224.226 220.348H228.715L229.233 220.315C230.408 220.76 230.441 220.753 229.352 220.315Z" fill="white"/>
<path d="M153.384 194.552H157.096C158.074 194.551 159.023 194.216 159.785 193.602L167.441 187.407C167.743 187.161 168.121 187.027 168.51 187.029H183.264C183.546 187.029 183.816 186.917 184.015 186.718C184.215 186.518 184.327 186.248 184.327 185.966C184.327 185.685 184.215 185.414 184.015 185.215C183.816 185.016 183.546 184.904 183.264 184.904H168.537C167.66 184.903 166.809 185.203 166.126 185.754L158.47 191.949C158.094 192.253 157.626 192.421 157.142 192.427H153.384C152.868 192.425 152.369 192.237 151.979 191.898C151.59 191.56 151.334 191.092 151.259 190.581L150.921 188.191C150.787 187.28 150.331 186.447 149.635 185.844C148.939 185.24 148.05 184.907 147.129 184.904H144.334C144.052 184.904 143.782 185.016 143.583 185.215C143.383 185.414 143.271 185.685 143.271 185.966C143.271 186.248 143.383 186.518 143.583 186.718C143.782 186.917 144.052 187.029 144.334 187.029H147.129C147.539 187.031 147.934 187.179 148.243 187.447C148.552 187.715 148.756 188.085 148.816 188.49L149.155 190.88C149.304 191.897 149.813 192.826 150.589 193.5C151.365 194.174 152.357 194.547 153.384 194.552Z" fill="#2E353A"/>
<path d="M162.713 197.387L161.053 200.043H145.609L144.4 197.759C144.203 197.395 144.128 196.977 144.187 196.567C144.245 196.157 144.434 195.776 144.725 195.482L149.314 190.787C149.486 190.609 149.682 190.457 149.898 190.336C150.009 190.273 150.124 190.22 150.243 190.176C150.536 190.063 150.846 190.004 151.16 190.004H159.964C159.964 190.004 159.918 192.52 162.268 192.361L163.039 195.083C163.149 195.469 163.177 195.873 163.121 196.27C163.065 196.667 162.926 197.047 162.713 197.387Z" fill="#263238"/>
<path opacity="0.4" d="M154.148 193.397L149.228 193.224L149.892 190.349C150.002 190.286 150.118 190.233 150.237 190.189C150.529 190.076 150.84 190.018 151.153 190.017H158.829L154.148 193.397Z" fill="white"/>
<path d="M188.497 212.48V214.472C188.497 216.285 189.984 217.46 191.817 217.46H227.752C229.572 217.46 231.032 216.285 231.032 214.472V212.48C231.032 210.667 229.572 209.492 227.752 209.492H191.797C189.984 209.485 188.497 210.661 188.497 212.48Z" fill="#2E353A"/>
<path opacity="0.1" d="M200.196 212.48V214.472C200.176 214.876 200.243 215.279 200.39 215.656C200.538 216.032 200.764 216.373 201.054 216.656C201.343 216.938 201.689 217.156 202.069 217.295C202.449 217.433 202.854 217.49 203.257 217.46H227.752C229.572 217.46 231.032 216.285 231.032 214.472V212.48C231.032 210.667 229.572 209.492 227.752 209.492H203.251C202.848 209.463 202.444 209.52 202.065 209.66C201.685 209.799 201.34 210.017 201.051 210.299C200.763 210.581 200.537 210.922 200.39 211.298C200.243 211.674 200.177 212.077 200.196 212.48Z" fill="white"/>
<path d="M174.689 177.72L168.928 185.251L169.772 185.897L175.532 178.365L174.689 177.72Z" fill="#2E353A"/>
<path d="M178.152 176.777H175.442C175.159 176.775 174.882 176.858 174.646 177.014C174.409 177.17 174.225 177.392 174.114 177.653L173.749 178.496C173.659 178.715 173.623 178.953 173.647 179.188C173.67 179.424 173.75 179.65 173.882 179.847C174.013 180.044 174.191 180.205 174.399 180.317C174.608 180.429 174.841 180.488 175.077 180.488H178.032C178.378 180.489 178.712 180.364 178.974 180.137C179.235 179.91 179.405 179.596 179.453 179.253L179.579 178.41C179.605 178.207 179.588 178 179.529 177.804C179.469 177.607 179.369 177.426 179.234 177.272C179.099 177.117 178.932 176.993 178.746 176.908C178.559 176.823 178.357 176.778 178.152 176.777Z" fill="#263238"/>
<path d="M147.624 178.881L146.584 179.1L148.003 185.838L149.042 185.619L147.624 178.881Z" fill="#2E353A"/>
<path d="M143.922 176.777H146.844C147.129 176.778 147.405 176.883 147.621 177.07C147.836 177.258 147.978 177.516 148.019 177.799L148.211 179.127C148.231 179.294 148.215 179.462 148.165 179.622C148.115 179.782 148.032 179.929 147.921 180.054C147.81 180.18 147.674 180.28 147.521 180.349C147.369 180.418 147.204 180.455 147.036 180.455H144.088C143.803 180.455 143.527 180.352 143.311 180.166C143.096 179.979 142.954 179.722 142.913 179.439L142.72 178.111C142.7 177.943 142.717 177.771 142.768 177.609C142.82 177.447 142.905 177.298 143.019 177.172C143.133 177.046 143.272 176.945 143.428 176.877C143.583 176.809 143.752 176.775 143.922 176.777Z" fill="#263238"/>
<path d="M163.078 207.168C162.791 210.312 162.755 213.474 162.972 216.623C163.052 217.819 163.165 218.994 163.304 220.169L158.623 229.08C158.069 230.142 157.235 231.031 156.21 231.652C155.186 232.272 154.011 232.6 152.813 232.599H152.753C152.529 232.365 152.292 232.143 152.043 231.935C150.421 230.543 148.718 229.249 146.943 228.057C145.429 227.044 143.646 226.505 141.824 226.51H132.528C131.353 226.51 130.536 225.01 130.881 223.894C132.415 219.246 135.263 214.22 138.105 209.917C138.178 214.941 137.798 219.961 136.97 224.917H141.432C141.432 224.917 149.599 213.343 156.545 211.112L162.707 200.687C163.378 201.637 163.657 202.81 163.483 203.961C163.344 205.017 163.178 206.079 163.078 207.168Z" fill="#4BC853"/>
<path opacity="0.5" d="M163.078 207.168C162.791 210.312 162.755 213.474 162.972 216.623C163.052 217.819 163.165 218.994 163.304 220.169L158.623 229.08C158.069 230.142 157.235 231.031 156.21 231.652C155.186 232.272 154.011 232.6 152.813 232.599H152.753C152.529 232.365 152.292 232.143 152.043 231.935C150.421 230.543 148.718 229.249 146.943 228.057C145.429 227.044 143.646 226.505 141.824 226.51H132.528C131.353 226.51 130.536 225.01 130.881 223.894C132.415 219.246 135.263 214.22 138.105 209.917C138.178 214.941 137.798 219.961 136.97 224.917H141.432C141.432 224.917 149.599 213.343 156.545 211.112L162.707 200.687C163.378 201.637 163.657 202.81 163.483 203.961C163.344 205.017 163.178 206.079 163.078 207.168Z" fill="white"/>
<path d="M136.95 213.104C137.182 216.41 136.772 219.729 135.742 222.878H131.904C131.904 222.878 134.394 216.099 136.95 213.104Z" fill="#4BC853"/>
<path opacity="0.7" d="M136.95 213.104C137.182 216.41 136.772 219.729 135.742 222.878H131.904C131.904 222.878 134.394 216.099 136.95 213.104Z" fill="white"/>
<path d="M155.104 213.104C155.23 213.031 151.246 223.589 151.246 223.589H145.416C147.618 219.268 150.971 215.64 155.104 213.104Z" fill="#4BC853"/>
<path opacity="0.7" d="M155.104 213.104C155.23 213.031 151.246 223.589 151.246 223.589H145.416C147.618 219.268 150.971 215.64 155.104 213.104Z" fill="white"/>
<path d="M151.638 220.7C151.638 222.028 150.815 223.071 149.799 223.071C148.783 223.071 147.959 222.015 147.959 220.7C147.959 219.386 148.783 218.33 149.799 218.33C150.815 218.33 151.638 219.392 151.638 220.7Z" fill="white"/>
<path d="M136.187 219.91C136.187 221.238 135.609 222.281 134.892 222.281C134.175 222.281 133.564 221.218 133.564 219.91C133.564 218.602 134.142 217.54 134.892 217.54C135.642 217.54 136.187 218.602 136.187 219.91Z" fill="white"/>
<path d="M153.331 217.128C153.288 217.297 153.198 217.449 153.072 217.569C152.945 217.689 152.788 217.771 152.618 217.806C152.447 217.841 152.27 217.828 152.107 217.767C151.944 217.706 151.801 217.601 151.695 217.463C151.589 217.326 151.523 217.161 151.506 216.988C151.489 216.814 151.521 216.64 151.598 216.484C151.675 216.328 151.794 216.197 151.942 216.105C152.09 216.013 152.261 215.965 152.435 215.966C152.706 216.004 152.952 216.147 153.12 216.364C153.287 216.581 153.363 216.856 153.331 217.128Z" fill="white"/>
<path d="M136.671 216.524C136.671 217.188 136.392 217.686 136.054 217.686C135.715 217.686 135.436 217.168 135.436 216.524C135.436 215.88 135.708 215.368 136.054 215.368C136.399 215.368 136.671 215.886 136.671 216.524Z" fill="white"/>
<path d="M154.493 200.641C154.493 200.641 151.731 218.011 142.614 218.137C134.075 218.25 133.278 201.936 141.425 199.426C148.012 197.401 154.493 200.641 154.493 200.641Z" fill="#4BC853"/>
<path d="M154.493 200.641C154.493 200.641 151.731 218.011 142.614 218.137C134.075 218.25 133.278 201.936 141.425 199.426C148.012 197.401 154.493 200.641 154.493 200.641Z" fill="#263238"/>
<path d="M148.867 209.391C149.395 205 147.028 201.104 143.58 200.689C140.132 200.275 136.909 203.498 136.381 207.889C135.853 212.28 138.219 216.176 141.667 216.59C145.115 217.005 148.339 213.782 148.867 209.391Z" fill="#4BC853"/>
<path opacity="0.7" d="M148.867 209.391C149.395 205 147.028 201.104 143.58 200.689C140.132 200.275 136.909 203.498 136.381 207.889C135.853 212.28 138.219 216.176 141.667 216.59C145.115 217.005 148.339 213.782 148.867 209.391Z" fill="white"/>
<path d="M144.168 210.714C144.168 212.666 142.939 214.246 141.425 214.246C139.912 214.246 138.683 212.666 138.683 210.714C138.683 208.762 139.912 207.168 141.432 207.168C142.953 207.168 144.168 208.762 144.168 210.714Z" fill="white"/>
<path d="M146.485 206.119C146.419 206.375 146.283 206.608 146.091 206.791C145.9 206.973 145.661 207.098 145.402 207.152C145.142 207.206 144.873 207.185 144.625 207.094C144.377 207.002 144.159 206.842 143.997 206.633C143.835 206.424 143.735 206.173 143.708 205.91C143.682 205.646 143.729 205.381 143.846 205.143C143.963 204.906 144.144 204.706 144.369 204.566C144.593 204.426 144.853 204.352 145.117 204.353C145.53 204.412 145.903 204.63 146.159 204.959C146.414 205.289 146.531 205.705 146.485 206.119Z" fill="white"/>
<path d="M245.361 241.225H242.646C242.418 241.226 242.2 241.318 242.04 241.48C241.879 241.641 241.789 241.86 241.789 242.088V243.608C241.789 243.836 241.879 244.055 242.04 244.216C242.2 244.378 242.418 244.47 242.646 244.471H245.866C246.011 243.925 246.04 243.354 245.953 242.795C245.867 242.236 245.665 241.702 245.361 241.225Z" fill="#4BC853"/>
<path opacity="0.7" d="M245.361 241.225H242.646C242.418 241.226 242.2 241.318 242.04 241.48C241.879 241.641 241.789 241.86 241.789 242.088V243.608C241.789 243.836 241.879 244.055 242.04 244.216C242.2 244.378 242.418 244.47 242.646 244.471H245.866C246.011 243.925 246.04 243.354 245.953 242.795C245.867 242.236 245.665 241.702 245.361 241.225Z" fill="white"/>
<path d="M175.535 184.884C175.535 184.884 175.449 184.36 174.081 184.36C172.713 184.36 172.235 186.352 172.235 186.352L172.78 188.025H174.632L175.529 187.706C175.529 187.706 178.915 188.583 179.221 189.14C179.526 189.698 180.017 189.804 179.885 189.14C179.752 188.476 176.08 186.989 176.08 186.989L175.535 184.884Z" fill="#2E353A"/>
<path d="M148.225 185.037C148.127 184.837 147.975 184.668 147.786 184.551C147.597 184.433 147.379 184.372 147.156 184.373C147.001 184.35 146.842 184.361 146.691 184.403C146.54 184.446 146.4 184.519 146.279 184.62C146.159 184.72 146.06 184.844 145.99 184.984C145.921 185.125 145.881 185.279 145.874 185.435C145.834 185.846 145.834 186.26 145.874 186.67L145.117 187.261C145.117 187.261 142.807 188.35 142.614 188.503C142.422 188.656 142.329 189.273 142.734 189.213C143.361 188.926 143.955 188.572 144.507 188.158C145.131 187.861 145.808 187.69 146.499 187.653L147.9 186.796L148.225 185.037Z" fill="#2E353A"/>
<path d="M137.229 226.809L128.026 256.775L130.363 258.223L139.599 229.14L137.229 226.809Z" fill="#4BC853"/>
<path opacity="0.6" d="M137.229 226.809L128.026 256.775L130.363 258.223L139.599 229.14L137.229 226.809Z" fill="white"/>
<path d="M141.06 226.504L137.222 238.821H136.499C135.171 237.221 133.989 237.347 133.989 237.347L133.511 236.643L136.419 226.504H141.06Z" fill="#2E353A"/>
<path d="M131.559 256.344C131.559 257.891 130.676 259.153 129.567 259.153C128.458 259.153 127.575 257.891 127.575 256.344C127.575 254.797 128.458 253.535 129.567 253.535C130.676 253.535 131.559 254.79 131.559 256.344Z" fill="#2E353A"/>
<path d="M133.477 277.333C142.7 277.333 150.177 268.31 150.177 257.18C150.177 246.051 142.7 237.028 133.477 237.028C124.255 237.028 116.778 246.051 116.778 257.18C116.778 268.31 124.255 277.333 133.477 277.333Z" fill="#2E353A"/>
<path opacity="0.4" d="M133.477 277.333C142.7 277.333 150.177 268.31 150.177 257.18C150.177 246.051 142.7 237.028 133.477 237.028C124.255 237.028 116.778 246.051 116.778 257.18C116.778 268.31 124.255 277.333 133.477 277.333Z" fill="black"/>
<path d="M156.618 255.474H152.634C152.106 255.466 151.589 255.317 151.137 255.042C150.686 254.768 150.315 254.378 150.064 253.914C147.993 250.036 141.97 240.089 133.497 237.639C122.913 234.578 139.254 232.745 145.137 236.975C151.02 241.205 156.618 255.474 156.618 255.474Z" fill="#263238"/>
<path opacity="0.4" d="M156.618 255.474H152.634C152.106 255.466 151.589 255.317 151.137 255.042C150.686 254.768 150.315 254.378 150.064 253.914C147.993 250.036 141.97 240.089 133.497 237.639C122.913 234.578 139.254 232.745 145.137 236.975C151.02 241.205 156.618 255.474 156.618 255.474Z" fill="black"/>
<path d="M136.273 269.889C142.089 269.889 146.804 264.199 146.804 257.18C146.804 250.162 142.089 244.471 136.273 244.471C130.457 244.471 125.742 250.162 125.742 257.18C125.742 264.199 130.457 269.889 136.273 269.889Z" fill="black"/>
<path d="M138.697 251.716C141.12 251.716 143.079 254.086 143.079 257.028C143.079 259.969 141.12 262.34 138.697 262.34C136.273 262.34 134.308 259.969 134.308 257.028C134.308 254.086 136.273 251.716 138.697 251.716Z" fill="#4BC853"/>
<path opacity="0.4" d="M138.697 251.716C141.12 251.716 143.079 254.086 143.079 257.028C143.079 259.969 141.12 262.34 138.697 262.34C136.273 262.34 134.308 259.969 134.308 257.028C134.308 254.086 136.273 251.716 138.697 251.716Z" fill="black"/>
<path d="M119.985 244.564H121.844C123.385 244.56 124.883 244.057 126.114 243.13C128.995 240.972 135.091 237.353 141.425 239.452C148.729 241.882 153.736 251.497 155.157 254.544C155.286 254.823 155.492 255.059 155.751 255.224C156.01 255.389 156.311 255.475 156.618 255.474C156.618 255.474 154.314 236.643 141.432 231.523C128.929 226.557 120.463 237.008 118.637 242.712C118.569 242.924 118.552 243.15 118.588 243.37C118.624 243.59 118.711 243.799 118.842 243.98C118.973 244.16 119.145 244.307 119.343 244.408C119.542 244.51 119.762 244.564 119.985 244.564Z" fill="#4BC853"/>
<path opacity="0.5" d="M119.985 244.564H121.844C123.385 244.56 124.883 244.057 126.114 243.13C128.995 240.972 135.091 237.353 141.425 239.452C148.729 241.882 153.736 251.497 155.157 254.544C155.286 254.823 155.492 255.059 155.751 255.224C156.01 255.389 156.311 255.475 156.618 255.474C156.618 255.474 154.314 236.643 141.432 231.523C128.929 226.557 120.463 237.008 118.637 242.712C118.569 242.924 118.552 243.15 118.588 243.37C118.624 243.59 118.711 243.799 118.842 243.98C118.973 244.16 119.145 244.307 119.343 244.408C119.542 244.51 119.762 244.564 119.985 244.564Z" fill="white"/>
<path d="M149.918 230.202L147.183 238.834L141.021 258.236L138.677 256.789L144.653 237.36L147.408 228.363C148.152 228.874 148.995 229.485 149.918 230.202Z" fill="#4BC853"/>
<path opacity="0.6" d="M149.918 230.202L147.183 238.834L141.021 258.236L138.677 256.789L144.653 237.36L147.408 228.363C148.152 228.874 148.995 229.485 149.918 230.202Z" fill="white"/>
<path d="M150.443 230.607L147.88 238.821H147.156C145.828 237.221 144.646 237.347 144.646 237.347L144.168 236.643L146.678 227.885C146.723 227.904 146.765 227.929 146.804 227.958L147.408 228.363C148.152 228.874 148.995 229.485 149.918 230.202L150.443 230.607Z" fill="#2E353A"/>
<path d="M142.215 256.344C142.215 257.891 141.332 259.153 140.223 259.153C139.115 259.153 138.231 257.891 138.231 256.344C138.231 254.797 139.115 253.535 140.223 253.535C141.332 253.535 142.215 254.79 142.215 256.344Z" fill="#2E353A"/>
<path opacity="0.5" d="M245.833 244.883C245.787 245.277 245.596 245.64 245.298 245.901C245 246.162 244.616 246.303 244.219 246.298H241.324C241.06 246.297 240.799 246.353 240.557 246.46C240.316 246.568 240.1 246.725 239.923 246.922L231.258 256.477C230.996 256.763 230.691 257.007 230.355 257.2C224.6 260.433 218.111 262.131 211.511 262.134H204.725V249.312C204.722 245.565 205.543 241.864 207.128 238.469L211.922 228.21C213.019 225.86 214.763 223.871 216.951 222.479C219.139 221.086 221.679 220.347 224.273 220.348H228.761L229.279 220.315C233.548 222.055 237.22 224.996 239.85 228.781C240.116 229.14 240.368 229.512 240.614 229.883C241.404 231.106 242.109 232.382 242.725 233.701C243.239 234.783 243.696 235.892 244.093 237.021C244.776 238.908 245.321 240.84 245.727 242.805C245.868 243.488 245.904 244.189 245.833 244.883Z" fill="white"/>
<path d="M203.715 193.616C203.554 193.854 203.431 194.116 203.35 194.393C203.251 194.745 203.158 195.103 203.065 195.462C202.261 198.636 201.703 202.301 202.879 205.455C203.37 206.783 204.525 208.675 205.98 209.107C207.062 209.432 208.636 209.193 209.784 209.226L213.835 209.346C214.1 209.373 214.367 209.341 214.618 209.253C214.874 209.111 215.09 208.908 215.249 208.662C215.981 207.688 216.664 206.677 217.294 205.634C218 204.572 218.5 203.388 218.768 202.142C218.963 200.603 218.721 199.041 218.071 197.633C217.367 195.714 215.988 194.116 214.193 193.138C213.698 192.913 213.185 192.731 212.659 192.593C210.488 191.989 205.322 191.332 203.715 193.616Z" fill="#4BC853"/>
<path opacity="0.4" d="M203.715 193.616C203.554 193.854 203.431 194.116 203.35 194.393C203.251 194.745 203.158 195.103 203.065 195.462C202.261 198.636 201.703 202.301 202.879 205.455C203.37 206.783 204.525 208.675 205.98 209.107C207.062 209.432 208.636 209.193 209.784 209.226L213.835 209.346C214.1 209.373 214.367 209.341 214.618 209.253C214.874 209.111 215.09 208.908 215.249 208.662C215.981 207.688 216.664 206.677 217.294 205.634C218 204.572 218.5 203.388 218.768 202.142C218.963 200.603 218.721 199.041 218.071 197.633C217.367 195.714 215.988 194.116 214.193 193.138C213.698 192.913 213.185 192.731 212.659 192.593C210.488 191.989 205.322 191.332 203.715 193.616Z" fill="black"/>
<path d="M216.623 192.387C216.623 192.387 210.222 189.897 205.103 192.885C199.983 195.873 212.301 198.197 212.301 198.197L209.572 196.033C209.572 196.033 213.157 198.078 214.963 197.932L216.623 192.387Z" fill="#263238"/>
<path d="M202.998 205.906C203.119 206.543 203.419 207.131 203.864 207.602C204.309 208.073 204.88 208.406 205.508 208.562C208.45 209.226 213.224 206.889 213.224 206.889L213.476 208.217C213.476 208.217 208.762 210.302 205.508 209.585C203.795 209.193 202.52 207.042 202.998 205.906Z" fill="#263238"/>
<path d="M206.637 209.718L206.465 208.669C206.002 208.388 205.507 208.165 204.99 208.005C204.676 207.927 204.348 207.927 204.034 208.005C204.009 208.295 204.07 208.587 204.209 208.843C204.349 209.099 204.56 209.309 204.818 209.446C205.396 209.673 206.018 209.766 206.637 209.718Z" fill="#263238"/>
<path opacity="0.5" d="M206.637 209.718L206.465 208.669C206.002 208.388 205.507 208.165 204.99 208.005C204.676 207.927 204.348 207.927 204.034 208.005C204.009 208.295 204.07 208.587 204.209 208.843C204.349 209.099 204.56 209.309 204.818 209.446C205.396 209.673 206.018 209.766 206.637 209.718Z" fill="white"/>
<path d="M221.205 206.152C218.954 209.379 215.183 211.252 213.111 208.848C211.04 206.444 213.994 197.46 213.994 197.46C209.18 194.552 203.41 194.997 203.41 194.997C203.809 191.431 208.417 187.746 216.478 190.893C217.688 191.323 218.799 191.995 219.74 192.868C220.682 193.742 221.436 194.798 221.956 195.973C222.064 196.212 222.157 196.459 222.235 196.71C222.413 197.208 222.546 197.722 222.633 198.244C222.737 198.827 222.793 199.418 222.799 200.01C222.89 202.17 222.335 204.309 221.205 206.152Z" fill="#4BC853"/>
<path d="M203.622 193.549C207.55 193.16 211.504 193.953 214.977 195.827C215.303 196.841 215.545 197.88 215.701 198.934C215.701 199.652 201.371 196.624 200.654 195.674C199.937 194.725 202.719 194.798 202.719 194.798L203.622 193.549Z" fill="#263238"/>
<path d="M257.28 144.174C257.174 146.737 258.229 150.881 260.228 152.215C260.228 152.215 258.9 154.971 254.252 155.814C249.159 156.744 251.43 153.749 251.43 153.749C254.086 152.581 253.714 150.549 252.937 148.716L257.28 144.174Z" fill="#E4897B"/>
<path d="M246.57 142.036C246.656 142.362 246.57 142.7 246.331 142.747C246.092 142.793 245.872 142.587 245.786 142.255C245.7 141.923 245.786 141.591 246.025 141.552C246.264 141.512 246.483 141.704 246.57 142.036Z" fill="#263238"/>
<path d="M246.125 141.538H245.275C245.275 141.538 245.839 142.043 246.125 141.538Z" fill="#263238"/>
<path d="M246.344 142.435C246.232 143.275 246.009 144.097 245.68 144.878C245.882 144.948 246.097 144.974 246.31 144.953C246.523 144.933 246.73 144.866 246.915 144.759L246.344 142.435Z" fill="#A02724"/>
<path d="M245.567 139.965C245.598 139.969 245.629 139.969 245.66 139.965C245.87 139.818 246.111 139.722 246.365 139.684C246.618 139.646 246.877 139.667 247.121 139.745C247.17 139.766 247.225 139.766 247.275 139.745C247.324 139.724 247.363 139.685 247.383 139.636C247.403 139.587 247.403 139.531 247.383 139.482C247.362 139.433 247.323 139.394 247.273 139.374C246.968 139.27 246.643 139.239 246.324 139.283C246.005 139.327 245.7 139.444 245.434 139.626C245.412 139.641 245.393 139.659 245.379 139.682C245.364 139.704 245.354 139.728 245.349 139.754C245.344 139.78 245.345 139.807 245.35 139.833C245.355 139.859 245.366 139.883 245.381 139.905C245.404 139.93 245.433 139.949 245.466 139.96C245.499 139.97 245.533 139.972 245.567 139.965Z" fill="#263238"/>
<path d="M257.413 137.979C258.196 142.103 258.614 143.829 257.094 146.492C254.803 150.476 249.557 150.708 247.559 146.943C245.759 143.55 244.783 137.382 248.349 134.633C249.105 134.017 250.009 133.608 250.971 133.448C251.933 133.288 252.921 133.382 253.836 133.72C254.751 134.057 255.562 134.628 256.189 135.375C256.816 136.122 257.238 137.02 257.413 137.979Z" fill="#E4897B"/>
<path d="M258.96 134.679C257.2 131.658 255.175 130.031 249.451 131.658C245.155 132.88 241.483 138.962 248.462 142.441C248.462 142.441 250.454 145.263 252.705 146.293C254.956 147.322 255.567 147.621 257.93 146.226C259.856 145.071 261.656 139.307 258.96 134.679Z" fill="#263238"/>
<path d="M249.412 141.684C249.647 142.43 249.647 143.23 249.412 143.975C249.1 145.018 248.303 145.051 247.858 144.354C247.592 143.941 247.438 143.466 247.411 142.976C247.385 142.486 247.486 141.997 247.705 141.558C248.276 140.715 249.113 140.868 249.412 141.684Z" fill="#E4897B"/>
<path d="M256.775 132.893C256.775 132.893 257.141 129.208 260.454 129.188C263.767 129.168 266.43 132.508 266.689 138.358C266.948 144.208 273.681 141.957 275.321 143.072C276.961 144.188 277.047 145.396 277.047 145.396C276.806 144.906 276.412 144.507 275.925 144.26C275.437 144.013 274.883 143.932 274.345 144.028C274.694 144.132 275.006 144.336 275.242 144.614C275.478 144.892 275.627 145.233 275.673 145.595C275.239 145.277 274.7 145.137 274.166 145.204C274.166 145.204 274.743 146.837 270.899 146.943C267.054 147.049 262.532 146.279 259.983 140.343C257.433 134.407 256.775 132.893 256.775 132.893Z" fill="#263238"/>
<path d="M272.24 141.339C271.382 141.344 270.539 141.115 269.803 140.675C268.475 139.865 267.565 138.371 267.147 136.24C266.536 133.378 265.387 131.552 263.721 130.815C261.397 129.785 258.827 131.26 258.801 131.273C258.781 131.29 258.759 131.302 258.735 131.309C258.71 131.316 258.685 131.317 258.659 131.313C258.634 131.309 258.611 131.3 258.59 131.286C258.569 131.271 258.551 131.253 258.538 131.231C258.525 131.209 258.517 131.184 258.515 131.159C258.513 131.134 258.516 131.108 258.524 131.085C258.533 131.061 258.547 131.039 258.564 131.021C258.582 131.003 258.604 130.989 258.628 130.981C258.741 130.914 261.37 129.4 263.854 130.503C265.626 131.286 266.848 133.192 267.479 136.173C267.904 138.205 268.754 139.619 270.002 140.383C270.983 140.952 272.142 141.132 273.249 140.888C273.293 140.875 273.34 140.881 273.38 140.903C273.42 140.926 273.449 140.963 273.462 141.007C273.468 141.028 273.469 141.051 273.467 141.073C273.464 141.095 273.457 141.116 273.445 141.135C273.434 141.154 273.419 141.171 273.402 141.184C273.384 141.198 273.364 141.207 273.342 141.213C272.982 141.305 272.611 141.348 272.24 141.339Z" fill="#263238"/>
<path d="M250.016 142.322C248.303 142.306 246.646 141.712 245.314 140.635C244.841 140.268 244.456 139.798 244.19 139.261C243.923 138.724 243.781 138.134 243.774 137.534C243.774 134.214 247.545 133.789 247.579 133.783C247.603 133.776 247.628 133.774 247.653 133.778C247.677 133.782 247.701 133.791 247.721 133.805C247.742 133.819 247.76 133.837 247.773 133.859C247.786 133.88 247.794 133.904 247.797 133.929C247.8 133.954 247.797 133.979 247.79 134.002C247.782 134.026 247.769 134.048 247.752 134.066C247.735 134.085 247.714 134.099 247.691 134.108C247.668 134.118 247.643 134.122 247.618 134.121C247.479 134.121 244.139 134.54 244.113 137.541C244.123 138.09 244.257 138.629 244.502 139.119C244.748 139.61 245.101 140.039 245.534 140.376C246.283 140.979 247.146 141.425 248.071 141.689C248.996 141.952 249.964 142.028 250.919 141.91C250.963 141.904 251.009 141.915 251.045 141.941C251.082 141.967 251.108 142.006 251.118 142.05C251.124 142.093 251.112 142.138 251.086 142.174C251.061 142.209 251.022 142.234 250.978 142.242C250.66 142.296 250.338 142.322 250.016 142.322Z" fill="#263238"/>
<path d="M240.992 189.605C240.992 189.605 244.438 179.214 247.738 172.175L248.342 173.251C248.342 173.251 243.136 186.252 242.731 189.134L240.992 189.605Z" fill="#263238"/>
<path opacity="0.2" d="M240.992 189.605C240.992 189.605 244.438 179.214 247.738 172.175L248.342 173.251C248.342 173.251 243.136 186.252 242.731 189.134L240.992 189.605Z" fill="white"/>
<path d="M269.657 154.911C269.896 156.16 270.155 157.507 270.454 158.796C270.752 160.084 271.038 161.398 271.383 162.673C272.03 165.201 272.874 167.674 273.906 170.07L277.373 177.507L279.079 181.272C279.623 182.54 280.188 183.795 280.712 185.077L278.481 186.285C277.698 185.143 276.954 183.981 276.197 182.819L273.999 179.307C272.552 176.943 271.144 174.592 269.79 172.115C268.428 169.547 267.333 166.846 266.523 164.054C266.118 162.687 265.739 161.312 265.414 159.931C265.089 158.55 264.816 157.182 264.597 155.708L269.657 154.911Z" fill="#DC897C"/>
<path d="M280.507 184.878C280.507 184.878 282.804 188.131 282.864 188.569C282.924 189.008 283.056 190.953 282.91 191C282.764 191.046 279.942 191.338 279.942 191.338L278.216 188.357C278.216 188.357 277.751 186.484 278.143 185.455L280.507 184.878Z" fill="#E4897B"/>
<path d="M248.177 160.157C247.513 161.485 246.849 162.707 246.145 163.948C245.441 165.19 244.657 166.372 243.861 167.56C242.267 169.984 240.429 172.238 238.376 174.287C236.344 176.279 234.306 178.078 232.221 179.911L229.08 182.6C228.011 183.476 226.955 184.373 225.866 185.256L224.093 183.437C224.976 182.368 225.886 181.338 226.789 180.289L229.531 177.195L235.049 171.119C236.747 169.139 238.286 167.028 239.651 164.805C240.368 163.676 241.032 162.521 241.696 161.352C242.36 160.183 243.024 158.995 243.608 157.879L248.177 160.157Z" fill="#DC897C"/>
<path d="M224.332 183.264C224.332 183.264 221.178 185.688 221.012 186.086C220.846 186.484 220.122 188.31 220.249 188.397C220.375 188.483 222.984 189.605 222.984 189.605L225.494 187.261C225.494 187.261 226.497 185.608 226.424 184.512L224.332 183.264Z" fill="#E4897B"/>
<path d="M267.592 153.198C269.829 153.464 272.419 160.562 272.419 160.562L265.553 163.377C265.553 163.377 262.32 152.574 267.592 153.198Z" fill="#4BC853"/>
<path d="M264.75 178.902L247.439 179.566C243.143 154.951 245.162 154.486 245.162 154.486C246.501 154.015 247.867 153.623 249.252 153.311L249.498 153.264C250.633 153.039 250.866 153.012 252.373 152.82C254.936 152.62 257.313 152.501 260.228 152.534H260.786C261.317 152.534 261.835 152.574 262.333 152.6L263.335 152.674L264.424 152.786C266.277 152.979 267.592 153.211 267.592 153.211C264.351 167.64 264.398 171.936 264.75 178.902Z" fill="#263238"/>
<path opacity="0.2" d="M247.453 162.102C247.555 164.623 246.991 167.126 245.819 169.36C245.155 164.572 244.83 161.325 244.737 159.121C246.045 159.154 247.353 159.785 247.453 162.102Z" fill="black"/>
<path d="M256.337 239.472C251.955 256.171 243.721 275.992 243.721 275.992L240.853 274.896L249.226 239.498L256.337 239.472Z" fill="#EEC1BB"/>
<path d="M245.222 274.352C245.308 273.973 240.633 273.143 240.633 273.143C240.633 273.143 237.101 275.328 234.199 275.301C231.297 275.275 232.42 277.293 235.527 278.05L243.123 279.909C245.275 280.44 244.352 278.249 245.222 274.352Z" fill="#263238"/>
<path d="M237.931 273.727C237.784 273.701 237.651 273.626 237.552 273.515C237.498 273.439 237.469 273.349 237.469 273.256C237.469 273.163 237.498 273.072 237.552 272.997C237.622 272.874 237.736 272.784 237.871 272.745C238.231 272.693 238.599 272.741 238.933 272.884C238.608 272.599 238.336 272.273 238.382 272.028C238.429 271.782 238.548 271.762 238.781 271.715C238.884 271.693 238.99 271.692 239.093 271.714C239.196 271.735 239.294 271.779 239.378 271.842C239.773 272.299 240.006 272.873 240.042 273.475C240.046 273.49 240.046 273.506 240.042 273.522C240.042 273.522 240.042 273.522 240.042 273.555C240.035 273.558 240.027 273.559 240.019 273.559C240.011 273.559 240.003 273.558 239.996 273.555C239.323 273.733 238.624 273.791 237.931 273.727ZM238.515 273.017C238.33 272.969 238.136 272.969 237.951 273.017C237.914 273.024 237.88 273.038 237.85 273.06C237.82 273.082 237.796 273.11 237.778 273.143C237.692 273.309 237.732 273.375 237.778 273.395C237.951 273.621 238.854 273.575 239.604 273.455C239.256 273.274 238.892 273.127 238.515 273.017ZM239.06 271.961C238.988 271.941 238.912 271.941 238.841 271.961C238.768 271.961 238.648 272.008 238.635 272.074C238.595 272.286 239.166 272.804 239.783 273.229C239.735 272.787 239.544 272.372 239.239 272.047C239.18 272.004 239.112 271.975 239.04 271.961H239.06Z" fill="#4BC853"/>
<path d="M264.843 176.498C264.843 176.498 271.29 190.097 269.013 202.925C266.735 215.754 259.849 232.234 257.99 236.225C256.131 240.215 249.205 263.88 249.205 263.88L243.229 261.928C243.229 261.928 248.588 238.449 250.268 230.269C251.065 226.404 257.871 198.881 257.871 198.881C257.871 198.881 246.191 190.216 247.008 176.624L264.843 176.498Z" fill="#4BC853"/>
<path opacity="0.2" d="M243.209 261.928L249.185 263.88C249.185 263.88 256.118 240.222 257.977 236.225C258.933 234.173 261.217 228.801 263.528 222.327C265.699 216.232 267.89 209.147 268.993 202.925C271.27 190.09 264.823 176.498 264.823 176.498L247.008 176.624C246.178 190.19 257.851 198.855 257.851 198.855L255.195 209.598C253.203 217.779 250.699 227.998 250.241 230.242C248.568 238.442 243.209 261.928 243.209 261.928Z" fill="white"/>
<path d="M270.447 246.165C273.461 254.733 276.034 263.449 278.156 272.28L275.241 273.256L263.063 246.165H270.447Z" fill="#EEC1BB"/>
<path d="M278.275 270.062C278.096 269.723 273.973 272.054 273.973 272.054C273.973 272.054 272.645 275.992 270.394 277.824C268.143 279.657 270.301 280.48 273.149 279.112L280.208 275.706C282.2 274.723 280.101 273.614 278.275 270.062Z" fill="#263238"/>
<path d="M272.24 274.232C272.111 274.305 271.962 274.333 271.815 274.312C271.702 274.312 271.549 274.192 271.496 273.907C271.481 273.838 271.481 273.767 271.496 273.698C271.511 273.629 271.541 273.565 271.583 273.508C271.824 273.238 272.137 273.042 272.486 272.944C272.047 272.944 271.636 272.851 271.516 272.632C271.479 272.548 271.469 272.455 271.488 272.365C271.507 272.276 271.554 272.195 271.622 272.134C271.687 272.05 271.77 271.982 271.864 271.934C271.958 271.886 272.061 271.859 272.167 271.855C272.831 271.815 273.694 272.625 273.734 272.665C273.737 272.68 273.737 272.696 273.734 272.711C273.737 272.725 273.737 272.738 273.734 272.751C273.737 272.764 273.737 272.778 273.734 272.791V272.838C273.319 273.384 272.813 273.855 272.24 274.232ZM272.24 273.316C272.064 273.389 271.907 273.503 271.782 273.648C271.759 273.678 271.743 273.712 271.734 273.749C271.725 273.785 271.723 273.823 271.729 273.86C271.768 274.046 271.842 274.066 271.868 274.073C272.147 274.139 272.818 273.522 273.316 272.95C272.946 273.038 272.585 273.163 272.24 273.322V273.316ZM271.981 272.154C271.912 272.184 271.853 272.232 271.808 272.293C271.762 272.346 271.695 272.452 271.729 272.506C271.828 272.692 272.598 272.731 273.349 272.665C273.026 272.358 272.615 272.161 272.174 272.101C272.115 272.11 272.059 272.13 272.008 272.16L271.981 272.154Z" fill="#4BC853"/>
<path opacity="0.2" d="M243.209 261.928L249.185 263.88C249.185 263.88 256.118 240.222 257.977 236.225C258.933 234.173 261.217 228.801 263.528 222.327L261.396 203.775C261.396 203.775 263.946 202.281 265.54 196.531C264.145 197.726 262.425 198.477 260.6 198.689C259.936 198.735 257.864 203.104 255.188 209.625C253.196 217.805 250.693 228.024 250.235 230.269C248.568 238.442 243.209 261.928 243.209 261.928Z" fill="black"/>
<path d="M245.68 206.504C246.524 212.009 248.054 217.388 250.235 222.513C252.605 228.018 255.221 232.068 257.127 236.245C260.507 243.688 269.457 263.608 269.457 263.608L276.337 261.218C276.337 261.218 266.768 234.332 263.123 228.396C263.123 228.396 260.845 209.107 260.62 198.675C260.62 198.675 263.063 196.517 263.887 191.544C264.756 186.298 247.253 178.264 247.253 178.264C244.767 187.465 244.231 197.084 245.68 206.504Z" fill="#4BC853"/>
<path opacity="0.2" d="M245.68 206.504C246.524 212.009 248.054 217.388 250.235 222.513C252.605 228.018 255.221 232.068 257.127 236.245C260.507 243.688 269.457 263.608 269.457 263.608L276.337 261.218C276.337 261.218 266.768 234.332 263.123 228.396C263.123 228.396 260.845 209.107 260.62 198.675C260.62 198.675 263.063 196.517 263.887 191.544C264.756 186.298 247.253 178.264 247.253 178.264C244.767 187.465 244.231 197.084 245.68 206.504Z" fill="white"/>
<path d="M259.086 179.678L249.763 179.818L249.65 177.016L258.98 177.115L259.086 179.678Z" fill="#263238"/>
<path d="M248.834 177.002L248.94 179.831L247.997 179.844L247.745 176.996L248.834 177.002Z" fill="#263238"/>
<path d="M259.803 177.122L264.75 177.175L264.969 179.585L259.903 179.665L259.803 177.122Z" fill="#263238"/>
<path d="M249.863 153.172C249.863 153.172 250.852 150.104 256.357 149.188C261.861 148.271 265.52 148.172 263.661 153.796C261.802 159.42 249.863 153.172 249.863 153.172Z" fill="#4BC853"/>
<path d="M245.162 154.46C242.553 155.668 239.518 163.377 239.518 163.377L245.162 166.372L247.453 162.102C247.453 162.102 248.004 159.154 247.453 157.189C247.282 156.599 246.99 156.052 246.595 155.582C246.201 155.113 245.713 154.73 245.162 154.46Z" fill="#4BC853"/>
<path d="M264.424 152.773C264.57 164.24 252.917 186.458 252.917 186.458C252.917 186.458 246.616 188.609 242.194 186.458C242.194 186.458 239.538 191.418 239.538 191.71C239.537 191.833 239.56 191.955 239.607 192.068C239.654 192.182 239.723 192.285 239.81 192.372C239.897 192.458 240.001 192.527 240.115 192.573C240.229 192.619 240.351 192.641 240.474 192.64C240.474 192.64 237.924 198.968 240.607 200.887C243.289 202.806 252.227 202.46 253.521 200.827C254.816 199.193 254.405 187.779 254.405 187.779C254.405 187.779 265.108 167.116 265.872 152.939L264.424 152.773Z" fill="#263238"/>
<path opacity="0.2" d="M254.385 187.779C254.385 187.779 254.797 199.187 253.502 200.827C252.207 202.467 243.27 202.819 240.594 200.887C237.918 198.954 240.454 192.633 240.454 192.633C240.331 192.636 240.208 192.614 240.093 192.568C239.979 192.522 239.874 192.454 239.786 192.368C239.698 192.281 239.629 192.177 239.582 192.063C239.534 191.949 239.511 191.827 239.511 191.703C239.511 191.411 242.167 186.458 242.167 186.458C246.596 188.609 252.891 186.458 252.891 186.458C252.891 186.458 264.544 164.24 264.405 152.773L265.826 152.946C265.095 167.116 254.385 187.779 254.385 187.779Z" fill="white"/>
<path opacity="0.2" d="M252.917 186.458C252.917 186.458 251.589 193.018 248.933 193.29C246.277 193.563 240.447 192.626 240.447 192.626C240.324 192.629 240.201 192.607 240.086 192.561C239.972 192.516 239.867 192.448 239.779 192.361C239.691 192.274 239.622 192.171 239.575 192.057C239.527 191.943 239.504 191.82 239.504 191.697C239.504 191.405 242.16 186.451 242.16 186.451C246.622 188.609 252.917 186.458 252.917 186.458Z" fill="white"/>
</svg>
