<svg width="360" height="240" viewBox="0 0 360 240" fill="none" xmlns="http://www.w3.org/2000/svg">
<rect width="360" height="240" fill="white"/>
<path d="M323.39 172.867H236.63C235.08 172.867 233.817 171.605 233.817 170.054V43.68C233.817 42.1296 235.08 40.8672 236.63 40.8672H323.39C324.941 40.8672 326.203 42.1296 326.203 43.68V170.05C326.203 171.6 324.941 172.862 323.39 172.862V172.867ZM236.635 40.9872C235.152 40.9872 233.942 42.1968 233.942 43.68V170.05C233.942 171.533 235.152 172.742 236.635 172.742H323.395C324.878 172.742 326.088 171.533 326.088 170.05V43.68C326.088 42.1968 324.878 40.9872 323.395 40.9872H236.635Z" fill="#E0E0E0"/>
<path d="M223.349 172.867H136.589C135.038 172.867 133.776 171.605 133.776 170.054V43.68C133.776 42.1296 135.038 40.8672 136.589 40.8672H223.349C224.899 40.8672 226.161 42.1296 226.161 43.68V170.05C226.161 171.6 224.899 172.862 223.349 172.862V172.867ZM136.589 40.9872C135.105 40.9872 133.896 42.1968 133.896 43.68V170.05C133.896 171.533 135.105 172.742 136.589 172.742H223.349C224.832 172.742 226.041 171.533 226.041 170.05V43.68C226.041 42.1968 224.832 40.9872 223.349 40.9872H136.589Z" fill="#E0E0E0"/>
<path d="M123.365 172.867H36.6097C35.0593 172.867 33.7969 171.605 33.7969 170.054V43.68C33.7969 42.1296 35.0593 40.8672 36.6097 40.8672H123.37C124.92 40.8672 126.182 42.1296 126.182 43.68V170.05C126.182 171.6 124.92 172.862 123.37 172.862L123.365 172.867ZM36.6097 40.9872C35.1265 40.9872 33.9169 42.1968 33.9169 43.68V170.05C33.9169 171.533 35.1265 172.742 36.6097 172.742H123.37C124.853 172.742 126.062 171.533 126.062 170.05V43.68C126.062 42.1968 124.853 40.9872 123.37 40.9872H36.6097Z" fill="#E0E0E0"/>
<path d="M360 187.896H0V187.954H360V187.896Z" fill="#E0E0E0"/>
<path d="M339.437 196.742H312.687V196.944H339.437V196.742Z" fill="#E0E0E0"/>
<path d="M243.586 198.931H236.563V199.133H243.586V198.931Z" fill="#E0E0E0"/>
<path d="M53.3377 190.598H18.4561V190.8H53.3377V190.598Z" fill="#E0E0E0"/>
<path d="M65.6446 190.598H60.5278V190.8H65.6446V190.598Z" fill="#E0E0E0"/>
<path d="M157.92 194.006H82.2671V194.208H157.92V194.006Z" fill="#E0E0E0"/>
<path d="M336.293 123.749V101.386H322.449V106.483H313.219V50.6256H295.473V72.6096H290.15V61.632H276.307V115.176H256.781V96.2592H244.541V55.2432H229.43V82.584H215.232V141.49H204.23V112.805H192.869V94.3488H180.801V80.1792L167.337 87.2784V125.194H153.139V117.374H134.169V187.79L354.955 187.896V123.749H336.293Z" fill="#F0F0F0"/>
<path d="M237.307 60.0816H232.886V65.1456H237.307V60.0816Z" fill="#FAFAFA"/>
<path d="M237.307 68.5776H232.886V73.6416H237.307V68.5776Z" fill="#FAFAFA"/>
<path d="M237.307 77.0736H232.886V82.1376H237.307V77.0736Z" fill="#FAFAFA"/>
<path d="M237.307 85.5696H232.886V90.6336H237.307V85.5696Z" fill="#FAFAFA"/>
<path d="M237.307 94.0656H232.886V99.1296H237.307V94.0656Z" fill="#FAFAFA"/>
<path d="M237.307 102.562H232.886V107.626H237.307V102.562Z" fill="#FAFAFA"/>
<path d="M237.307 111.058H232.886V116.122H237.307V111.058Z" fill="#FAFAFA"/>
<path d="M237.307 119.554H232.886V124.618H237.307V119.554Z" fill="#FAFAFA"/>
<path d="M303.715 53.2992H299.294V58.3632H303.715V53.2992Z" fill="#FAFAFA"/>
<path d="M303.715 61.7952H299.294V66.8592H303.715V61.7952Z" fill="#FAFAFA"/>
<path d="M303.715 70.2912H299.294V75.3552H303.715V70.2912Z" fill="#FAFAFA"/>
<path d="M303.715 78.7872H299.294V83.8512H303.715V78.7872Z" fill="#FAFAFA"/>
<path d="M303.715 87.288H299.294V92.352H303.715V87.288Z" fill="#FAFAFA"/>
<path d="M303.715 95.7792H299.294V100.843H303.715V95.7792Z" fill="#FAFAFA"/>
<path d="M303.715 104.28H299.294V109.344H303.715V104.28Z" fill="#FAFAFA"/>
<path d="M303.715 112.771H299.294V117.835H303.715V112.771Z" fill="#FAFAFA"/>
<path d="M217.781 187.829V106.354H200.193V187.819L217.781 187.829Z" fill="#E0E0E0"/>
<path d="M203.659 108.941H201.528V113.338H203.659V108.941Z" fill="#FAFAFA"/>
<path d="M207.921 108.941H205.79V113.338H207.921V108.941Z" fill="#FAFAFA"/>
<path d="M212.184 108.941H210.053V113.338H212.184V108.941Z" fill="#FAFAFA"/>
<path d="M216.451 108.941H214.32V113.338H216.451V108.941Z" fill="#FAFAFA"/>
<path d="M203.659 116.318H201.528V120.715H203.659V116.318Z" fill="#FAFAFA"/>
<path d="M207.921 116.318H205.79V120.715H207.921V116.318Z" fill="#FAFAFA"/>
<path d="M212.184 116.318H210.053V120.715H212.184V116.318Z" fill="#FAFAFA"/>
<path d="M216.451 116.318H214.32V120.715H216.451V116.318Z" fill="#FAFAFA"/>
<path d="M203.659 123.691H201.528V128.088H203.659V123.691Z" fill="#FAFAFA"/>
<path d="M207.921 123.691H205.79V128.088H207.921V123.691Z" fill="#FAFAFA"/>
<path d="M212.184 123.691H210.053V128.088H212.184V123.691Z" fill="#FAFAFA"/>
<path d="M216.451 123.691H214.32V128.088H216.451V123.691Z" fill="#FAFAFA"/>
<path d="M203.659 131.064H201.528V135.461H203.659V131.064Z" fill="#FAFAFA"/>
<path d="M207.921 131.064H205.79V135.461H207.921V131.064Z" fill="#FAFAFA"/>
<path d="M212.184 131.064H210.053V135.461H212.184V131.064Z" fill="#FAFAFA"/>
<path d="M216.451 131.064H214.32V135.461H216.451V131.064Z" fill="#FAFAFA"/>
<path d="M203.659 138.432H201.528V142.829H203.659V138.432Z" fill="#FAFAFA"/>
<path d="M207.921 138.432H205.79V142.829H207.921V138.432Z" fill="#FAFAFA"/>
<path d="M212.184 138.432H210.053V142.829H212.184V138.432Z" fill="#FAFAFA"/>
<path d="M216.451 138.432H214.32V142.829H216.451V138.432Z" fill="#FAFAFA"/>
<path d="M203.659 145.805H201.528V150.202H203.659V145.805Z" fill="#FAFAFA"/>
<path d="M207.921 145.805H205.79V150.202H207.921V145.805Z" fill="#FAFAFA"/>
<path d="M212.184 145.805H210.053V150.202H212.184V145.805Z" fill="#FAFAFA"/>
<path d="M216.451 145.805H214.32V150.202H216.451V145.805Z" fill="#FAFAFA"/>
<path d="M203.659 153.178H201.528V157.574H203.659V153.178Z" fill="#FAFAFA"/>
<path d="M207.921 153.178H205.79V157.574H207.921V153.178Z" fill="#FAFAFA"/>
<path d="M212.184 153.178H210.053V157.574H212.184V153.178Z" fill="#FAFAFA"/>
<path d="M216.451 153.178H214.32V157.574H216.451V153.178Z" fill="#FAFAFA"/>
<path d="M203.659 160.555H201.528V164.952H203.659V160.555Z" fill="#FAFAFA"/>
<path d="M207.921 160.555H205.79V164.952H207.921V160.555Z" fill="#FAFAFA"/>
<path d="M212.184 160.555H210.053V164.952H212.184V160.555Z" fill="#FAFAFA"/>
<path d="M216.451 160.555H214.32V164.952H216.451V160.555Z" fill="#FAFAFA"/>
<path d="M278.899 187.858V96.9504H242.434V187.882C242.434 187.882 278.621 187.891 278.899 187.858Z" fill="#E6E6E6"/>
<path d="M249.59 99.96H245.169V105.024H249.59V99.96Z" fill="#E0E0E0"/>
<path d="M258.437 99.96H254.016V105.024H258.437V99.96Z" fill="#E0E0E0"/>
<path d="M267.278 99.96H262.857V105.024H267.278V99.96Z" fill="#E0E0E0"/>
<path d="M276.125 99.96H271.704V105.024H276.125V99.96Z" fill="#E0E0E0"/>
<path d="M249.59 108.461H245.169V113.525H249.59V108.461Z" fill="#E0E0E0"/>
<path d="M258.437 108.461H254.016V113.525H258.437V108.461Z" fill="#E0E0E0"/>
<path d="M267.278 108.461H262.857V113.525H267.278V108.461Z" fill="#E0E0E0"/>
<path d="M276.125 108.461H271.704V113.525H276.125V108.461Z" fill="#E0E0E0"/>
<path d="M249.59 116.952H245.169V122.016H249.59V116.952Z" fill="#E0E0E0"/>
<path d="M258.437 116.952H254.016V122.016H258.437V116.952Z" fill="#E0E0E0"/>
<path d="M267.278 116.952H262.857V122.016H267.278V116.952Z" fill="#E0E0E0"/>
<path d="M276.125 116.952H271.704V122.016H276.125V116.952Z" fill="#E0E0E0"/>
<path d="M249.59 125.448H245.169V130.512H249.59V125.448Z" fill="#E0E0E0"/>
<path d="M258.437 125.448H254.016V130.512H258.437V125.448Z" fill="#E0E0E0"/>
<path d="M267.278 125.448H262.857V130.512H267.278V125.448Z" fill="#E0E0E0"/>
<path d="M276.125 125.448H271.704V130.512H276.125V125.448Z" fill="#E0E0E0"/>
<path d="M249.59 133.944H245.169V139.008H249.59V133.944Z" fill="#E0E0E0"/>
<path d="M258.437 133.944H254.016V139.008H258.437V133.944Z" fill="#E0E0E0"/>
<path d="M267.278 133.944H262.857V139.008H267.278V133.944Z" fill="#E0E0E0"/>
<path d="M276.125 133.944H271.704V139.008H276.125V133.944Z" fill="#E0E0E0"/>
<path d="M249.59 142.44H245.169V147.504H249.59V142.44Z" fill="#E0E0E0"/>
<path d="M258.437 142.44H254.016V147.504H258.437V142.44Z" fill="#E0E0E0"/>
<path d="M267.278 142.44H262.857V147.504H267.278V142.44Z" fill="#E0E0E0"/>
<path d="M276.125 142.44H271.704V147.504H276.125V142.44Z" fill="#E0E0E0"/>
<path d="M249.59 150.941H245.169V156.005H249.59V150.941Z" fill="#E0E0E0"/>
<path d="M258.437 150.941H254.016V156.005H258.437V150.941Z" fill="#E0E0E0"/>
<path d="M267.278 150.941H262.857V156.005H267.278V150.941Z" fill="#E0E0E0"/>
<path d="M276.125 150.941H271.704V156.005H276.125V150.941Z" fill="#E0E0E0"/>
<path d="M249.59 159.432H245.169V164.496H249.59V159.432Z" fill="#E0E0E0"/>
<path d="M258.437 159.432H254.016V164.496H258.437V159.432Z" fill="#E0E0E0"/>
<path d="M267.278 159.432H262.857V164.496H267.278V159.432Z" fill="#E0E0E0"/>
<path d="M276.125 159.432H271.704V164.496H276.125V159.432Z" fill="#E0E0E0"/>
<path d="M193.795 187.819V90.5952H178.708V187.896C183.484 187.776 193.795 187.819 193.795 187.819Z" fill="#E6E6E6"/>
<path d="M185.366 92.3952H180.945V97.4592H185.366V92.3952Z" fill="#FAFAFA"/>
<path d="M185.366 100.891H180.945V105.955H185.366V100.891Z" fill="#FAFAFA"/>
<path d="M185.366 109.392H180.945V114.456H185.366V109.392Z" fill="#FAFAFA"/>
<path d="M185.366 117.883H180.945V122.947H185.366V117.883Z" fill="#FAFAFA"/>
<path d="M185.366 126.379H180.945V131.443H185.366V126.379Z" fill="#FAFAFA"/>
<path d="M185.366 134.875H180.945V139.939H185.366V134.875Z" fill="#FAFAFA"/>
<path d="M185.366 143.371H180.945V148.435H185.366V143.371Z" fill="#FAFAFA"/>
<path d="M185.366 151.872H180.945V156.936H185.366V151.872Z" fill="#FAFAFA"/>
<path d="M191.28 92.3952H186.859V97.4592H191.28V92.3952Z" fill="#FAFAFA"/>
<path d="M191.28 100.891H186.859V105.955H191.28V100.891Z" fill="#FAFAFA"/>
<path d="M191.28 109.392H186.859V114.456H191.28V109.392Z" fill="#FAFAFA"/>
<path d="M191.28 117.883H186.859V122.947H191.28V117.883Z" fill="#FAFAFA"/>
<path d="M191.28 126.379H186.859V131.443H191.28V126.379Z" fill="#FAFAFA"/>
<path d="M191.28 134.875H186.859V139.939H191.28V134.875Z" fill="#FAFAFA"/>
<path d="M191.28 143.371H186.859V148.435H191.28V143.371Z" fill="#FAFAFA"/>
<path d="M191.28 151.872H186.859V156.936H191.28V151.872Z" fill="#FAFAFA"/>
<path d="M338.29 92.328H311.664V187.896H338.29V92.328Z" fill="#E6E6E6"/>
<path d="M323.41 96.2784H315.605V101.342H323.41V96.2784Z" fill="#FAFAFA"/>
<path d="M323.41 104.779H315.605V109.843H323.41V104.779Z" fill="#FAFAFA"/>
<path d="M323.41 113.27H315.605V118.334H323.41V113.27Z" fill="#FAFAFA"/>
<path d="M323.41 121.771H315.605V126.835H323.41V121.771Z" fill="#FAFAFA"/>
<path d="M323.41 130.267H315.605V135.331H323.41V130.267Z" fill="#FAFAFA"/>
<path d="M323.41 138.758H315.605V143.822H323.41V138.758Z" fill="#FAFAFA"/>
<path d="M323.41 147.259H315.605V152.323H323.41V147.259Z" fill="#FAFAFA"/>
<path d="M323.41 155.755H315.605V160.819H323.41V155.755Z" fill="#FAFAFA"/>
<path d="M333.85 96.2784H326.045V101.342H333.85V96.2784Z" fill="#FAFAFA"/>
<path d="M333.85 104.779H326.045V109.843H333.85V104.779Z" fill="#FAFAFA"/>
<path d="M333.85 113.27H326.045V118.334H333.85V113.27Z" fill="#FAFAFA"/>
<path d="M333.85 121.771H326.045V126.835H333.85V121.771Z" fill="#FAFAFA"/>
<path d="M333.85 130.267H326.045V135.331H333.85V130.267Z" fill="#FAFAFA"/>
<path d="M333.85 138.758H326.045V143.822H333.85V138.758Z" fill="#FAFAFA"/>
<path d="M333.85 147.259H326.045V152.323H333.85V147.259Z" fill="#FAFAFA"/>
<path d="M333.85 155.755H326.045V160.819H333.85V155.755Z" fill="#FAFAFA"/>
<path d="M294.245 187.867V116.952H282.633V187.858H294.245V187.867Z" fill="#E0E0E0"/>
<path d="M284.923 119.198H283.517V122.976H284.923V119.198Z" fill="#FAFAFA"/>
<path d="M287.735 119.198H286.329V122.976H287.735V119.198Z" fill="#FAFAFA"/>
<path d="M290.548 119.198H289.142V122.976H290.548V119.198Z" fill="#FAFAFA"/>
<path d="M293.366 119.198H291.959V122.976H293.366V119.198Z" fill="#FAFAFA"/>
<path d="M284.923 125.53H283.517V129.307H284.923V125.53Z" fill="#FAFAFA"/>
<path d="M287.735 125.53H286.329V129.307H287.735V125.53Z" fill="#FAFAFA"/>
<path d="M290.548 125.53H289.142V129.307H290.548V125.53Z" fill="#FAFAFA"/>
<path d="M293.366 125.53H291.959V129.307H293.366V125.53Z" fill="#FAFAFA"/>
<path d="M284.923 131.866H283.517V135.643H284.923V131.866Z" fill="#FAFAFA"/>
<path d="M287.735 131.866H286.329V135.643H287.735V131.866Z" fill="#FAFAFA"/>
<path d="M290.548 131.866H289.142V135.643H290.548V131.866Z" fill="#FAFAFA"/>
<path d="M293.366 131.866H291.959V135.643H293.366V131.866Z" fill="#FAFAFA"/>
<path d="M284.923 138.197H283.517V141.974H284.923V138.197Z" fill="#FAFAFA"/>
<path d="M287.735 138.197H286.329V141.974H287.735V138.197Z" fill="#FAFAFA"/>
<path d="M290.548 138.197H289.142V141.974H290.548V138.197Z" fill="#FAFAFA"/>
<path d="M293.366 138.197H291.959V141.974H293.366V138.197Z" fill="#FAFAFA"/>
<path d="M284.923 144.538H283.517V148.315H284.923V144.538Z" fill="#FAFAFA"/>
<path d="M287.735 144.538H286.329V148.315H287.735V144.538Z" fill="#FAFAFA"/>
<path d="M290.548 144.538H289.142V148.315H290.548V144.538Z" fill="#FAFAFA"/>
<path d="M293.366 144.538H291.959V148.315H293.366V144.538Z" fill="#FAFAFA"/>
<path d="M284.923 150.874H283.517V154.651H284.923V150.874Z" fill="#FAFAFA"/>
<path d="M287.735 150.874H286.329V154.651H287.735V150.874Z" fill="#FAFAFA"/>
<path d="M290.548 150.874H289.142V154.651H290.548V150.874Z" fill="#FAFAFA"/>
<path d="M293.366 150.874H291.959V154.651H293.366V150.874Z" fill="#FAFAFA"/>
<path d="M284.923 157.205H283.517V160.982H284.923V157.205Z" fill="#FAFAFA"/>
<path d="M287.735 157.205H286.329V160.982H287.735V157.205Z" fill="#FAFAFA"/>
<path d="M290.548 157.205H289.142V160.982H290.548V157.205Z" fill="#FAFAFA"/>
<path d="M293.366 157.205H291.959V160.982H293.366V157.205Z" fill="#FAFAFA"/>
<path d="M284.923 163.541H283.517V167.318H284.923V163.541Z" fill="#FAFAFA"/>
<path d="M287.735 163.541H286.329V167.318H287.735V163.541Z" fill="#FAFAFA"/>
<path d="M290.548 163.541H289.142V167.318H290.548V163.541Z" fill="#FAFAFA"/>
<path d="M293.366 163.541H291.959V167.318H293.366V163.541Z" fill="#FAFAFA"/>
<path d="M180.058 187.896V127.469H149.011V187.8L180.058 187.901V187.896Z" fill="#FAFAFA"/>
<path d="M155.126 129.346H151.363V132.514H155.126V129.346Z" fill="#E0E0E0"/>
<path d="M162.653 129.346H158.89V132.514H162.653V129.346Z" fill="#E0E0E0"/>
<path d="M170.174 129.346H166.411V132.514H170.174V129.346Z" fill="#E0E0E0"/>
<path d="M177.706 129.346H173.942V132.514H177.706V129.346Z" fill="#E0E0E0"/>
<path d="M155.126 134.659H151.363V137.827H155.126V134.659Z" fill="#E0E0E0"/>
<path d="M162.653 134.659H158.89V137.827H162.653V134.659Z" fill="#E0E0E0"/>
<path d="M170.174 134.659H166.411V137.827H170.174V134.659Z" fill="#E0E0E0"/>
<path d="M177.706 134.659H173.942V137.827H177.706V134.659Z" fill="#E0E0E0"/>
<path d="M155.126 139.973H151.363V143.141H155.126V139.973Z" fill="#E0E0E0"/>
<path d="M162.653 139.973H158.89V143.141H162.653V139.973Z" fill="#E0E0E0"/>
<path d="M170.174 139.973H166.411V143.141H170.174V139.973Z" fill="#E0E0E0"/>
<path d="M177.706 139.973H173.942V143.141H177.706V139.973Z" fill="#E0E0E0"/>
<path d="M155.126 145.286H151.363V148.454H155.126V145.286Z" fill="#E0E0E0"/>
<path d="M162.653 145.286H158.89V148.454H162.653V145.286Z" fill="#E0E0E0"/>
<path d="M170.174 145.286H166.411V148.454H170.174V145.286Z" fill="#E0E0E0"/>
<path d="M177.706 145.286H173.942V148.454H177.706V145.286Z" fill="#E0E0E0"/>
<path d="M155.126 150.59H151.363V153.758H155.126V150.59Z" fill="#E0E0E0"/>
<path d="M162.653 150.59H158.89V153.758H162.653V150.59Z" fill="#E0E0E0"/>
<path d="M170.174 150.59H166.411V153.758H170.174V150.59Z" fill="#E0E0E0"/>
<path d="M177.706 150.59H173.942V153.758H177.706V150.59Z" fill="#E0E0E0"/>
<path d="M155.126 155.904H151.363V159.072H155.126V155.904Z" fill="#E0E0E0"/>
<path d="M162.653 155.904H158.89V159.072H162.653V155.904Z" fill="#E0E0E0"/>
<path d="M170.174 155.904H166.411V159.072H170.174V155.904Z" fill="#E0E0E0"/>
<path d="M177.706 155.904H173.942V159.072H177.706V155.904Z" fill="#E0E0E0"/>
<path d="M155.126 161.218H151.363V164.386H155.126V161.218Z" fill="#E0E0E0"/>
<path d="M162.653 161.218H158.89V164.386H162.653V161.218Z" fill="#E0E0E0"/>
<path d="M170.174 161.218H166.411V164.386H170.174V161.218Z" fill="#E0E0E0"/>
<path d="M177.706 161.218H173.942V164.386H177.706V161.218Z" fill="#E0E0E0"/>
<path d="M168.029 179.05C167.107 178.181 165.144 181.541 165.144 181.541C165.144 181.541 167.256 174.216 165.139 174.192C163.022 174.168 162.917 180.442 162.917 180.442C162.917 180.442 162.235 167.966 159.485 168.955C156.734 169.944 160.752 181.075 160.752 181.075C160.752 181.075 157.19 173.16 155.827 174.715C154.464 176.27 158.962 182.89 158.962 182.89C158.962 182.89 155.674 180.768 155.89 182.28C156.101 183.792 163.229 187.752 163.229 187.752C165.509 185.05 168.96 179.914 168.038 179.045L168.029 179.05Z" fill="#E6E6E6"/>
<path d="M163.234 187.949C163.176 187.949 163.128 187.91 163.118 187.853C163.109 187.8 161.995 182.477 161.357 178.886C161.347 178.819 161.39 178.757 161.453 178.747C161.515 178.733 161.582 178.781 161.592 178.843C162.226 182.429 163.339 187.747 163.354 187.8C163.368 187.867 163.325 187.93 163.262 187.944C163.253 187.944 163.248 187.944 163.238 187.944L163.234 187.949Z" fill="#E0E0E0"/>
<path d="M162.499 184.426C162.466 184.426 162.427 184.411 162.408 184.382L160.229 181.68C160.186 181.627 160.195 181.55 160.248 181.512C160.301 181.469 160.373 181.478 160.416 181.531L162.595 184.234C162.638 184.286 162.629 184.363 162.576 184.402C162.552 184.421 162.528 184.43 162.499 184.43V184.426Z" fill="#E0E0E0"/>
<path d="M345.226 180.523C344.554 179.448 341.803 182.208 341.803 182.208C341.803 182.208 345.701 175.656 343.656 175.094C341.616 174.533 339.926 180.581 339.926 180.581C339.926 180.581 342.422 168.341 339.509 168.6C336.595 168.859 337.67 180.643 337.67 180.643C337.67 180.643 336.226 172.085 334.512 173.246C332.798 174.408 335.477 181.949 335.477 181.949C335.477 181.949 332.837 179.064 332.659 180.581C332.482 182.098 338.376 187.733 338.376 187.733C341.266 185.698 345.902 181.598 345.23 180.523H345.226Z" fill="#E0E0E0"/>
<path d="M338.366 187.925H338.361C338.294 187.925 338.246 187.867 338.246 187.8C338.246 187.747 338.515 182.314 338.808 178.68C338.812 178.613 338.87 178.56 338.937 178.57C339.004 178.574 339.052 178.632 339.048 178.699C338.755 182.328 338.486 187.757 338.486 187.81C338.486 187.872 338.428 187.925 338.366 187.925Z" fill="#E0E0E0"/>
<path d="M338.544 184.33C338.496 184.33 338.453 184.306 338.433 184.258L337.013 181.094C336.984 181.032 337.013 180.965 337.075 180.936C337.137 180.907 337.205 180.936 337.233 180.998L338.654 184.162C338.683 184.224 338.654 184.291 338.597 184.32C338.582 184.33 338.563 184.33 338.549 184.33H338.544Z" fill="#E0E0E0"/>
<path d="M231.945 38.2224C230.885 37.4208 229.344 37.3296 228.197 38.0016C226.675 34.9296 222.441 33.576 219.422 35.1936C218.635 31.8816 215.371 29.3376 211.973 29.3808C208.569 29.424 205.373 32.0448 204.662 35.3712C204.552 35.8992 204.475 36.48 204.096 36.864C203.481 37.4928 202.454 37.2816 201.581 37.2144C198.825 36.9984 196.051 38.9328 195.302 41.592L233.241 41.4528C233.573 40.1664 233.001 39.0192 231.941 38.2176L231.945 38.2224Z" fill="#E0E0E0"/>
<path d="M79.656 43.44C78.6576 42.6864 77.2032 42.6 76.128 43.2336C74.6976 40.344 70.7088 39.0672 67.8672 40.5888C67.1232 37.4736 64.056 35.0784 60.8544 35.1168C57.6528 35.1552 54.6384 37.6224 53.976 40.7568C53.8704 41.256 53.7984 41.7984 53.4432 42.1632C52.8624 42.7536 51.8976 42.5568 51.0768 42.4896C48.4848 42.288 45.8736 44.1072 45.168 46.6128L80.8848 46.4832C81.1968 45.2736 80.6592 44.1936 79.6608 43.44H79.656Z" fill="#E0E0E0"/>
<path d="M306.12 35.808C305.304 35.1888 304.113 35.1216 303.23 35.64C302.059 33.2688 298.79 32.2272 296.462 33.4752C295.853 30.9216 293.337 28.9584 290.717 28.992C288.091 29.0256 285.624 31.0464 285.077 33.6144C284.99 34.0224 284.933 34.4688 284.64 34.7664C284.165 35.2512 283.373 35.088 282.701 35.0352C280.574 34.8672 278.438 36.36 277.857 38.4144L307.123 38.3088C307.377 37.32 306.936 36.432 306.12 35.8128V35.808Z" fill="#F5F5F5"/>
<path d="M187.517 60.7536C186.926 60.3072 186.067 60.2592 185.429 60.6336C184.584 58.9248 182.227 58.1712 180.542 59.0688C180.105 57.2256 178.286 55.8096 176.395 55.8336C174.504 55.8576 172.723 57.3168 172.325 59.1696C172.262 59.4624 172.219 59.7888 172.008 60C171.667 60.3504 171.096 60.2304 170.606 60.192C169.07 60.072 167.529 61.1472 167.112 62.6304L188.232 62.5536C188.419 61.8384 188.097 61.2 187.507 60.7536H187.517Z" fill="#F5F5F5"/>
<path d="M78.5474 62.7216C77.957 62.2752 77.0978 62.2272 76.4594 62.6016C75.6146 60.8928 73.2578 60.1392 71.573 61.0368C71.1362 59.1936 69.317 57.7776 67.4258 57.8016C65.5298 57.8256 63.749 59.2848 63.3554 61.1376C63.293 61.4304 63.2498 61.7568 63.0386 61.968C62.6978 62.3184 62.1266 62.1984 61.637 62.16C60.101 62.04 58.5602 63.1152 58.1426 64.5984L79.2626 64.5216C79.4498 63.8064 79.1282 63.168 78.5378 62.7216H78.5474Z" fill="#E0E0E0"/>
<path d="M144.096 90.8112C143.049 90.0192 141.518 89.928 140.385 90.5952C138.883 87.5568 134.688 86.2128 131.697 87.816C130.915 84.5376 127.689 82.0224 124.32 82.0608C120.95 82.0992 117.787 84.696 117.086 87.9936C116.976 88.5168 116.899 89.0928 116.525 89.472C115.915 90.0912 114.902 89.8848 114.033 89.8176C111.307 89.6064 108.561 91.5216 107.817 94.152L145.377 94.0176C145.709 92.7456 145.142 91.608 144.091 90.816L144.096 90.8112Z" fill="#F0F0F0"/>
<path d="M337.234 225.619C337.234 227.246 266.443 228.562 179.122 228.562C91.8002 228.562 21.0098 227.242 21.0098 225.619C21.0098 223.997 91.8002 222.677 179.122 222.677C266.443 222.677 337.234 223.997 337.234 225.619Z" fill="#F5F5F5"/>
<path d="M146.803 46.6176C146.803 48.1632 144.566 49.392 144.182 50.8176C143.798 52.2432 145.099 54.4752 144.355 55.7616C143.611 57.048 141.048 57.024 139.982 58.08C138.922 59.136 138.97 61.6992 137.664 62.4528C136.358 63.2064 134.194 61.8912 132.72 62.28C131.246 62.6736 130.061 64.9008 128.52 64.9008C126.979 64.9008 125.746 62.664 124.32 62.28C122.894 61.896 120.667 63.2016 119.376 62.4528C118.085 61.704 118.118 59.1456 117.058 58.08C115.997 57.0192 113.443 57.072 112.685 55.7616C111.926 54.4512 113.246 52.2768 112.858 50.808C112.464 49.3392 110.237 48.1536 110.237 46.608C110.237 45.0624 112.474 43.8384 112.858 42.4128C113.242 40.9872 111.941 38.7552 112.685 37.4688C113.429 36.1824 115.992 36.2064 117.058 35.1456C118.118 34.0848 118.07 31.5312 119.376 30.7728C120.682 30.0144 122.846 31.3392 124.32 30.9456C125.794 30.5472 126.979 28.3296 128.52 28.3296C130.061 28.3296 131.294 30.5664 132.72 30.9456C134.146 31.3248 136.373 30.0288 137.664 30.7728C138.955 31.5168 138.922 34.08 139.982 35.1456C141.043 36.2064 143.597 36.1584 144.355 37.4688C145.114 38.7792 143.794 40.9392 144.182 42.4128C144.576 43.8864 146.803 45.0768 146.803 46.6176Z" fill="#4BC853"/>
<path d="M146.803 46.6176C146.803 48.1632 144.566 49.392 144.182 50.8176C143.798 52.2432 145.099 54.4752 144.355 55.7616C143.611 57.048 141.048 57.024 139.982 58.08C138.922 59.136 138.97 61.6992 137.664 62.4528C136.358 63.2064 134.194 61.8912 132.72 62.28C131.246 62.6736 130.061 64.9008 128.52 64.9008C126.979 64.9008 125.746 62.664 124.32 62.28C122.894 61.896 120.667 63.2016 119.376 62.4528C118.085 61.704 118.118 59.1456 117.058 58.08C115.997 57.0192 113.443 57.072 112.685 55.7616C111.926 54.4512 113.246 52.2768 112.858 50.808C112.464 49.3392 110.237 48.1536 110.237 46.608C110.237 45.0624 112.474 43.8384 112.858 42.4128C113.242 40.9872 111.941 38.7552 112.685 37.4688C113.429 36.1824 115.992 36.2064 117.058 35.1456C118.118 34.0848 118.07 31.5312 119.376 30.7728C120.682 30.0144 122.846 31.3392 124.32 30.9456C125.794 30.5472 126.979 28.3296 128.52 28.3296C130.061 28.3296 131.294 30.5664 132.72 30.9456C134.146 31.3248 136.373 30.0288 137.664 30.7728C138.955 31.5168 138.922 34.08 139.982 35.1456C141.043 36.2064 143.597 36.1584 144.355 37.4688C145.114 38.7792 143.794 40.9392 144.182 42.4128C144.576 43.8864 146.803 45.0768 146.803 46.6176Z" fill="white"/>
<path d="M141.094 50.1384C143.041 43.19 138.986 35.9792 132.038 34.0326C125.089 32.086 117.878 36.1408 115.932 43.0893C113.985 50.0377 118.04 57.2485 124.988 59.1951C131.937 61.1416 139.148 57.0868 141.094 50.1384Z" fill="#B8FFBD"/>
<path d="M96.3024 205.267L330.821 210.485V172.411H94.0464L96.3024 205.267Z" fill="#263238"/>
<path d="M339.84 182.179V201.49C339.84 205.627 337.003 209.28 332.837 210.499L331.181 210.979C330.158 211.282 329.093 211.421 328.027 211.397L317.074 211.152C318.374 206.832 318.49 202.267 317.405 197.89C313.901 183.73 298.963 174.946 284.05 178.272C269.131 181.598 259.882 195.778 263.386 209.938L151.939 207.422C152.122 206.189 152.208 204.941 152.203 203.693C152.136 189.144 139.661 177.403 124.334 177.466C109.013 177.528 96.6432 189.374 96.7104 203.918C96.7104 204.432 96.7536 204.936 96.7536 205.445C96.6096 205.387 96.456 205.334 96.3072 205.262L92.496 203.65C88.7376 202.037 86.3184 198.485 86.3184 194.568V155.237C86.3184 151.536 88.4784 148.142 91.9248 146.419L120.571 132.12C120.898 131.952 121.152 131.678 121.282 131.347C121.57 130.603 121.166 129.778 120.384 129.504L116.88 128.314C116.587 128.218 116.376 127.973 116.333 127.68C116.275 127.253 116.592 126.864 117.038 126.811C130.651 125.011 183.586 118.44 211.416 121.666C243.514 125.395 274.277 151.838 274.277 151.838C297.898 150.998 319.949 158.803 329.443 162.72C332.506 163.992 334.867 166.43 335.933 169.435L339.182 178.57C339.61 179.726 339.83 180.941 339.845 182.165L339.84 182.179Z" fill="#263238"/>
<path opacity="0.4" d="M339.84 182.179V201.49C339.84 205.627 337.003 209.28 332.837 210.499L331.181 210.979C330.158 211.282 329.093 211.421 328.027 211.397L317.074 211.152C318.374 206.832 318.49 202.267 317.405 197.89C313.901 183.73 298.963 174.946 284.05 178.272C269.131 181.598 259.882 195.778 263.386 209.938L151.939 207.422C152.122 206.189 152.208 204.941 152.203 203.693C152.136 189.144 139.661 177.403 124.334 177.466C109.013 177.528 96.6432 189.374 96.7104 203.918C96.7104 204.432 96.7536 204.936 96.7536 205.445C96.6096 205.387 96.456 205.334 96.3072 205.262L92.496 203.65C88.7376 202.037 86.3184 198.485 86.3184 194.568V155.237C86.3184 151.536 88.4784 148.142 91.9248 146.419L120.571 132.12C120.898 131.952 121.152 131.678 121.282 131.347C121.57 130.603 121.166 129.778 120.384 129.504L116.88 128.314C116.587 128.218 116.376 127.973 116.333 127.68C116.275 127.253 116.592 126.864 117.038 126.811C130.651 125.011 183.586 118.44 211.416 121.666C243.514 125.395 274.277 151.838 274.277 151.838C297.898 150.998 319.949 158.803 329.443 162.72C332.506 163.992 334.867 166.43 335.933 169.435L339.182 178.57C339.61 179.726 339.83 180.941 339.845 182.165L339.84 182.179Z" fill="white"/>
<path d="M151.906 207.422C152.069 206.261 152.146 205.094 152.146 203.923C152.146 203.328 152.122 202.738 152.088 202.147L172.243 194.323C173.424 193.867 174.696 193.67 175.968 193.747L246.067 198.115C247.215 198.182 248.333 198.475 249.355 198.974L262.675 205.478C262.771 206.981 262.997 208.474 263.352 209.942L151.911 207.427L151.906 207.422Z" fill="#263238"/>
<path d="M86.3042 194.573V193.57L97.7042 196.882C97.0418 199.176 96.701 201.542 96.7058 203.923C96.7058 204.437 96.749 204.941 96.749 205.45C96.605 205.392 96.4514 205.339 96.3026 205.267L92.4818 203.654C88.7234 202.042 86.3042 198.49 86.3042 194.573Z" fill="#263238"/>
<path d="M336.605 208.421C335.516 209.376 334.215 210.086 332.799 210.499L331.143 210.979C330.12 211.282 329.055 211.421 327.989 211.397L317.036 211.152C317.434 209.837 317.717 208.498 317.89 207.139L336.605 208.421Z" fill="#263238"/>
<path d="M124.378 175.109C125.635 175.109 126.898 175.181 128.146 175.33C144.778 177.302 156.576 191.698 154.498 207.485L151.867 207.422C152.05 206.189 152.136 204.941 152.131 203.693C152.064 189.144 139.589 177.403 124.262 177.466C108.941 177.528 96.5712 189.374 96.6384 203.918C96.6384 204.432 96.6816 204.936 96.6816 205.445C96.5376 205.387 96.384 205.334 96.2352 205.262L94.0464 204.322V203.918C94.0656 188.011 107.65 175.118 124.406 175.104H124.378V175.109Z" fill="#263238"/>
<path d="M290.357 175.109C292.949 175.109 295.532 175.421 298.037 176.045C314.256 180.067 323.967 195.811 319.728 211.21L317.036 211.152C318.336 206.832 318.452 202.267 317.367 197.89C313.863 183.73 298.925 174.946 284.012 178.272C269.093 181.598 259.844 195.778 263.348 209.938L260.66 209.875C260.223 207.912 260.002 205.915 260.002 203.909C260.002 187.997 273.596 175.104 290.357 175.109Z" fill="#263238"/>
<path d="M263.943 152.952C264.269 153.211 264.5 153.586 264.596 154.013C264.826 155.016 264.26 156.029 263.333 156.274L251.751 159.355C250.724 159.629 249.658 159.706 248.607 159.581L162.711 149.477C160.623 149.227 158.674 148.2 157.196 146.573L145.925 134.112C145.551 133.699 145.311 133.166 145.248 132.59C145.095 131.174 146.031 129.893 147.341 129.734C167.909 127.147 193.916 124.79 210.341 126.696C231.864 129.187 253.532 144.547 263.948 152.952H263.943Z" fill="#4BC853"/>
<path opacity="0.8" d="M263.554 152.952C263.88 153.211 264.11 153.586 264.206 154.013C264.437 155.016 263.87 156.029 262.944 156.274L251.362 159.355C250.334 159.629 249.269 159.706 248.218 159.581L164.242 154.118C162.154 153.869 158.918 150.221 156.634 147.259L145.536 134.112C145.162 133.699 144.922 133.166 144.859 132.59C144.706 131.174 145.642 129.893 146.952 129.734C167.52 127.147 193.526 124.79 209.952 126.696C231.475 129.187 253.142 144.547 263.558 152.952H263.554Z" fill="white"/>
<g opacity="0.3">
<path d="M207.442 160.723C207.994 160.536 208.277 159.96 208.08 159.437C207.835 158.789 207.202 158.347 206.482 158.323L196.258 157.915C196.118 157.91 195.979 157.93 195.85 157.973C195.293 158.16 195.005 158.741 195.206 159.269C195.456 159.917 196.09 160.354 196.814 160.382L207.038 160.786C207.178 160.79 207.317 160.771 207.446 160.728L207.442 160.723Z" fill="black"/>
</g>
<path d="M131.419 132.922C132.322 133.685 132.403 135 131.602 135.859L129.178 138.36C128.899 138.638 128.544 138.845 128.155 138.95L98.4578 146.77C97.9394 146.904 97.4066 146.971 96.8738 146.971H90.9746C91.2818 146.779 91.5938 146.597 91.925 146.429L120.571 132.115C121.296 131.774 121.589 130.944 121.234 130.258L130.536 132.47C130.863 132.557 131.165 132.71 131.419 132.926V132.922Z" fill="#4BC853"/>
<path d="M316.339 166.411L326.472 165.365L332.295 167.626C333.519 168.101 334.431 169.099 334.757 170.314C334.949 171.019 334.839 171.763 334.459 172.392L334.359 172.56C333.706 173.626 332.443 174.211 331.162 174.043L325.32 173.28C324.749 173.203 324.211 172.992 323.751 172.661L317.011 167.808L316.344 166.406L316.339 166.411Z" fill="white"/>
<path d="M274.248 151.834L272.635 152.27C271.383 152.611 270.034 152.333 269.035 151.536C259.647 143.995 243.317 132.427 225.701 127.032C225.624 127.008 225.557 126.955 225.519 126.888C225.427 126.739 225.485 126.547 225.643 126.466L227.832 125.4C253.248 133.766 274.248 151.838 274.248 151.838V151.834Z" fill="#4BC853"/>
<path opacity="0.8" d="M274.248 151.834L272.635 152.27C271.383 152.611 270.034 152.333 269.035 151.536C259.647 143.995 243.317 132.427 225.701 127.032C225.624 127.008 225.557 126.955 225.519 126.888C225.427 126.739 225.485 126.547 225.643 126.466L227.832 125.4C253.248 133.766 274.248 151.838 274.248 151.838V151.834Z" fill="white"/>
<path opacity="0.2" d="M177.95 162.014L263.342 167.813L261.734 177.811C261.24 180.874 260.045 183.797 258.23 186.37L251.093 196.498L178.21 187.142L143.75 162.014H177.946H177.95Z" fill="white"/>
<path d="M124.407 225.869C137.174 225.869 147.524 216.043 147.524 203.923C147.524 191.803 137.174 181.978 124.407 181.978C111.64 181.978 101.29 191.803 101.29 203.923C101.29 216.043 111.64 225.869 124.407 225.869Z" fill="#263238"/>
<path opacity="0.4" d="M124.407 217.378C132.235 217.378 138.581 211.354 138.581 203.923C138.581 196.492 132.235 190.469 124.407 190.469C116.579 190.469 110.232 196.492 110.232 203.923C110.232 211.354 116.579 217.378 124.407 217.378Z" fill="white"/>
<g opacity="0.3">
<path d="M123.269 192.898V199.795C123.269 200.39 123.778 200.87 124.402 200.87H124.411C125.035 200.87 125.544 200.39 125.544 199.795V192.898C125.544 192.302 125.035 191.822 124.411 191.822H124.402C123.778 191.822 123.269 192.302 123.269 192.898Z" fill="white"/>
</g>
<g opacity="0.3">
<path d="M123.269 208.056V214.954C123.269 215.549 123.778 216.029 124.402 216.029H124.411C125.035 216.029 125.544 215.549 125.544 214.954V208.056C125.544 207.461 125.035 206.981 124.411 206.981H124.402C123.778 206.981 123.269 207.461 123.269 208.056Z" fill="white"/>
</g>
<g opacity="0.3">
<path d="M120.072 202.795C120.614 203.088 121.306 202.91 121.618 202.392C121.93 201.874 121.742 201.216 121.2 200.923L114.912 197.458C114.37 197.16 113.674 197.338 113.357 197.851C113.05 198.365 113.232 199.022 113.774 199.32L120.062 202.786H120.072V202.795Z" fill="white"/>
</g>
<g opacity="0.3">
<path d="M133.901 210.346C134.444 210.643 135.135 210.466 135.447 209.947C135.759 209.429 135.572 208.771 135.029 208.478L128.741 205.013C128.199 204.715 127.508 204.888 127.196 205.402C126.879 205.915 127.061 206.578 127.604 206.88L133.896 210.346H133.901Z" fill="white"/>
</g>
<g opacity="0.3">
<path d="M114.917 210.37L121.205 206.904C121.747 206.606 121.934 205.944 121.622 205.426C121.306 204.912 120.61 204.739 120.067 205.037L113.779 208.502C113.242 208.8 113.054 209.458 113.362 209.971C113.678 210.49 114.374 210.662 114.917 210.365V210.37Z" fill="white"/>
</g>
<g opacity="0.3">
<path d="M127.2 202.397C127.512 202.91 128.203 203.088 128.746 202.79L135.034 199.325C135.576 199.027 135.758 198.37 135.446 197.856C135.134 197.338 134.443 197.165 133.901 197.462L127.608 200.928C127.066 201.226 126.883 201.883 127.2 202.397Z" fill="white"/>
</g>
<path d="M126.307 203.918C126.307 202.925 125.458 202.118 124.406 202.118H124.397C123.346 202.118 122.491 202.93 122.491 203.928C122.491 204.926 123.346 205.738 124.397 205.738C125.448 205.738 126.302 204.926 126.302 203.928L126.307 203.918Z" fill="#263238"/>
<path d="M290.357 225.869C303.124 225.869 313.474 216.043 313.474 203.923C313.474 191.803 303.124 181.978 290.357 181.978C277.59 181.978 267.24 191.803 267.24 203.923C267.24 216.043 277.59 225.869 290.357 225.869Z" fill="#263238"/>
<path opacity="0.4" d="M290.357 217.378C298.185 217.378 304.531 211.354 304.531 203.923C304.531 196.492 298.185 190.469 290.357 190.469C282.529 190.469 276.183 196.492 276.183 203.923C276.183 211.354 282.529 217.378 290.357 217.378Z" fill="white"/>
<g opacity="0.3">
<path d="M289.224 192.898V199.795C289.224 200.39 289.733 200.87 290.357 200.87H290.367C290.991 200.87 291.499 200.39 291.499 199.795V192.898C291.499 192.302 290.991 191.822 290.367 191.822H290.357C289.733 191.822 289.224 192.302 289.224 192.898Z" fill="white"/>
</g>
<g opacity="0.3">
<path d="M289.224 208.056V214.954C289.224 215.549 289.733 216.029 290.357 216.029H290.367C290.991 216.029 291.499 215.549 291.499 214.954V208.056C291.499 207.461 290.991 206.981 290.367 206.981H290.357C289.733 206.981 289.224 207.461 289.224 208.056Z" fill="white"/>
</g>
<g opacity="0.3">
<path d="M286.032 202.795C286.575 203.083 287.261 202.906 287.563 202.392C287.875 201.878 287.693 201.221 287.155 200.923L280.863 197.458C280.32 197.16 279.629 197.338 279.317 197.851C279.005 198.37 279.192 199.027 279.735 199.32L286.023 202.786L286.037 202.795H286.032Z" fill="white"/>
</g>
<g opacity="0.3">
<path d="M301.402 209.947C301.714 209.429 301.526 208.771 300.984 208.478L294.696 205.013C294.154 204.715 293.458 204.888 293.141 205.402C292.829 205.92 293.011 206.578 293.558 206.88L299.846 210.346C300.389 210.643 301.085 210.466 301.402 209.952V209.947Z" fill="white"/>
</g>
<g opacity="0.3">
<path d="M279.317 209.976C279.629 210.49 280.32 210.667 280.863 210.37L287.156 206.904C287.698 206.602 287.88 205.944 287.564 205.426C287.247 204.912 286.556 204.739 286.018 205.037L279.73 208.502C279.188 208.8 279.005 209.458 279.317 209.971V209.976Z" fill="white"/>
</g>
<g opacity="0.3">
<path d="M293.151 202.402C293.467 202.915 294.159 203.083 294.701 202.786L300.989 199.32C301.531 199.022 301.714 198.365 301.402 197.851C301.085 197.333 300.389 197.16 299.847 197.458L293.559 200.923C293.016 201.221 292.834 201.878 293.146 202.392V202.402H293.151Z" fill="white"/>
</g>
<path d="M290.357 202.114C289.306 202.114 288.451 202.925 288.451 203.923C288.451 204.922 289.306 205.733 290.357 205.733C291.408 205.733 292.262 204.922 292.262 203.923C292.262 202.925 291.408 202.114 290.357 202.114Z" fill="#263238"/>
<path opacity="0.3" d="M88.7329 162.523C87.9649 162.298 87.5329 161.52 87.7729 160.786C88.0417 156.168 89.0737 152.05 92.0593 149.222C92.2609 148.598 92.8897 148.195 93.5713 148.243L111.192 149.822C111.499 149.856 111.787 149.976 112.018 150.173C112.618 150.686 112.661 151.565 112.123 152.131L107.078 157.296C106.906 157.474 106.68 157.608 106.435 157.675L89.5681 162.528C89.2945 162.6 89.0065 162.595 88.7377 162.518L88.7329 162.523Z" fill="black"/>
<path d="M264.591 154.003C264.821 155.006 264.255 156.019 263.328 156.264L251.746 159.346C250.719 159.619 249.859 159.811 248.525 159.869L244.877 159.638L248.319 141.998C256.263 146.952 256.81 147.178 263.943 152.942C264.269 153.202 264.499 153.576 264.595 154.003H264.591Z" fill="#263238"/>
<path d="M189.125 126.125L196.402 156.25L186.883 155.602L182.535 126.408C184.762 126.288 186.96 126.192 189.125 126.125Z" fill="#263238"/>
<path d="M158.919 149.966L145.546 134.112C145.162 133.694 144.917 133.152 144.855 132.571C144.706 131.15 145.647 129.874 146.952 129.72C149.693 129.365 152.607 129.029 155.52 128.693" fill="#263238"/>
<path d="M254.054 157.066C256.368 157.09 258.269 155.333 258.293 153.134C258.317 151.267 256.968 149.635 255.048 149.208L249.461 147.965L248.04 156.85L253.939 157.066C253.978 157.066 254.011 157.066 254.05 157.066H254.054Z" fill="#263238"/>
<path opacity="0.4" d="M254.054 157.066C256.368 157.09 258.269 155.333 258.293 153.134C258.317 151.267 256.968 149.635 255.048 149.208L249.461 147.965L248.04 156.85L253.939 157.066C253.978 157.066 254.011 157.066 254.05 157.066H254.054Z" fill="white"/>
<path opacity="0.3" d="M249.682 156.912L248.05 156.85L249.471 147.965L251.064 148.325L249.682 156.912Z" fill="black"/>
<path opacity="0.6" d="M194.352 195.014C194.299 195.014 194.247 194.976 194.237 194.918C194.175 194.645 188.069 167.448 187.291 163.742C186.989 162.307 186.879 159.566 186.965 155.602C186.965 155.534 187.032 155.482 187.09 155.486C187.157 155.486 187.21 155.544 187.205 155.611C187.119 159.557 187.224 162.278 187.527 163.694C188.309 167.4 194.41 194.597 194.472 194.87C194.487 194.933 194.448 195 194.381 195.014C194.371 195.014 194.362 195.014 194.357 195.014H194.352Z" fill="black"/>
<path opacity="0.6" d="M249.346 199.094C249.322 199.094 249.298 199.09 249.274 199.07C249.221 199.032 249.206 198.955 249.245 198.902C249.322 198.792 257.194 187.738 259.891 183.115C262.646 178.397 264.499 154.891 264.518 154.656C264.518 154.589 264.566 154.531 264.648 154.546C264.715 154.55 264.763 154.608 264.758 154.675C264.682 155.645 262.882 178.474 260.098 183.235C257.395 187.867 249.518 198.931 249.437 199.042C249.413 199.075 249.379 199.09 249.341 199.09L249.346 199.094Z" fill="black"/>
<path opacity="0.6" d="M326.472 165.48C326.472 165.48 326.443 165.48 326.429 165.47C320.539 163.186 300.951 158.698 296.535 158.026C290.803 157.152 271.243 152.573 271.047 152.525C270.984 152.51 270.941 152.443 270.955 152.381C270.97 152.318 271.037 152.275 271.099 152.29C271.296 152.338 290.851 156.917 296.573 157.786C301.119 158.477 320.477 162.898 326.515 165.245C326.578 165.269 326.607 165.341 326.583 165.398C326.563 165.446 326.52 165.475 326.472 165.475V165.48Z" fill="black"/>
<path opacity="0.8" d="M131.419 132.922C132.322 133.685 132.403 135 131.602 135.859L129.178 138.36C128.899 138.638 128.544 138.845 128.155 138.95L98.4578 146.77C97.9394 146.904 97.4066 146.971 96.8738 146.971H90.9746C91.2818 146.779 91.5938 146.597 91.925 146.429L120.571 132.115C121.296 131.774 121.589 130.944 121.234 130.258L130.536 132.47C130.863 132.557 131.165 132.71 131.419 132.926V132.922Z" fill="white"/>
<path d="M72.2113 81.2112H20.6401V225.874H72.2113V81.2112Z" fill="#263238"/>
<path opacity="0.2" d="M72.2113 81.2112H20.6401V225.874H72.2113V81.2112Z" fill="white"/>
<path opacity="0.3" d="M48.1489 81.2112H20.6401V225.874H48.1489V81.2112Z" fill="black"/>
<path opacity="0.3" d="M69.6242 85.464H50.6162V100.349H69.6242V85.464Z" fill="black"/>
<path opacity="0.3" d="M66.0433 102.878H51.1489V106.469H66.0433V102.878Z" fill="black"/>
<path d="M69.6241 109.282H51.1489V127.757H69.6241V109.282Z" fill="black"/>
<path d="M67.656 111.821H53.2944V113.107H67.656V111.821Z" fill="#263238"/>
<path d="M57.2832 114.499H53.2944V115.786H57.2832V114.499Z" fill="#263238"/>
<path d="M67.656 117.682H53.2944V118.968H67.656V117.682Z" fill="#263238"/>
<path d="M63.336 120.005H53.2944V121.291H63.336V120.005Z" fill="#263238"/>
<path opacity="0.3" d="M51.1489 127.757L53.1025 132.715H71.1793L69.6241 127.757H51.1489Z" fill="black"/>
<path opacity="0.3" d="M69.3316 138.139H53.002V152.203H69.3316V138.139Z" fill="black"/>
<path d="M42.7779 90.8544H25.1571C24.8576 90.8544 24.6147 91.0972 24.6147 91.3968V117.974C24.6147 118.274 24.8576 118.517 25.1571 118.517H42.7779C43.0775 118.517 43.3203 118.274 43.3203 117.974V91.3968C43.3203 91.0972 43.0775 90.8544 42.7779 90.8544Z" fill="#263238"/>
<path opacity="0.3" d="M43.3154 152.208H26.021V225.869H43.3154V152.208Z" fill="black"/>
<path d="M41.3761 108.202H26.5537V109.282H41.3761V108.202Z" fill="white"/>
<path d="M41.3761 110.875H26.5537V111.955H41.3761V110.875Z" fill="white"/>
<path d="M33.1825 113.64H26.5537V114.72H33.1825V113.64Z" fill="white"/>
<path d="M69.624 102.744H67.896V106.464H69.624V102.744Z" fill="#263238"/>
<path d="M68.5538 220.589H51.6914V157.747H68.5538V220.589ZM51.9314 220.349H68.3138V157.987H51.9314V220.349Z" fill="#263238"/>
<path d="M115.291 207.235L119.76 203.717C122.611 206.962 124.91 210.197 126.648 212.126L125.568 214.656L122.654 214.07C122.654 214.07 119.563 210.758 115.286 207.235H115.291Z" fill="#B97964"/>
<path d="M119.572 211.896L121.31 210.787C123.091 211.69 123.446 210.97 123.662 209.371C124.128 208.992 124.632 209.482 124.776 209.611L127.91 212.448C128.174 212.683 128.198 213.086 127.963 213.355C127.92 213.403 127.872 213.442 127.819 213.475C126.283 214.454 125.558 214.915 123.648 216.134L117.801 219.859C116.208 220.872 114.854 219.48 115.416 218.914C117.95 216.379 119.486 214.181 119.856 212.741C119.928 212.482 119.683 212.482 119.572 211.896Z" fill="#4BC853"/>
<path d="M120.83 213.557C120.83 213.557 120.796 213.557 120.777 213.547C120.336 213.341 119.808 213.336 119.366 213.542C119.308 213.571 119.236 213.542 119.208 213.485C119.179 213.427 119.208 213.355 119.265 213.326C119.774 213.091 120.374 213.096 120.883 213.336C120.94 213.365 120.969 213.437 120.94 213.494C120.921 213.538 120.878 213.562 120.83 213.562V213.557Z" fill="#263238"/>
<path d="M120.422 214.651C120.422 214.651 120.388 214.651 120.369 214.642C119.927 214.435 119.399 214.43 118.958 214.637C118.9 214.666 118.828 214.637 118.799 214.579C118.771 214.522 118.799 214.45 118.857 214.421C119.366 214.186 119.966 214.19 120.475 214.43C120.532 214.459 120.561 214.531 120.532 214.589C120.513 214.632 120.47 214.656 120.422 214.656V214.651Z" fill="#263238"/>
<path d="M119.76 215.77C119.76 215.77 119.726 215.77 119.707 215.76C119.265 215.554 118.737 215.549 118.296 215.755C118.238 215.784 118.166 215.755 118.137 215.698C118.108 215.64 118.137 215.568 118.195 215.539C118.704 215.304 119.304 215.309 119.812 215.549C119.87 215.578 119.899 215.65 119.87 215.707C119.851 215.75 119.808 215.774 119.76 215.774V215.77Z" fill="#263238"/>
<path opacity="0.7" d="M127.968 213.355C127.924 213.403 127.876 213.442 127.824 213.475C126.288 214.454 125.563 214.915 123.652 216.134L117.806 219.859C116.942 220.406 116.155 220.248 115.699 219.902C115.944 219.749 127.612 212.438 127.732 212.29L127.963 212.506C128.179 212.746 128.188 213.11 127.968 213.355Z" fill="white"/>
<path d="M88.9243 207.106L95.8507 211.378C95.3371 216.576 94.0603 221.299 94.5403 223.848L92.3035 225.451L89.2603 222.278C89.2603 222.278 89.5243 212.976 88.9243 207.106Z" fill="#B97964"/>
<path d="M88.9869 219.984L91.0461 219.941C92.1021 221.635 92.7741 221.203 93.7917 219.95C94.3869 219.869 94.5645 220.55 94.6173 220.733L95.8269 224.784C95.9325 225.12 95.7405 225.48 95.4045 225.586C95.3421 225.605 95.2797 225.614 95.2173 225.614C93.3981 225.653 92.5341 225.672 90.2685 225.72L83.3421 225.869C81.4557 225.907 81.0237 224.016 81.7965 223.819C85.2765 222.97 87.7341 221.89 88.7949 220.848C88.9917 220.666 88.7805 220.536 88.9869 219.979V219.984Z" fill="#4BC853"/>
<path d="M89.2606 222.077C89.2222 222.077 89.1838 222.058 89.1598 222.024C88.891 221.616 88.4398 221.342 87.955 221.285C87.8878 221.275 87.8398 221.218 87.8494 221.15C87.859 221.083 87.9214 221.04 87.9838 221.045C88.5406 221.107 89.0542 221.424 89.3614 221.89C89.3998 221.947 89.3806 222.019 89.3278 222.058C89.3086 222.072 89.2846 222.077 89.2606 222.077Z" fill="#263238"/>
<path d="M88.3436 222.797C88.3052 222.797 88.2668 222.778 88.2428 222.744C87.974 222.336 87.5228 222.062 87.038 222.005C86.9708 221.995 86.9228 221.938 86.9324 221.87C86.942 221.803 87.0044 221.76 87.0668 221.765C87.6236 221.827 88.1372 222.144 88.4444 222.61C88.4828 222.667 88.4636 222.739 88.4108 222.778C88.3916 222.792 88.3676 222.797 88.3436 222.797Z" fill="#263238"/>
<path d="M87.2015 223.411C87.1631 223.411 87.1247 223.392 87.1007 223.358C86.8319 222.95 86.3807 222.672 85.8959 222.619C85.8287 222.61 85.7807 222.552 85.7903 222.485C85.7999 222.418 85.8623 222.374 85.9247 222.379C86.4815 222.442 86.9951 222.758 87.3023 223.224C87.3407 223.282 87.3215 223.354 87.2687 223.392C87.2495 223.406 87.2255 223.411 87.2015 223.411Z" fill="#263238"/>
<path opacity="0.7" d="M95.4045 225.59C95.3421 225.61 95.2797 225.619 95.2173 225.619C93.3981 225.658 92.5341 225.677 90.2685 225.725L83.3421 225.874C82.3197 225.898 81.7293 225.35 81.5181 224.818C81.8061 224.818 95.5773 224.626 95.7549 224.563L95.8365 224.866C95.8941 225.182 95.7117 225.499 95.3997 225.595L95.4045 225.59Z" fill="white"/>
<path d="M91.905 146.222L96.8058 156.677C96.8058 156.677 89.025 180.101 88.5594 182.544C88.0938 184.987 87.873 215.741 87.873 215.741L96.5322 215.755L99.9258 185.75C99.9258 185.75 110.438 160.267 111.211 158.198C112.651 154.32 111.139 149.107 111.139 149.107L108.46 145.248L91.905 146.222Z" fill="#4BC853"/>
<path opacity="0.4" d="M91.905 146.222L96.8058 156.677C96.8058 156.677 89.025 180.101 88.5594 182.544C88.0938 184.987 87.873 215.741 87.873 215.741L96.5322 215.755L99.9258 185.75C99.9258 185.75 110.438 160.267 111.211 158.198C112.651 154.32 111.139 149.107 111.139 149.107L108.46 145.248L91.905 146.222Z" fill="black"/>
<path d="M87.1485 151.464C87.1485 152.414 90.5277 184.862 91.0797 184.978C91.6365 185.093 116.102 211.853 116.102 211.853L123.048 205.752L105.096 181.411L103.108 159.538L102.412 145.786L86.7549 146.942L87.1485 151.464Z" fill="#4BC853"/>
<path opacity="0.4" d="M87.1485 151.464C87.1485 152.414 90.5277 184.862 91.0797 184.978C91.6365 185.093 116.102 211.853 116.102 211.853L123.048 205.752L105.096 181.411L103.108 159.538L102.412 145.786L86.7549 146.942L87.1485 151.464Z" fill="black"/>
<path opacity="0.4" d="M99.0234 193.44L99.4554 185.818L104.486 174.672L100.708 186.456L100.348 194.525L99.0234 193.44Z" fill="black"/>
<path opacity="0.4" d="M89.9519 177.576L96.8015 156.677L94.4159 154.498L95.1743 157.493L89.6543 175.094L89.9519 177.576Z" fill="black"/>
<path d="M66.2688 117.754L76.872 127.483L81.816 118.286C81.816 118.286 87.2064 123.61 87.024 123.686C86.8416 123.763 80.6784 137.261 76.2336 134.837C71.7888 132.413 64.272 120.24 64.272 120.24L66.2736 117.749L66.2688 117.754Z" fill="#B97964"/>
<path opacity="0.2" d="M76.8721 127.483C76.8721 127.483 77.7889 128.952 77.6785 130.339C77.6785 130.339 78.0913 129.658 77.9665 128.554C77.8417 127.45 77.3041 126.686 77.3041 126.686L76.8769 127.483H76.8721Z" fill="black"/>
<path d="M86.6304 110.011C89.5248 111.494 90.6864 116.77 84.4656 129.49L77.0352 123.758C78.2256 120.586 79.4352 118.934 81.3408 115.08C84.36 109.099 86.6304 110.011 86.6304 110.011Z" fill="#4BC853"/>
<path d="M86.5392 109.814C88.5792 109.363 96.7008 107.237 105.384 107.602L109.973 139.949C109.973 139.949 110.866 144.187 112.085 148.392C103.814 153.182 92.3376 153.955 86.1792 151.339C86.2608 151.469 86.0688 147.888 85.8048 142.637C85.3392 133.387 84.6528 118.958 84.864 110.539C84.8736 110.333 86.3376 109.862 86.544 109.819L86.5392 109.814Z" fill="#4BC853"/>
<path opacity="0.2" d="M85.1377 128.083L84.8497 117.619L83.5249 128.765L84.4657 129.49L85.1377 128.083Z" fill="black"/>
<path opacity="0.2" d="M107.309 125.856L106.853 125.99L103.891 118.056L106.114 127.133L107.626 127.142L107.309 125.856Z" fill="black"/>
<path d="M70.6895 121.21C70.6895 121.21 70.0991 117.802 69.4319 117.461C68.7647 117.12 68.1311 117.182 68.1311 117.182C68.1311 117.182 64.1903 112.93 63.6479 113.578C63.3551 113.928 64.1519 115.133 66.0431 117.115C66.0431 117.115 64.5839 117.206 64.8815 118.133C64.8815 118.133 63.7823 118.286 64.0079 119.4C64.0079 119.4 63.3119 120.115 63.7055 120.826C64.0991 121.536 66.2831 123.821 67.7375 124.498C69.1919 125.174 70.9679 122.486 70.9679 122.486L70.6799 121.21H70.6895Z" fill="#B97964"/>
<path opacity="0.3" d="M68.7216 121.766C68.7216 121.766 68.6976 121.766 68.688 121.762C68.2224 121.622 67.8336 121.205 67.6752 120.667C67.5552 120.25 67.5552 119.597 67.6272 119.122C67.0032 119.347 66.0624 119.29 65.6496 118.858C65.376 118.57 65.352 118.291 65.5872 117.984C65.7024 117.835 65.9712 117.763 66.288 117.691C66.3504 117.677 66.4032 117.662 66.4464 117.653C66.7104 117.581 67.0464 117.47 67.3824 117.36C67.7232 117.25 68.064 117.139 68.3328 117.062C68.3952 117.048 68.4624 117.082 68.4816 117.144C68.5008 117.206 68.4624 117.274 68.4 117.293C68.136 117.37 67.8 117.475 67.4592 117.586C67.1184 117.696 66.7824 117.806 66.5136 117.878C66.4704 117.893 66.4128 117.902 66.3456 117.922C66.1728 117.96 65.8512 118.032 65.784 118.128C65.6256 118.339 65.6352 118.483 65.832 118.69C66.2112 119.088 67.224 119.098 67.7376 118.81C67.7808 118.786 67.8288 118.79 67.8672 118.819C67.9056 118.848 67.9248 118.896 67.9104 118.944C67.8096 119.39 67.7856 120.158 67.9104 120.595C68.0448 121.056 68.3712 121.411 68.76 121.526C68.8224 121.546 68.8608 121.613 68.8416 121.675C68.8272 121.728 68.7792 121.762 68.7264 121.762L68.7216 121.766Z" fill="black"/>
<path opacity="0.3" d="M65.1073 121.896C64.9777 121.896 64.8433 121.858 64.7137 121.786C64.5409 121.685 64.4064 121.531 64.2864 121.397C64.2432 121.349 64.248 121.272 64.296 121.229C64.344 121.186 64.4209 121.19 64.4641 121.238C64.5745 121.363 64.6945 121.498 64.8337 121.579C64.9729 121.661 65.1265 121.68 65.2417 121.632C65.4433 121.546 65.5105 121.258 65.4673 121.018C65.4241 120.763 65.2993 120.528 65.1217 120.346C65.0305 120.288 64.9393 120.216 64.8481 120.139C64.8049 120.096 64.7953 120.029 64.8337 119.981C64.8673 119.933 64.9392 119.918 64.992 119.947C65.0928 120.005 65.1889 120.077 65.2753 120.158C65.4337 120.254 65.5969 120.317 65.7553 120.336C66.0337 120.37 66.3121 120.269 66.4609 120.072C66.6145 119.87 66.6001 119.554 66.4273 119.4C66.3793 119.357 66.3744 119.28 66.4176 119.232C66.4608 119.184 66.5377 119.179 66.5857 119.222C66.8497 119.458 66.8785 119.914 66.6481 120.216C66.4513 120.475 66.0865 120.619 65.7217 120.571C65.6689 120.566 65.616 120.552 65.5632 120.542C65.6352 120.677 65.6832 120.826 65.712 120.979C65.7648 121.301 65.6737 121.709 65.3425 121.853C65.2705 121.886 65.1889 121.901 65.1073 121.901V121.896Z" fill="black"/>
<path d="M105.183 107.592C105.183 107.592 108.792 107.693 110.247 111.72C111.581 115.43 114.984 123.605 114.984 123.605L106.858 125.986L103.623 116.304L105.187 107.592H105.183Z" fill="#4BC853"/>
<path d="M114.37 123.787C114.37 123.787 116.818 129.581 117.854 134.779C118.325 137.141 116.438 138.658 114.509 139.123C108.422 140.592 94.7135 140.597 94.7135 140.597L94.3535 136.416L110.146 132.998L107.309 125.856L114.374 123.787H114.37Z" fill="#B97964"/>
<path d="M94.68 141.49L89.5056 142.075C89.328 142.094 89.1504 142.032 89.0256 141.907L81.1488 134.117C80.8224 133.795 80.9712 133.243 81.4176 133.128L85.968 131.952C86.1696 131.899 86.3808 131.957 86.5296 132.101L95.0304 140.482C95.3808 140.827 95.1744 141.432 94.6848 141.485L94.68 141.49Z" fill="#263238"/>
<path d="M95.1599 136.44C95.1599 136.44 95.0159 135.83 92.7215 135.134C90.9839 134.602 89.2559 132.974 88.9727 133.032C88.6895 133.09 88.3823 133.973 89.1071 134.755C89.8319 135.538 90.5807 135.979 90.3887 136.282C89.9279 137.002 84.2639 136.416 84.1679 137.035C84.0719 137.654 85.1519 139.421 88.1807 140.606C91.2143 141.787 95.3663 140.606 95.3663 140.606L95.1503 136.45L95.1599 136.44Z" fill="#B97964"/>
<path d="M98.2891 107.851C98.2891 107.851 97.5115 105.293 98.3323 100.512C98.3323 100.507 98.0779 100.426 98.0731 100.421C98.1835 99.7536 98.3131 99.1344 98.4427 98.592C98.4427 98.5776 98.4427 98.5728 98.4427 98.5728L92.5579 103.2C92.8747 104.664 92.6683 107.582 92.4859 108.826C92.4859 108.826 91.9339 111.101 94.8523 110.87C96.9835 110.698 98.2891 107.851 98.2891 107.851Z" fill="#B97964"/>
<path opacity="0.2" d="M92.6826 105.293L96.2298 104.059C96.0282 105.23 95.1786 106.685 92.6538 107.083C92.6538 107.083 92.7642 105.787 92.6778 105.293H92.6826Z" fill="black"/>
<path d="M98.1453 95.496C98.1741 99.5568 98.2701 101.846 96.3645 104.04C93.4989 107.342 88.4925 105.869 87.2493 101.89C86.1309 98.304 86.2749 92.2656 90.1341 90.4272C93.9357 88.6128 98.1213 91.4352 98.1453 95.496Z" fill="#B97964"/>
<path d="M98.3228 90.6C97.6172 88.4112 92.03 88.7664 90.5468 90.0096C90.326 90.1968 93.6236 91.2768 93.4172 91.2192L95.0636 91.3152C95.2988 91.2432 95.8604 92.184 96.1532 92.9136C96.1532 92.9136 96.398 99.1248 98.2748 100.8C99.638 100.018 99.5564 97.5504 99.902 96.0576C100.416 93.8304 100.996 90.5856 98.318 90.6H98.3228Z" fill="#263238"/>
<path d="M99.9695 98.7552C99.7151 99.816 98.9951 100.661 98.2223 101.112C97.0559 101.794 96.5183 100.507 96.5423 99.2256C96.5663 98.0736 96.8063 96.6528 98.1215 96.4944C99.4127 96.336 100.262 97.5408 99.9695 98.7552Z" fill="#B97964"/>
<path d="M92.4336 97.056C92.4624 97.4688 92.2656 97.8192 91.992 97.8336C91.7232 97.848 91.4784 97.5264 91.4496 97.1136C91.4208 96.7008 91.6176 96.3504 91.8912 96.336C92.16 96.3216 92.4048 96.6432 92.4336 97.056Z" fill="#263238"/>
<path d="M88.3823 97.416C88.4111 97.8288 88.2143 98.1792 87.9407 98.1936C87.6719 98.208 87.4271 97.8864 87.3983 97.4736C87.3695 97.0608 87.5663 96.7104 87.8399 96.696C88.1087 96.6816 88.3535 97.0032 88.3823 97.416Z" fill="#263238"/>
<path d="M89.6879 97.0944C89.6879 97.0944 88.5167 99.24 88.1567 100.104C88.7663 100.584 89.7455 100.277 89.7455 100.277L89.6927 97.0944H89.6879Z" fill="#A24E3F"/>
<path d="M93.3117 95.04C93.2493 95.0688 93.1773 95.0688 93.1149 95.0256C92.3949 94.5408 91.7325 94.8048 91.7229 94.8048C91.6221 94.848 91.5117 94.8 91.4685 94.6992C91.4253 94.5984 91.4733 94.488 91.5741 94.4448C91.6077 94.4304 92.4429 94.0992 93.3357 94.704C93.4269 94.7664 93.4461 94.8864 93.3885 94.9728C93.3693 95.0016 93.3453 95.0208 93.3165 95.0352L93.3117 95.04Z" fill="#263238"/>
<path d="M91.1851 101.683C91.0891 101.683 91.0123 101.611 91.0075 101.515C91.0027 101.414 91.0795 101.333 91.1755 101.323C91.7131 101.29 92.1739 101.026 92.7067 100.435C92.7739 100.363 92.8891 100.358 92.9611 100.421C93.0331 100.488 93.0427 100.603 92.9755 100.675C92.5483 101.146 92.0059 101.63 91.1995 101.678H91.1899L91.1851 101.683Z" fill="#263238"/>
<path opacity="0.2" d="M97.2045 99.1584H97.1997C97.1325 99.1584 97.0845 99.1008 97.0845 99.0336C97.0989 98.6592 97.2141 98.2992 97.4157 97.9824C97.5501 97.7712 97.7853 97.4928 98.1357 97.3776C98.4813 97.2672 98.8605 97.368 99.0621 97.6272C99.1005 97.68 99.0957 97.7568 99.0429 97.7952C98.9901 97.8336 98.9133 97.824 98.8749 97.776C98.7357 97.5984 98.4573 97.5312 98.2125 97.608C97.9293 97.6992 97.7373 97.9296 97.6221 98.112C97.4445 98.3904 97.3437 98.712 97.3293 99.0432C97.3293 99.1056 97.2717 99.1584 97.2093 99.1584H97.2045Z" fill="black"/>
<path d="M86.4717 95.7888C86.4333 95.784 86.3997 95.7696 86.3709 95.7408C86.2893 95.6688 86.2845 95.544 86.3517 95.4672C87.0621 94.6656 87.9453 94.8 87.9837 94.8C88.0893 94.8144 88.1613 94.9152 88.1469 95.0208C88.1325 95.1264 88.0317 95.1984 87.9309 95.184C87.8925 95.1792 87.2157 95.0832 86.6445 95.7264C86.6013 95.7792 86.5341 95.7984 86.4717 95.7888Z" fill="#263238"/>
<path d="M95.1166 87.2112C94.1806 86.9088 93.2542 86.8128 92.3038 86.8704C90.6094 86.9712 88.8382 87.1728 87.4078 88.3008C86.779 88.7952 86.2462 89.448 85.6462 89.9856C85.0414 90.5232 84.331 90.9552 83.5918 90.9024C84.1582 91.992 85.3534 92.5152 86.347 92.1072C85.6126 92.4144 84.8302 92.5488 84.0526 92.5056C85.6894 93.24 87.4702 93.7248 89.1694 93.264C90.307 92.9568 91.339 92.2464 92.4334 91.7568C93.5278 91.2672 94.7758 91.0032 95.8318 91.5984L98.3278 90.6C98.7742 88.7232 97.195 87.8832 95.1214 87.2112H95.1166Z" fill="#263238"/>
</svg>
