<svg xmlns="http://www.w3.org/2000/svg" viewBox="0 0 750 500"><g id="freepik--background-complete--inject-5"><path d="M693,130.44c.59-4.28-5.45-7.8-10-8.16-2.16-.18-4.41.16-6.46-.56-4.44-1.55-6.21-7.28-10.54-9.11-3.24-1.37-7-.15-10.11,1.43s-6.24,3.57-9.75,3.79c-3,.2-6.37-.93-9,.56-2,1.11-3,3.4-4.86,4.75s-4.14,1.61-6.36,1.73-4.53.14-6.56,1.07-3.7,3.07-3.28,5.26Z" style="fill:#f5f5f5"></path><circle cx="419.33" cy="140.6" r="27.89" style="fill:#ebebeb"></circle><path d="M421.61,141a6.13,6.13,0,0,0,3.71-5.62,5.75,5.75,0,1,0-11.47-.18,6.1,6.1,0,0,0,3.59,5.75c-8.84,1.23-8.55,10.83-8.55,10.83l20.88.33S430.35,142.37,421.61,141Z" style="fill:#fff"></path><circle cx="446.01" cy="124.88" r="12.17" transform="translate(222.5 530.54) rotate(-76.79)" style="fill:#e0e0e0"></circle><polygon points="445.77 130.32 439.27 125.97 440.79 123.7 445.15 126.62 450.57 119.44 452.75 121.08 445.77 130.32" style="fill:#fff"></polygon><circle cx="352.15" cy="111.21" r="21.81" transform="translate(15.16 262.26) rotate(-41.67)" style="fill:#ebebeb"></circle><path d="M353.94,111.49a4.79,4.79,0,0,0,2.9-4.39,4.5,4.5,0,1,0-9-.14,4.79,4.79,0,0,0,2.81,4.5c-6.92,1-6.69,8.46-6.69,8.46l16.32.26S360.77,112.6,353.94,111.49Z" style="fill:#fff"></path><circle cx="373.01" cy="98.92" r="9.52" transform="translate(191.37 439.4) rotate(-76.77)" style="fill:#e0e0e0"></circle><polygon points="372.83 103.17 367.75 99.77 368.93 98 372.34 100.28 376.58 94.67 378.28 95.95 372.83 103.17" style="fill:#fff"></polygon><rect x="545.02" y="63" width="83.22" height="389.36" style="fill:#f5f5f5"></rect><rect x="586.63" y="63" width="41.61" height="388.28" style="fill:#ebebeb"></rect><rect x="554.52" y="37.11" width="29.39" height="25.89" style="fill:#f5f5f5"></rect><rect x="576.9" y="37.11" width="7" height="25.89" style="fill:#ebebeb"></rect><polyline points="538.08 63 538.08 61.49 630.67 61.49 630.67 63" style="fill:#e0e0e0"></polyline><rect x="561.44" y="74.29" width="7.04" height="14.85" style="fill:#fafafa"></rect><path d="M586.63,95c0,.15-9.32.28-20.81.28S545,95.13,545,95s9.31-.29,20.8-.29S586.63,94.82,586.63,95Z" style="fill:#e0e0e0"></path><rect x="603.42" y="74.29" width="7.04" height="14.85" style="fill:#e0e0e0"></rect><path d="M628.6,95c0,.15-9.32.28-20.8.28S587,95.13,587,95s9.31-.29,20.81-.29S628.6,94.82,628.6,95Z" style="fill:#e0e0e0"></path><rect x="603.42" y="103.78" width="7.04" height="14.85" style="fill:#e0e0e0"></rect><path d="M628.6,124.47c0,.16-9.32.28-20.8.28s-20.81-.12-20.81-.28,9.31-.28,20.81-.28S628.6,124.31,628.6,124.47Z" style="fill:#e0e0e0"></path><rect x="603.42" y="134.17" width="7.04" height="14.85" style="fill:#e0e0e0"></rect><path d="M628.6,154.85c0,.16-9.32.28-20.8.28S587,155,587,154.85s9.31-.28,20.81-.28S628.6,154.69,628.6,154.85Z" style="fill:#e0e0e0"></path><rect x="603.42" y="164.55" width="7.04" height="14.85" style="fill:#e0e0e0"></rect><path d="M628.6,185.23c0,.16-9.32.28-20.8.28s-20.81-.12-20.81-.28,9.31-.28,20.81-.28S628.6,185.07,628.6,185.23Z" style="fill:#e0e0e0"></path><rect x="603.42" y="194.06" width="7.04" height="14.85" style="fill:#e0e0e0"></rect><path d="M628.6,214.74c0,.16-9.32.29-20.8.29S587,214.9,587,214.74s9.31-.28,20.81-.28S628.6,214.59,628.6,214.74Z" style="fill:#e0e0e0"></path><rect x="603.42" y="223.69" width="7.04" height="14.85" style="fill:#e0e0e0"></rect><rect x="603.42" y="253.71" width="7.04" height="14.85" style="fill:#e0e0e0"></rect><path d="M628.6,244.37c0,.16-9.32.29-20.8.29s-20.81-.13-20.81-.29,9.31-.28,20.81-.28S628.6,244.22,628.6,244.37Z" style="fill:#e0e0e0"></path><rect x="561.44" y="104.24" width="7.04" height="14.85" style="fill:#fafafa"></rect><path d="M586.63,124.92c0,.16-9.32.28-20.81.28s-20.8-.12-20.8-.28,9.31-.28,20.8-.28S586.63,124.76,586.63,124.92Z" style="fill:#e0e0e0"></path><rect x="561.44" y="134.18" width="7.04" height="14.85" style="fill:#fafafa"></rect><path d="M586.63,154.86c0,.16-9.32.28-20.81.28S545,155,545,154.86s9.31-.28,20.8-.28S586.63,154.7,586.63,154.86Z" style="fill:#e0e0e0"></path><rect x="561.44" y="164.12" width="7.04" height="14.85" style="fill:#fafafa"></rect><path d="M586.63,184.8c0,.16-9.32.28-20.81.28S545,185,545,184.8s9.31-.28,20.8-.28S586.63,184.64,586.63,184.8Z" style="fill:#e0e0e0"></path><rect x="561.44" y="194.06" width="7.04" height="14.85" style="fill:#fafafa"></rect><path d="M586.63,214.74c0,.16-9.32.29-20.81.29s-20.8-.13-20.8-.29,9.31-.28,20.8-.28S586.63,214.59,586.63,214.74Z" style="fill:#e0e0e0"></path><rect x="561.44" y="224" width="7.04" height="14.85" style="fill:#fafafa"></rect><path d="M586.63,244.68c0,.16-9.32.29-20.81.29s-20.8-.13-20.8-.29,9.31-.28,20.8-.28S586.63,244.53,586.63,244.68Z" style="fill:#e0e0e0"></path><rect x="561.44" y="253.94" width="7.04" height="14.85" style="fill:#fafafa"></rect><rect x="51.8" y="63" width="83.22" height="389.36" style="fill:#f5f5f5"></rect><rect x="93.41" y="63" width="41.61" height="388.28" style="fill:#ebebeb"></rect><rect x="61.3" y="37.11" width="29.39" height="25.89" style="fill:#f5f5f5"></rect><rect x="83.68" y="37.11" width="7" height="25.89" style="fill:#ebebeb"></rect><polyline points="44.86 63 44.86 61.49 137.46 61.49 137.46 63" style="fill:#e0e0e0"></polyline><rect x="68.22" y="74.29" width="7.04" height="14.85" style="fill:#fafafa"></rect><path d="M93.41,95c0,.15-9.32.28-20.81.28S51.8,95.13,51.8,95s9.31-.29,20.8-.29S93.41,94.82,93.41,95Z" style="fill:#e0e0e0"></path><rect x="110.2" y="74.29" width="7.04" height="14.85" style="fill:#e0e0e0"></rect><path d="M135.38,95c0,.15-9.31.28-20.8.28S93.77,95.13,93.77,95s9.31-.29,20.81-.29S135.38,94.82,135.38,95Z" style="fill:#e0e0e0"></path><rect x="110.2" y="103.78" width="7.04" height="14.85" style="fill:#e0e0e0"></rect><path d="M135.38,124.47c0,.16-9.31.28-20.8.28s-20.81-.12-20.81-.28,9.31-.28,20.81-.28S135.38,124.31,135.38,124.47Z" style="fill:#e0e0e0"></path><rect x="110.2" y="134.17" width="7.04" height="14.85" style="fill:#e0e0e0"></rect><path d="M135.38,154.85c0,.16-9.31.28-20.8.28s-20.81-.12-20.81-.28,9.31-.28,20.81-.28S135.38,154.69,135.38,154.85Z" style="fill:#e0e0e0"></path><rect x="110.2" y="164.55" width="7.04" height="14.85" style="fill:#e0e0e0"></rect><path d="M135.38,185.23c0,.16-9.31.28-20.8.28s-20.81-.12-20.81-.28,9.31-.28,20.81-.28S135.38,185.07,135.38,185.23Z" style="fill:#e0e0e0"></path><rect x="110.2" y="194.06" width="7.04" height="14.85" style="fill:#e0e0e0"></rect><path d="M135.38,214.74c0,.16-9.31.29-20.8.29s-20.81-.13-20.81-.29,9.31-.28,20.81-.28S135.38,214.59,135.38,214.74Z" style="fill:#e0e0e0"></path><rect x="110.2" y="223.69" width="7.04" height="14.85" style="fill:#e0e0e0"></rect><rect x="110.2" y="253.71" width="7.04" height="14.85" style="fill:#e0e0e0"></rect><path d="M135.38,244.37c0,.16-9.31.29-20.8.29s-20.81-.13-20.81-.29,9.31-.28,20.81-.28S135.38,244.22,135.38,244.37Z" style="fill:#e0e0e0"></path><rect x="68.22" y="104.24" width="7.04" height="14.85" style="fill:#fafafa"></rect><path d="M93.41,124.92c0,.16-9.32.28-20.81.28s-20.8-.12-20.8-.28,9.31-.28,20.8-.28S93.41,124.76,93.41,124.92Z" style="fill:#e0e0e0"></path><rect x="68.22" y="134.18" width="7.04" height="14.85" style="fill:#fafafa"></rect><path d="M93.41,154.86c0,.16-9.32.28-20.81.28s-20.8-.12-20.8-.28,9.31-.28,20.8-.28S93.41,154.7,93.41,154.86Z" style="fill:#e0e0e0"></path><rect x="68.22" y="164.12" width="7.04" height="14.85" style="fill:#fafafa"></rect><path d="M93.41,184.8c0,.16-9.32.28-20.81.28s-20.8-.12-20.8-.28,9.31-.28,20.8-.28S93.41,184.64,93.41,184.8Z" style="fill:#e0e0e0"></path><rect x="68.22" y="194.06" width="7.04" height="14.85" style="fill:#fafafa"></rect><path d="M93.41,214.74c0,.16-9.32.29-20.81.29s-20.8-.13-20.8-.29,9.31-.28,20.8-.28S93.41,214.59,93.41,214.74Z" style="fill:#e0e0e0"></path><rect x="68.22" y="224" width="7.04" height="14.85" style="fill:#fafafa"></rect><path d="M93.41,244.68c0,.16-9.32.29-20.81.29s-20.8-.13-20.8-.29,9.31-.28,20.8-.28S93.41,244.53,93.41,244.68Z" style="fill:#e0e0e0"></path><rect x="68.22" y="253.94" width="7.04" height="14.85" style="fill:#fafafa"></rect><rect x="110.2" y="287.42" width="7.04" height="14.85" style="fill:#e0e0e0"></rect><path d="M135.38,278.08c0,.16-9.31.29-20.8.29s-20.81-.13-20.81-.29,9.31-.28,20.81-.28S135.38,277.93,135.38,278.08Z" style="fill:#e0e0e0"></path><path d="M93.41,278.39c0,.16-9.32.29-20.81.29s-20.8-.13-20.8-.29,9.31-.28,20.8-.28S93.41,278.24,93.41,278.39Z" style="fill:#e0e0e0"></path><rect x="68.22" y="287.65" width="7.04" height="14.85" style="fill:#fafafa"></rect><rect x="110.2" y="321.13" width="7.04" height="14.85" style="fill:#e0e0e0"></rect><path d="M135.38,311.79c0,.16-9.31.29-20.8.29s-20.81-.13-20.81-.29,9.31-.28,20.81-.28S135.38,311.64,135.38,311.79Z" style="fill:#e0e0e0"></path><path d="M93.41,312.1c0,.16-9.32.29-20.81.29s-20.8-.13-20.8-.29,9.31-.28,20.8-.28S93.41,312,93.41,312.1Z" style="fill:#e0e0e0"></path><rect x="68.22" y="321.36" width="7.04" height="14.85" style="fill:#fafafa"></rect><rect x="110.2" y="354.84" width="7.04" height="14.85" style="fill:#e0e0e0"></rect><path d="M135.38,345.51c0,.15-9.31.28-20.8.28s-20.81-.13-20.81-.28,9.31-.29,20.81-.29S135.38,345.35,135.38,345.51Z" style="fill:#e0e0e0"></path><path d="M93.41,345.82c0,.15-9.32.28-20.81.28s-20.8-.13-20.8-.28,9.31-.29,20.8-.29S93.41,345.66,93.41,345.82Z" style="fill:#e0e0e0"></path><rect x="68.22" y="355.07" width="7.04" height="14.85" style="fill:#fafafa"></rect><rect x="110.2" y="388.55" width="7.04" height="14.85" style="fill:#e0e0e0"></rect><path d="M135.38,379.22c0,.15-9.31.28-20.8.28s-20.81-.13-20.81-.28,9.31-.29,20.81-.29S135.38,379.06,135.38,379.22Z" style="fill:#e0e0e0"></path><path d="M93.41,379.53c0,.15-9.32.28-20.81.28s-20.8-.13-20.8-.28,9.31-.29,20.8-.29S93.41,379.37,93.41,379.53Z" style="fill:#e0e0e0"></path><rect x="68.22" y="388.78" width="7.04" height="14.85" style="fill:#fafafa"></rect><rect x="110.2" y="422.26" width="7.04" height="14.85" style="fill:#e0e0e0"></rect><path d="M135.38,412.93c0,.15-9.31.28-20.8.28s-20.81-.13-20.81-.28,9.31-.29,20.81-.29S135.38,412.77,135.38,412.93Z" style="fill:#e0e0e0"></path><path d="M93.41,413.24c0,.15-9.32.28-20.81.28s-20.8-.13-20.8-.28,9.31-.29,20.8-.29S93.41,413.08,93.41,413.24Z" style="fill:#e0e0e0"></path><rect x="68.22" y="422.49" width="7.04" height="14.85" style="fill:#fafafa"></rect><rect x="622.38" y="196.44" width="91.04" height="254.7" style="fill:#ebebeb"></rect><rect x="670.74" y="196.44" width="42.68" height="254.7" style="fill:#e0e0e0"></rect><rect x="641.47" y="212.7" width="8.19" height="19.89" style="fill:#f5f5f5"></rect><rect x="641.47" y="290.53" width="8.19" height="19.89" style="fill:#f5f5f5"></rect><path d="M670.74,240.39c0,.22-10.83.4-24.18.4s-24.18-.18-24.18-.4,10.83-.41,24.18-.41S670.74,240.17,670.74,240.39Z" style="fill:#f5f5f5"></path><rect x="641.47" y="251.91" width="8.19" height="19.89" style="fill:#f5f5f5"></rect><path d="M670.74,279.6c0,.22-10.83.4-24.18.4s-24.18-.18-24.18-.4,10.83-.4,24.18-.4S670.74,279.38,670.74,279.6Z" style="fill:#f5f5f5"></path><rect x="679.8" y="212.7" width="8.19" height="19.89" style="fill:#f5f5f5"></rect><rect x="697.56" y="212.7" width="8.19" height="19.89" style="fill:#f5f5f5"></rect><rect x="679.8" y="250.43" width="8.19" height="19.89" style="fill:#f5f5f5"></rect><rect x="697.56" y="250.43" width="8.19" height="19.89" style="fill:#f5f5f5"></rect><rect x="679.8" y="288.17" width="8.19" height="19.89" style="fill:#f5f5f5"></rect><rect x="697.56" y="288.17" width="8.19" height="19.89" style="fill:#f5f5f5"></rect><rect x="641.47" y="331.97" width="8.19" height="19.89" style="fill:#f5f5f5"></rect><path d="M670.74,321c0,.22-10.83.4-24.18.4s-24.18-.18-24.18-.4,10.83-.41,24.18-.41S670.74,320.81,670.74,321Z" style="fill:#f5f5f5"></path><rect x="679.8" y="329.6" width="8.19" height="19.89" style="fill:#f5f5f5"></rect><rect x="697.56" y="329.6" width="8.19" height="19.89" style="fill:#f5f5f5"></rect><rect x="641.47" y="373.4" width="8.19" height="19.89" style="fill:#f5f5f5"></rect><path d="M670.74,362.47c0,.23-10.83.41-24.18.41s-24.18-.18-24.18-.41,10.83-.4,24.18-.4S670.74,362.25,670.74,362.47Z" style="fill:#f5f5f5"></path><rect x="679.8" y="371.04" width="8.19" height="19.89" style="fill:#f5f5f5"></rect><rect x="697.56" y="371.04" width="8.19" height="19.89" style="fill:#f5f5f5"></rect><rect x="641.47" y="414.84" width="8.19" height="19.89" style="fill:#f5f5f5"></rect><path d="M670.74,403.91c0,.22-10.83.4-24.18.4s-24.18-.18-24.18-.4,10.83-.41,24.18-.41S670.74,403.69,670.74,403.91Z" style="fill:#f5f5f5"></path><rect x="679.8" y="412.48" width="8.19" height="19.89" style="fill:#f5f5f5"></rect><rect x="697.56" y="412.48" width="8.19" height="19.89" style="fill:#f5f5f5"></rect><rect x="615.54" y="192.26" width="104.72" height="4.33" style="fill:#e0e0e0"></rect><path d="M714.06,197c0,.22-20.35.4-45.45.4s-45.44-.18-45.44-.4,20.34-.41,45.44-.41S714.06,196.77,714.06,197Z" style="fill:#ebebeb"></path><rect x="277.09" y="211.39" width="83.03" height="232.3" style="fill:#ebebeb"></rect><rect x="321.18" y="211.39" width="38.93" height="232.3" style="fill:#e0e0e0"></rect><rect x="294.49" y="226.21" width="7.47" height="18.14" style="fill:#f5f5f5"></rect><rect x="294.49" y="297.2" width="7.47" height="18.14" style="fill:#f5f5f5"></rect><path d="M321.18,251.47c0,.2-9.87.37-22,.37s-22.05-.17-22.05-.37,9.87-.37,22.05-.37S321.18,251.27,321.18,251.47Z" style="fill:#f5f5f5"></path><rect x="294.49" y="261.98" width="7.47" height="18.14" style="fill:#f5f5f5"></rect><path d="M321.18,287.23c0,.21-9.87.37-22,.37s-22.05-.16-22.05-.37,9.87-.37,22.05-.37S321.18,287,321.18,287.23Z" style="fill:#f5f5f5"></path><rect x="329.45" y="226.21" width="7.47" height="18.14" style="fill:#f5f5f5"></rect><rect x="345.65" y="226.21" width="7.47" height="18.14" style="fill:#f5f5f5"></rect><rect x="329.45" y="260.63" width="7.47" height="18.14" style="fill:#f5f5f5"></rect><rect x="345.65" y="260.63" width="7.47" height="18.14" style="fill:#f5f5f5"></rect><rect x="329.45" y="295.05" width="7.47" height="18.14" style="fill:#f5f5f5"></rect><rect x="345.65" y="295.05" width="7.47" height="18.14" style="fill:#f5f5f5"></rect><rect x="294.49" y="334.99" width="7.47" height="18.14" style="fill:#f5f5f5"></rect><path d="M321.18,325c0,.2-9.87.36-22,.36s-22.05-.16-22.05-.36,9.87-.37,22.05-.37S321.18,324.82,321.18,325Z" style="fill:#f5f5f5"></path><rect x="329.45" y="332.84" width="7.47" height="18.14" style="fill:#f5f5f5"></rect><rect x="345.65" y="332.84" width="7.47" height="18.14" style="fill:#f5f5f5"></rect><rect x="294.49" y="372.79" width="7.47" height="18.14" style="fill:#f5f5f5"></rect><path d="M321.18,362.82c0,.2-9.87.37-22,.37s-22.05-.17-22.05-.37,9.87-.37,22.05-.37S321.18,362.61,321.18,362.82Z" style="fill:#f5f5f5"></path><rect x="329.45" y="370.63" width="7.47" height="18.14" style="fill:#f5f5f5"></rect><rect x="345.65" y="370.63" width="7.47" height="18.14" style="fill:#f5f5f5"></rect><rect x="294.49" y="410.58" width="7.47" height="18.14" style="fill:#f5f5f5"></rect><path d="M321.18,400.61c0,.2-9.87.37-22,.37s-22.05-.17-22.05-.37,9.87-.37,22.05-.37S321.18,400.41,321.18,400.61Z" style="fill:#f5f5f5"></path><rect x="329.45" y="408.43" width="7.47" height="18.14" style="fill:#f5f5f5"></rect><rect x="345.65" y="408.43" width="7.47" height="18.14" style="fill:#f5f5f5"></rect><rect x="270.84" y="207.57" width="95.51" height="3.95" style="fill:#e0e0e0"></rect><path d="M360.7,211.89c0,.21-18.56.37-41.45.37s-41.45-.16-41.45-.37,18.56-.36,41.45-.36S360.7,211.69,360.7,211.89Z" style="fill:#ebebeb"></path><polygon points="573.71 451.14 481.63 451.14 481.23 150.26 573.3 150.26 573.71 451.14" style="fill:#ebebeb"></polygon><rect x="527.27" y="150.26" width="46.04" height="300.88" style="fill:#e0e0e0"></rect><rect x="491.74" y="121.61" width="32.51" height="28.65" style="fill:#ebebeb"></rect><rect x="516.51" y="121.61" width="7.75" height="28.65" style="fill:#e0e0e0"></rect><rect x="473.55" y="148.59" width="102.45" height="1.67" style="fill:#e0e0e0"></rect><rect x="499.4" y="162.75" width="7.79" height="16.43" style="fill:#fff"></rect><path d="M527.27,185.64c0,.17-10.31.31-23,.31s-23-.14-23-.31,10.3-.32,23-.32S527.27,185.46,527.27,185.64Z" style="fill:#e0e0e0"></path><rect x="545.84" y="162.75" width="7.79" height="16.43" style="fill:#f5f5f5"></rect><path d="M573.71,185.64c0,.17-10.31.31-23,.31s-23-.14-23-.31,10.3-.32,23-.32S573.71,185.46,573.71,185.64Z" style="fill:#ebebeb"></path><rect x="545.84" y="195.38" width="7.79" height="16.43" style="fill:#f5f5f5"></rect><path d="M573.71,218.27c0,.17-10.31.31-23,.31s-23-.14-23-.31,10.3-.32,23-.32S573.71,218.09,573.71,218.27Z" style="fill:#ebebeb"></path><rect x="545.84" y="228.99" width="7.79" height="16.43" style="fill:#f5f5f5"></rect><path d="M573.71,251.88c0,.17-10.31.31-23,.31s-23-.14-23-.31,10.3-.32,23-.32S573.71,251.7,573.71,251.88Z" style="fill:#ebebeb"></path><rect x="545.84" y="262.61" width="7.79" height="16.43" style="fill:#f5f5f5"></rect><path d="M573.71,285.49c0,.17-10.31.32-23,.32s-23-.15-23-.32,10.3-.31,23-.31S573.71,285.32,573.71,285.49Z" style="fill:#ebebeb"></path><rect x="499.4" y="195.88" width="7.79" height="16.43" style="fill:#fff"></rect><path d="M527.27,218.76c0,.18-10.31.32-23,.32s-23-.14-23-.32,10.3-.31,23-.31S527.27,218.59,527.27,218.76Z" style="fill:#e0e0e0"></path><rect x="499.4" y="229.01" width="7.79" height="16.43" style="fill:#fff"></rect><path d="M527.27,251.89c0,.17-10.31.31-23,.31s-23-.14-23-.31,10.3-.31,23-.31S527.27,251.72,527.27,251.89Z" style="fill:#e0e0e0"></path><rect x="499.4" y="262.13" width="7.79" height="16.43" style="fill:#fff"></rect><path d="M527.27,285c0,.17-10.31.31-23,.31s-23-.14-23-.31,10.3-.32,23-.32S527.27,284.84,527.27,285Z" style="fill:#e0e0e0"></path><rect x="545.84" y="297.02" width="7.79" height="16.43" style="fill:#f5f5f5"></rect><path d="M573.71,319.91c0,.17-10.31.31-23,.31s-23-.14-23-.31,10.3-.32,23-.32S573.71,319.73,573.71,319.91Z" style="fill:#ebebeb"></path><rect x="499.4" y="296.55" width="7.79" height="16.43" style="fill:#fff"></rect><path d="M527.27,319.43c0,.18-10.31.32-23,.32s-23-.14-23-.32,10.3-.31,23-.31S527.27,319.26,527.27,319.43Z" style="fill:#e0e0e0"></path><rect x="545.84" y="331.44" width="7.79" height="16.43" style="fill:#f5f5f5"></rect><path d="M573.71,354.32c0,.18-10.31.32-23,.32s-23-.14-23-.32,10.3-.31,23-.31S573.71,354.15,573.71,354.32Z" style="fill:#ebebeb"></path><rect x="499.4" y="330.96" width="7.79" height="16.43" style="fill:#fff"></rect><path d="M527.27,353.85c0,.17-10.31.31-23,.31s-23-.14-23-.31,10.3-.32,23-.32S527.27,353.67,527.27,353.85Z" style="fill:#e0e0e0"></path><rect x="545.84" y="365.85" width="7.79" height="16.43" style="fill:#f5f5f5"></rect><path d="M573.71,388.74c0,.17-10.31.31-23,.31s-23-.14-23-.31,10.3-.32,23-.32S573.71,388.56,573.71,388.74Z" style="fill:#ebebeb"></path><rect x="499.4" y="365.38" width="7.79" height="16.43" style="fill:#fff"></rect><path d="M527.27,388.26c0,.18-10.31.32-23,.32s-23-.14-23-.32,10.3-.31,23-.31S527.27,388.09,527.27,388.26Z" style="fill:#e0e0e0"></path><rect x="545.84" y="400.27" width="7.79" height="16.43" style="fill:#f5f5f5"></rect><path d="M573.71,423.15c0,.18-10.31.32-23,.32s-23-.14-23-.32,10.3-.31,23-.31S573.71,423,573.71,423.15Z" style="fill:#ebebeb"></path><rect x="499.4" y="399.79" width="7.79" height="16.43" style="fill:#fff"></rect><path d="M527.27,422.68c0,.17-10.31.31-23,.31s-23-.14-23-.31,10.3-.31,23-.31S527.27,422.51,527.27,422.68Z" style="fill:#e0e0e0"></path><path d="M256.54,83.13c.59-4.28-5.45-7.8-10-8.17-2.16-.17-4.41.16-6.46-.55-4.44-1.55-6.21-7.29-10.54-9.11-3.24-1.37-7-.15-10.11,1.43s-6.24,3.56-9.75,3.79c-3.05.19-6.37-.94-9,.55-2,1.11-3,3.41-4.86,4.76s-4.14,1.6-6.36,1.72-4.53.15-6.56,1.08-3.7,3.07-3.28,5.26Z" style="fill:#f5f5f5"></path><path d="M479.05,58.89c.59-4.28-5.45-7.8-10-8.17-2.17-.17-4.41.16-6.46-.55-4.44-1.55-6.22-7.29-10.55-9.11-3.24-1.37-7-.15-10.11,1.43s-6.24,3.56-9.75,3.79c-3.05.19-6.37-.94-9,.55-2,1.11-3,3.41-4.86,4.76s-4.13,1.6-6.36,1.72-4.53.15-6.56,1.08-3.7,3.07-3.28,5.26Z" style="fill:#f5f5f5"></path></g><g id="freepik--Device--inject-5"><path d="M262.68,439.93l-112.06-.06a24.42,24.42,0,0,1-24.4-24.42l.06-280.93a24.41,24.41,0,0,1,24.42-24.4l112.07.06a24.42,24.42,0,0,1,24.39,24.42l-.05,280.93A24.41,24.41,0,0,1,262.68,439.93Z" style="fill:#263238"></path><path d="M263.47,119.65l-21.81-.1a5.4,5.4,0,0,0-5.31,5.51l0,3.95a5.41,5.41,0,0,1-5.32,5.51l-42.5-.19a5.43,5.43,0,0,1-5.27-5.56l0-4a5.43,5.43,0,0,0-5.27-5.56l-7.67,0-19.08-.09A17.15,17.15,0,0,0,134,136.21l-1.17,275.17a17.16,17.16,0,0,0,17.08,17.23l112.22.52a17.16,17.16,0,0,0,17.24-17.08l1.16-275.18A17.14,17.14,0,0,0,263.47,119.65Z" style="fill:#f5f5f5"></path><path d="M215.84,377.13c-.13,3.32-.25,6.44-.36,9h16.13l-2-9.9Z" style="fill:#f5f5f5"></path><path d="M150.32,381.27l.14,4.89h63.42c.1-2.75.22-5.79.34-8.93Z" style="fill:#f5f5f5"></path><polygon points="230.44 376.2 232.43 386.16 262.14 386.16 261.79 374.22 230.44 376.2" style="fill:#f5f5f5"></polygon><polygon points="217.44 237.07 223.07 204.49 208.35 203.4 208.35 237.07 217.44 237.07" style="fill:#ebebeb"></polygon><polygon points="148.99 363.19 133.02 369.44 132.97 380.76 149.47 379.71 148.99 363.19" style="fill:#f5f5f5"></polygon><polygon points="148.92 360.64 148.05 330.29 148.03 330.3 148.03 319.59 133.22 321.16 133.03 366.85 148.91 360.62 148.92 360.64" style="fill:#ebebeb"></polygon><polygon points="148.03 295.7 133.34 293.76 133.23 318.74 148.03 317.17 148.03 295.7" style="fill:#f5f5f5"></polygon><polygon points="257.57 320.04 256.95 328.74 239.59 330.61 240.94 337.49 260.64 336.01 260.34 326.14 261.92 319.61 257.57 320.04" style="fill:#f5f5f5"></polygon><polygon points="226.29 338.6 240.13 337.55 237.11 322.11 225.03 323.33 226.29 338.6" style="fill:#f5f5f5"></polygon><polygon points="226.42 340.2 227.48 353.08 229.35 370.75 230.12 374.61 261.74 372.61 260.69 337.62 226.42 340.2" style="fill:#ebebeb"></polygon><path d="M172,279.39l1.21,2.09L148.84,295.7v33.73l25.73-1.82,49.6-5-1.82-22.12L175,294.3l.31-2.39L222.15,298l-3.07-37.42-46.39,4.46-.15-1.6,46.4-4.46-1.6-19.53H172.72l-39.18,7.13-.19,44.72,14.84,2Zm-20.67,46.82s.18-27.81,0-28.85l19.89-10.59,2.58,38Z" style="fill:#f5f5f5"></path><polygon points="255.94 320.21 237.92 322.03 239.28 329.03 255.44 327.29 255.94 320.21" style="fill:#f5f5f5"></polygon><path d="M216.06,371.17c-.05,1.46-.11,2.92-.16,4.34l13.41-.85-.69-3.46Z" style="fill:#f5f5f5"></path><polygon points="187.17 237.07 189.53 226.35 207.54 226.35 207.54 203.34 151.22 199.16 151.22 220.78 133.63 224.75 133.55 244.16 172.5 237.07 187.17 237.07" style="fill:#ebebeb"></polygon><path d="M224.75,173l-.48-2,21.5-8.51-14-28.08a4.9,4.9,0,0,1-.77.06l-23.76-.11.64,39.3Z" style="fill:#f5f5f5"></path><path d="M257.34,158l0-38.34-15.66-.07a5.4,5.4,0,0,0-5.31,5.51l0,3.95a5.6,5.6,0,0,1-2.3,4.54l14,28.1Z" style="fill:#ebebeb"></path><path d="M176.49,159.61l-1.81-40.37-4.36,0-17-.08-7.25,36.1Zm-3.88-36.28.58,32.88-22.61-3.31,5-29.57Z" style="fill:#f5f5f5"></path><path d="M177.31,159.73v.34c0,3.15.1,8.82.15,14.89l29.62-1.21-.65-39.34-17.93-.09a5.42,5.42,0,0,1-5.27-5.55l0-4a5.43,5.43,0,0,0-5.27-5.56h-2.51l1.82,40.48Z" style="fill:#f5f5f5"></path><path d="M143.67,154.9l7.18-35.75A17.13,17.13,0,0,0,134,136.21L133.93,154l.08-.52Z" style="fill:#f5f5f5"></path><polygon points="148.81 198.99 133.75 197.87 133.64 222.28 148.81 218.85 148.81 198.99" style="fill:#f5f5f5"></polygon><polygon points="143.51 155.69 133.93 154.31 133.76 193.84 135.82 193.99 143.51 155.69" style="fill:#f5f5f5"></polygon><polygon points="173.94 360.18 174.19 328.44 148.85 330.24 149.75 361.33 173.94 360.18" style="fill:#f5f5f5"></polygon><path d="M178.6,352.85l35.9,17.2c.43-11.24.81-21.74.77-22.41l.78-.05.38-.75c.51.25.51.25.24,7.91-.15,4.28-.36,10-.58,15.65h12.42l-1.83-17.24-2.45-29.75-46.89,4.73Z" style="fill:#f5f5f5"></path><polygon points="266.59 300.19 266.18 296 223.16 300.48 224.97 322.53 262.12 318.78 266.59 300.19" style="fill:#f5f5f5"></polygon><polygon points="207.54 228.77 191.47 228.77 189.64 237.07 207.54 237.07 207.54 228.77" style="fill:#f5f5f5"></polygon><path d="M259.94,231.57l-40.25-2.79-1.64,9.51,1.69,20.64,42.46-4.08Zm-38.77,6.71,2.16-6,35,2.22,2,17.16-38,4.5Z" style="fill:#f5f5f5"></path><polygon points="264.12 274.7 262.35 256.45 219.88 260.53 221.47 279.96 264.12 274.7" style="fill:#f5f5f5"></polygon><polygon points="149.52 381.32 133.04 382.37 132.97 381.29 132.95 386.16 149.66 386.16 149.52 381.32" style="fill:#f5f5f5"></polygon><path d="M280.25,148.9l.24.61.05-12.64a17.14,17.14,0,0,0-17.07-17.22l-5.35,0,0,38Z" style="fill:#ebebeb"></path><path d="M214.46,370.93l-36.63-17.56-1.3-25.15-1.53.16L174.74,361l-25,1.18,0,.73h0l.48,16.79,64-4Zm-63.12-6.73,34.95-2.45L209,372.3l-57.69,3.12Z" style="fill:#f5f5f5"></path><path d="M269.83,191.13l1.5-8.89c-13.14-4.69-14.05-18.39-14-22.54l-8.57,3.39L261.66,189Z" style="fill:#f5f5f5"></path><polygon points="222.96 298.07 240.82 296.21 237.3 280.44 221.67 282.37 222.96 298.07" style="fill:#f5f5f5"></polygon><polygon points="261.5 206.6 228.13 206.59 225.36 206.39 221.59 228.23 261.2 230.97 260.28 221.47 264.17 207.44 261.5 206.6" style="fill:#f5f5f5"></polygon><path d="M259.19,200.74l.42-10.43L246.49,164l-20.33,8,7,28.71ZM245.7,167.19l12,22.86L256,197.17l-20.56-.77-5.14-21.63Z" style="fill:#f5f5f5"></path><polygon points="264.38 326.56 264.99 347.04 279.45 346.23 279.5 347.03 265.02 347.85 265.75 372.36 279.42 371.5 279.52 373.1 265.8 373.97 266.17 386.16 279.49 386.16 279.78 317.8 266.15 319.18 264.38 326.56" style="fill:#f5f5f5"></polygon><path d="M176.52,160.42,145.91,156l-7.66,38.14,38.4,2.85C176.8,191.14,176.67,173.13,176.52,160.42Z" style="fill:#ebebeb"></path><polygon points="226.86 200.74 231.5 200.74 224.94 173.82 207.91 174.52 208.31 199.36 226.86 200.74" style="fill:#f5f5f5"></polygon><path d="M132.87,405.74l0,5.64c0,.18,0,.34,0,.52Z" style="fill:#f5f5f5"></path><path d="M177.44,197.07l30.07,2.23-.41-24.75-29.63,1.21C177.54,184.13,177.56,193.06,177.44,197.07Z" style="fill:#f5f5f5"></path><polygon points="264.35 277.11 238.1 280.34 241.63 296.13 265.95 293.6 264.35 277.11" style="fill:#f5f5f5"></polygon><path d="M271.47,181.43l1.68-10,7.24.57.09-21.49-22.34,8.85C257.68,174.5,267.18,179.81,271.47,181.43Z" style="fill:#ebebeb"></path><polygon points="262.86 219.99 263.77 229.41 280.14 230.55 280.23 211.14 266.52 206.81 262.86 219.99" style="fill:#f5f5f5"></polygon><path d="M270.65,300.47l-4.3,17.88L279.78,317l.08-18.74c-4.12-1.09-7.72-2-9.65-2.34Z" style="fill:#f5f5f5"></path><polygon points="261.59 201.04 280.25 206.93 280.29 196.32 261.97 191.59 261.59 201.04" style="fill:#f5f5f5"></polygon><path d="M270,293.45c1.51.23,4.36.83,9.9,2.29l.17-41-13.69,1.32Z" style="fill:#f5f5f5"></path><polygon points="266.2 254.46 280.05 253.13 280.13 232.97 264.01 231.85 266.2 254.46" style="fill:#f5f5f5"></polygon><path d="M273,181.94q3.94,1.2,7.33,1.87l.05-10.18-5.9-.46Z" style="fill:#f5f5f5"></path><path d="M271.4,191.53l8.9,2.3,0-9.19q-3.45-.69-7.46-1.9Z" style="fill:#f5f5f5"></path><path d="M279.52,373.1l-.1-1.61-13.67.87L265,347.84l14.47-.81,0-.8L265,347l-.61-20.48,1.77-7.38,13.63-1.38V317l-13.43,1.36,4.3-17.88-.44-4.56c1.93.37,5.53,1.25,9.65,2.34v-2.51c-5.54-1.46-8.39-2.06-9.9-2.29l-3.62-37.38L280,254.75v-1.62l-13.85,1.33L264,231.85,280.14,233v-2.42l-16.38-1.14-.91-9.42,3.66-13.18,13.71,4.33,0-4.21L261.59,201l.38-9.45,18.32,4.73v-2.49l-8.9-2.3,1.48-8.79q4,1.22,7.46,1.9v-.83q-3.39-.67-7.33-1.87l1.48-8.77,5.9.46V172l-7.24-.57-1.68,10c-4.29-1.62-13.79-6.93-13.33-22.05l22.34-8.85v-1l-.24-.61-22.11,8.74,0-38h-.8l0,38.34L248,161.65l-14-28.1a5.13,5.13,0,0,1-2.25.91l14,28.08-21.5,8.51.48,2-16.86.69-.64-39.3h-.81l.65,39.34L177.47,175c-.05-6.07-.11-11.74-.15-14.89v-.34h0l-1.82-40.48h-.8l1.81,40.37-30.43-4.37,7.25-36.1h-2.07l-.39,0-7.18,35.75L134,153.51l-.08.52v.28l9.58,1.38L135.83,194l-2.07-.15,0,4L148.81,199v19.86l-15.17,3.43v2.47l17.59-4V199.16l56.32,4.18v23h-18l-2.36,10.72H172.51l-39,7.09v2.45l39.18-7.13h44.62l1.6,19.53-46.4,4.46.15,1.6,46.39-4.46L222.15,298l-46.87-6.12L175,294.3l47.38,6.19,1.82,22.12-49.6,5-25.73,1.82V295.7l24.38-14.22L172,279.39l-23.82,13.9-14.84-2v2.43L148,295.7v21.47l-14.81,1.56v2.43L148,319.59v10.7h0l.87,30.35v0L133,366.85v2.59l16-6.26.48,16.53L133,380.76v.53l.07,1.08,16.48-1.05.13,4.84h.81l-.14-4.89,63.9-4c-.12,3.14-.24,6.18-.34,8.93h1.6c.11-2.59.23-5.71.36-9l13.79-.87,2,9.9h.81l-2-10,31.35-2,.36,11.94h4M215.9,375.51c0-1.42.11-2.88.16-4.34l12.56,0,.69,3.46Zm14.22-.9-.77-3.86-1.87-17.67-1.06-12.88,34.27-2.58,1.05,35Zm7.8-52.58,18-1.82-.5,7.08L239.28,329Zm-.81.08,3,15.44-13.84,1.05L225,323.33ZM260.64,336l-19.7,1.48-1.35-6.88L257,328.74l.62-8.7,4.35-.44-1.58,6.54ZM237.3,280.44l3.52,15.78L223,298.07l-1.29-15.7Zm4.33,15.69-3.53-15.79,26.25-3.23L266,293.6Zm18.08-67-39.61-2.74,3.77-21.84,2.77.2H260l2.67.84-3.89,14Zm-2.39-69.43c0,4.15.87,17.85,14,22.54l-1.5,8.89L261.66,189l-12.91-25.93ZM246.49,164l13.12,26.32-.42,10.43h-26l-7-28.71Zm-21.55,9.83,6.56,26.92h-4.64l-18.55-1.38-.4-24.84Zm-17.84.73.41,24.75-30.07-2.23c.12-4,.1-12.94,0-21.31ZM145.91,156l30.61,4.39c.15,12.71.28,30.72.13,36.6l-38.4-2.85Zm77.16,48.46-5.62,32.58h-9.1V203.4Zm-31.6,24.28h16.07v8.3h-17.9Zm26.58,9.52,1.64-9.51,40.25,2.79,2.26,23.28-42.46,4.08Zm44.3,18.16,1.77,18.25L221.47,280l-1.59-19.43Zm-39.19,44,43-4.48.41,4.19-4.48,18.59L225,322.53Zm3.52,52.68,1.83,17.24H216.09c.22-5.69.43-11.37.58-15.65.27-7.66.27-7.66-.24-7.91l-.38.75-.78.05c0,.67-.34,11.17-.77,22.41l-35.9-17.2-1.26-24.71,46.89-4.73Zm-52.49-24.72-.25,31.74-24.19,1.15-.9-31.09Zm-24.4,34.43h0l0-.73,25-1.18.26-32.57,1.53-.16,1.3,25.15,36.63,17.56-.18,4.69-64,4Z" style="fill:#fff"></path><polygon points="186.29 361.75 151.34 364.2 151.34 375.42 209.03 372.3 186.29 361.75" style="fill:#e0e0e0"></polygon><polygon points="258.29 234.49 223.33 232.27 221.17 238.28 222.35 256.15 260.32 251.65 258.29 234.49" style="fill:#e0e0e0"></polygon><path d="M133,328.22l-.08,77.52v6.16a17.13,17.13,0,0,0,17,16.71l112.22.52a17.16,17.16,0,0,0,17.24-17.08l.11-83.83Z" style="fill:#fff"></path><polygon points="173.88 158.31 173.3 125.43 156.22 125.43 151.27 155 173.88 158.31" style="fill:#e0e0e0"></polygon><polygon points="255.98 197.17 257.72 190.05 245.7 167.19 230.28 174.78 235.42 196.4 255.98 197.17" style="fill:#ebebeb"></polygon><path d="M151.34,297.36c.18,1,0,28.85,0,28.85l22.47-1.42-2.58-38Z" style="fill:#e0e0e0"></path><polygon points="226.29 319.95 225.1 302.71 263.65 297.75 263.65 300.73 258.99 316.58 226.29 319.95" style="fill:#e0e0e0"></polygon><path d="M262.23,363.86l-.49-11.24-33.88,1.65a5.15,5.15,0,0,1-2.56-.55l-48.06-24.27a3.5,3.5,0,0,1-1.91-2.93l-6.54-126.86a2.13,2.13,0,0,1,2.28-2.23L191.66,199V176.44h2.42v22.83a2.16,2.16,0,0,1-.68,1.56,2.13,2.13,0,0,1-1.6.56l-20.58-1.53,6.52,126.54a1.08,1.08,0,0,0,.59.9l48.06,24.27a2.72,2.72,0,0,0,1.35.29l34.17-1.66a2.11,2.11,0,0,1,1.54.55,2.13,2.13,0,0,1,.69,1.49l.5,11.52Z" style="fill:#fff"></path><path d="M206.73,419.75h0a.36.36,0,0,1-.28-.12l-3.87-4a.39.39,0,0,1,.56-.53l3.59,3.74,3.51-3.67a.39.39,0,0,1,.55,0,.38.38,0,0,1,0,.54l-3.79,4A.39.39,0,0,1,206.73,419.75Z" style="fill:#263238"></path></g><g id="freepik--Locator--inject-5"><path d="M259.32,218.82a18.5,18.5,0,1,0-34.44,9.35h0l0,.07c.71,1.19,1.6,2,2.5,3.3l10.74,14.23a3.34,3.34,0,0,0,5.33,0l10.56-14a39,39,0,0,0,2.68-3.56l0-.05h0A18.42,18.42,0,0,0,259.32,218.82Zm-18.5,8.05a8.14,8.14,0,1,1,8.14-8.14A8.14,8.14,0,0,1,240.82,226.87Z" style="fill:#062D28"></path></g><g id="freepik--characters-2--inject-5"><path d="M402.5,265.83a3.48,3.48,0,0,0-3.59-1.78,4.7,4.7,0,0,0-5.82.09,4.26,4.26,0,0,0-4.14-.09,4.34,4.34,0,0,0-2.21,3.53,3.6,3.6,0,0,0-3.68,1.85,3.65,3.65,0,0,0,.59,4.09,3.4,3.4,0,0,0,1.4,6.61l16.8-10.33A3.49,3.49,0,0,0,402.5,265.83Z" style="fill:#263238"></path><path d="M384.56,280.6a14.36,14.36,0,0,1,14.32-13.2h.74c8,.49,10.5,7.91,9.78,15.93l-.8,29.85h0l-12.74,11L392.11,316l-.9-8s-7.68-1.23-7.75-9C383.43,295.26,384,287.56,384.56,280.6Z" style="fill:#ffbf9d"></path><path d="M391.15,307.94A18.59,18.59,0,0,0,401.23,305s-2.11,5.77-9.78,5.05Z" style="fill:#ff9a6c"></path><path d="M386.76,287.77a1.11,1.11,0,0,0,1.06,1.12,1.05,1.05,0,0,0,1.13-1,1.09,1.09,0,0,0-1.05-1.12A1.05,1.05,0,0,0,386.76,287.77Z" style="fill:#263238"></path><path d="M386.11,284.78c.14.15,1-.47,2.15-.46s2.05.6,2.18.46-.08-.33-.45-.6a3,3,0,0,0-1.74-.55,2.88,2.88,0,0,0-1.72.55C386.17,284.46,386.05,284.72,386.11,284.78Z" style="fill:#263238"></path><path d="M396.89,288.31a1.09,1.09,0,0,0,1.05,1.12,1.06,1.06,0,0,0,1.14-1,1.11,1.11,0,0,0-1.06-1.12A1.05,1.05,0,0,0,396.89,288.31Z" style="fill:#263238"></path><path d="M397.41,284.66c.14.14,1-.47,2.15-.47s2.05.61,2.18.46-.08-.32-.45-.6a3,3,0,0,0-1.74-.55,3,3,0,0,0-1.71.55C397.47,284.33,397.35,284.59,397.41,284.66Z" style="fill:#263238"></path><path d="M393.49,293.45a7.23,7.23,0,0,0-1.91-.35c-.3,0-.59-.1-.64-.31a1.59,1.59,0,0,1,.2-.89l.9-2.31a40.75,40.75,0,0,0,2-6,40.68,40.68,0,0,0-2.5,5.86c-.31.81-.59,1.58-.87,2.32a1.82,1.82,0,0,0-.16,1.19.77.77,0,0,0,.5.45,2,2,0,0,0,.51.07A7.39,7.39,0,0,0,393.49,293.45Z" style="fill:#263238"></path><path d="M397,294.28c-.19,0-.2,1.28-1.3,2.19s-2.47.77-2.48.95.31.25.88.27a3.18,3.18,0,0,0,2.07-.72,2.84,2.84,0,0,0,1-1.83C397.2,294.6,397.06,294.28,397,294.28Z" style="fill:#263238"></path><path d="M397.41,281.26c.14.31,1.16,0,2.39.06s2.27.29,2.4,0c.05-.14-.15-.42-.59-.69a3.75,3.75,0,0,0-1.83-.49,3.45,3.45,0,0,0-1.81.46C397.54,280.84,397.35,281.12,397.41,281.26Z" style="fill:#263238"></path><path d="M386.39,281.53c.19.28,1,.07,2,.15s1.78.33,2,.07,0-.41-.36-.7a2.79,2.79,0,0,0-1.58-.58,2.75,2.75,0,0,0-1.63.4C386.45,281.12,386.31,281.39,386.39,281.53Z" style="fill:#263238"></path><path d="M385.31,277.06s2-4.83,4.37-6c2.81-1.35,4,1.75,6.69,1s5.37-2.05,8.1,0c3,2.29,1.58,3.89,1.75,7.32.71,13.91,3.22,17.85,4,11.3.08-.72,2.06-1.28,2.37-4.31.39-3.93.56-8.71-.31-11.5-.72-2.36-2.05-4-4.44-5.78-3.76-2.85-8.95-2.92-12.47-2.58S385,271,385.31,277.06Z" style="fill:#263238"></path><path d="M408.72,290.56a2.08,2.08,0,0,1,2.26-2c1.43.14,3,1,2.92,3.95-.19,5.28-5.42,4-5.43,3.85S408.62,292.77,408.72,290.56Z" style="fill:#ffbf9d"></path><path d="M409.68,294.39s.09.07.25.15a.93.93,0,0,0,.68,0,2.3,2.3,0,0,0,1.12-2,3,3,0,0,0-.21-1.33,1.08,1.08,0,0,0-.66-.73.47.47,0,0,0-.55.24c-.08.14-.05.25-.08.26s-.11-.1-.06-.31a.6.6,0,0,1,.22-.33.67.67,0,0,1,.51-.11,1.28,1.28,0,0,1,.93.85,3.21,3.21,0,0,1,.27,1.48,2.4,2.4,0,0,1-1.42,2.24,1,1,0,0,1-.83-.17C409.69,294.52,409.67,294.4,409.68,294.39Z" style="fill:#ff9a6c"></path><path d="M409.62,280.32a5,5,0,0,1-2.23,1,1.7,1.7,0,0,1-1.89-1.22c-.07-.36,0-.79-.21-1.08s-.82-.23-1.26-.19a3.34,3.34,0,0,1-3.47-2.43,1.4,1.4,0,0,1-1.89.18,7.82,7.82,0,0,1-1.43-1.55,2.15,2.15,0,0,0-1.8-.91,5.82,5.82,0,0,1-1.14.25c-.69-.07-1-.88-1.13-1.57s-.18-1.49-.76-1.87a2.74,2.74,0,0,0-1.88-.06c-.64.09-1.46-.06-1.62-.69a1.27,1.27,0,0,1,.24-.95,3.38,3.38,0,0,1,4-1.29,4.61,4.61,0,0,1,8.48-.87,4.67,4.67,0,0,1,7.48,1.75,3.44,3.44,0,0,1,3.54,1.22,3.49,3.49,0,0,1,.27,3.75,3.25,3.25,0,0,1,1.76,2.59,1.84,1.84,0,0,1-2.09,1.89,2,2,0,0,1-.75,2.48,2,2,0,0,1-2.51-.61" style="fill:#263238"></path><path d="M413,278.28a1.23,1.23,0,0,1-.33,1,1.62,1.62,0,0,1-1.05.63,1.81,1.81,0,0,1-1.5-.44l.22,0a5.26,5.26,0,0,1-1.05,1.31,3,3,0,0,1-1,.6,2.05,2.05,0,0,1-1.06.09,2,2,0,0,1-1.51-.88,2.9,2.9,0,0,1-.42-1.1.9.9,0,0,1,0-.43,1.85,1.85,0,0,1,.15.4,3.86,3.86,0,0,0,.48,1,2.14,2.14,0,0,0,3.16.08,5.2,5.2,0,0,0,1-1.23l.1-.15.13.12a1.58,1.58,0,0,0,1.26.41,1.54,1.54,0,0,0,.95-.5A2.33,2.33,0,0,0,413,278.28Z" style="fill:#455a64"></path><path d="M403.1,266.17s-.13,0-.37.14a1.84,1.84,0,0,0-.82.69l-.06.11-.07-.1a6.51,6.51,0,0,0-2.54-2.08,5.11,5.11,0,0,0-2.07-.46,4.14,4.14,0,0,0-2.22.63,4.23,4.23,0,0,0-1.33,1.26A3.59,3.59,0,0,0,393,268v.17l-.16-.05a3,3,0,0,0-2.19.26,2.91,2.91,0,0,0-1.2,1.28,4,4,0,0,0-.33,1.57,1.26,1.26,0,0,1-.06-.43,2.84,2.84,0,0,1,.24-1.21,3,3,0,0,1,1.24-1.41,3.11,3.11,0,0,1,2.37-.33l-.17.12a3.8,3.8,0,0,1,.61-1.73,4.59,4.59,0,0,1,1.42-1.35,4.47,4.47,0,0,1,2.39-.67,5.22,5.22,0,0,1,2.17.52,6.48,6.48,0,0,1,2.56,2.22h-.14a1.81,1.81,0,0,1,.93-.68A.82.82,0,0,1,403.1,266.17Z" style="fill:#455a64"></path><path d="M409.15,304.67l.6,4-22.16,11.49,1.45-6.47a32.76,32.76,0,0,1,6.85-4.62A62.06,62.06,0,0,1,409.15,304.67Z" style="fill:#f5f5f5"></path><path d="M412.93,310.92s5.63,14.8,5.69,20.26-3.12,20.25-3.12,20.25l-15.9,30.34-2.8,22.39c-10.56,0-24.7-2.07-39.9-4.82,0,0,11.64-41.95,15.31-47.59s16.54-31.47,16.54-31.47a17,17,0,0,1,4.27-5.61c4.46-4,12.64-6.11,19.94-7Z" style="fill:#062D28"></path><path d="M406.87,317.15c-4.54-.15-10.79,2.35-14,9.9l-3.39,9.41-12.6,18.09-33.07-2.18-2,13.68s36,8,40.26,7.54,24.67-21.79,24.67-21.79,10.62-13.25,10.1-24.29" style="fill:#062D28"></path><path d="M416.82,327.51a3.39,3.39,0,0,0,0,.46c0,.34,0,.79,0,1.37s-.17,1.34-.27,2.21a29.9,29.9,0,0,1-.7,3c-1.24,4.41-4.16,10.56-9.21,17.17v0c-3.11,3.21-6.61,6.72-10.5,10.43-1.94,1.85-4,3.76-6.15,5.66-1.08.94-2.2,1.89-3.36,2.81a22.77,22.77,0,0,1-3.7,2.48,2.5,2.5,0,0,1-1,.27c-.38,0-.74,0-1.12,0-.77-.08-1.54-.14-2.31-.27-1.56-.21-3.12-.48-4.71-.75-3.17-.55-6.4-1.18-9.7-1.83-6.58-1.32-13.4-2.76-20.39-4.28l-1.77-.39.23.33c.7-4.65,1.38-9.22,2-13.67l-.31.25,33.07,2.13H377l.08-.12,12.56-18.12,0,0v0l2.09-5.88a39.92,39.92,0,0,1,2-5.14,15.75,15.75,0,0,1,5.91-6.37,13.92,13.92,0,0,1,5.22-1.83,12.9,12.9,0,0,1,1.44-.13,3,3,0,0,0,.49,0,9.28,9.28,0,0,0-1.95,0,13.69,13.69,0,0,0-5.31,1.76,15.86,15.86,0,0,0-6.09,6.41,39.61,39.61,0,0,0-2.08,5.16l-2.13,5.87,0-.05L376.69,354.4l.23-.11-33.07-2.21-.26,0,0,.27q-1,6.69-2.05,13.67l0,.28.27.06,1.76.39c7,1.52,13.82,3,20.41,4.27,3.3.64,6.54,1.27,9.71,1.82,1.6.27,3.17.53,4.73.74.78.13,1.57.18,2.35.27.39,0,.8,0,1.2,0a3,3,0,0,0,1.19-.33,22.25,22.25,0,0,0,3.81-2.56q1.75-1.39,3.37-2.84c2.17-1.91,4.2-3.83,6.15-5.69,3.87-3.74,7.36-7.27,10.45-10.5h0c5.05-6.69,7.91-12.89,9.1-17.36a29.2,29.2,0,0,0,.66-3c.08-.89.2-1.63.21-2.23s0-1,0-1.38A2.26,2.26,0,0,0,416.82,327.51Z" style="fill:#263238"></path><path d="M385.79,321.28a6.73,6.73,0,0,0,.8-.72c.25-.25.55-.54.93-.86s.78-.71,1.27-1.09a36.71,36.71,0,0,1,3.54-2.54,42.23,42.23,0,0,1,4.72-2.48,49.42,49.42,0,0,1,9.23-2.92c1.22-.26,2.21-.45,2.89-.57a6.72,6.72,0,0,0,1.06-.22,6.65,6.65,0,0,0-1.08.1c-.69.08-1.69.23-2.91.47a44.38,44.38,0,0,0-9.32,2.84,36.9,36.9,0,0,0-4.75,2.53,32.45,32.45,0,0,0-3.53,2.61c-.48.39-.88.8-1.25,1.13s-.66.65-.89.91A6.33,6.33,0,0,0,385.79,321.28Z" style="fill:#263238"></path><path d="M359.9,289.49l3.14,9.27,1.11,1.55s1,5.15,1,6.25a57,57,0,0,1-1.36,6.86l3.19,5.12-8.85,3.4s-2.4-4.68-3.06-5.21a5.72,5.72,0,0,1-1.31-3.07c-.16-1-1.48-7.1-1.48-7.1s-3.93-6.71-2.29-7.05a6.08,6.08,0,0,1,1.23,0s2.36,4.41,3,4.5l.89-.52s-1.84-6.75-1.94-8,.17-2.15,1.14-2.3c0,0,.73.3.8.62s1.9,7.85,2.32,7.7.22-.82.22-.82-2.45-9.13-2.34-9.65a1.43,1.43,0,0,1,1.47-1.25l1.87,5s-.87-4.22-.19-5A1.19,1.19,0,0,1,359.9,289.49Z" style="fill:#ffbf9d"></path><path d="M358,310c.08,0,0-.79.32-2a8,8,0,0,1,2.75-4.27l.12-.09,0-.14q-.23-1-.48-2.1v0l0,0c-.15-.22-.31-.47-.46-.73a8.21,8.21,0,0,1-1-2.67,2.91,2.91,0,0,1,0-1.25.88.88,0,0,1,.67-.68l-.15-.06c1.06,1,1.95,1.85,2.58,2.42a5.72,5.72,0,0,0,1,.85,6,6,0,0,0-.87-1c-.59-.62-1.43-1.5-2.47-2.54l-.06-.06h-.09a1.27,1.27,0,0,0-1,.95,3.33,3.33,0,0,0-.05,1.44,8.35,8.35,0,0,0,1.06,2.83,6.71,6.71,0,0,0,.49.77l0-.08.5,2.09.09-.23a7.78,7.78,0,0,0-2.77,4.57,6.75,6.75,0,0,0-.12,1.55A1.74,1.74,0,0,0,358,310Z" style="fill:#ff9a6c"></path><path d="M358,302.5a6.3,6.3,0,0,0-2.82,1.22,6.41,6.41,0,0,0-2.23,2.11,24.72,24.72,0,0,0,2.49-1.72A27.57,27.57,0,0,0,358,302.5Z" style="fill:#ff9a6c"></path><polygon points="354.41 321.14 367.75 315.44 375.2 327.24 358.3 328.64 354.41 321.14" style="fill:#062D28"></polygon><path d="M474.49,295.27l2.86,8.43,1,1.42s.87,4.69.92,5.69a52.52,52.52,0,0,1-1.24,6.24l2.91,4.67-8.06,3.09s-2.19-4.26-2.79-4.74a5.14,5.14,0,0,1-1.19-2.8c-.15-.93-1.35-6.46-1.35-6.46s-3.58-6.11-2.09-6.42a5.23,5.23,0,0,1,1.12,0s2.16,4,2.73,4.1l.82-.47s-1.68-6.14-1.77-7.29.15-2,1-2.09c0,0,.66.26.72.56s1.74,7.14,2.12,7,.2-.75.2-.75-2.24-8.31-2.13-8.79a1.31,1.31,0,0,1,1.33-1.14l1.71,4.57s-.79-3.84-.18-4.53A1.09,1.09,0,0,1,474.49,295.27Z" style="fill:#ae7461"></path><path d="M472.78,313.93c.07,0,0-.71.29-1.86a7.24,7.24,0,0,1,2.5-3.88l.12-.09,0-.12-.44-1.91v0l0,0c-.14-.2-.28-.43-.42-.66a7.84,7.84,0,0,1-.93-2.43,2.71,2.71,0,0,1,0-1.14.8.8,0,0,1,.61-.62l-.14-.06c1,.93,1.78,1.69,2.35,2.21a4.61,4.61,0,0,0,.94.77,5.19,5.19,0,0,0-.79-.92c-.54-.57-1.31-1.36-2.25-2.31l-.05-.06h-.08a1.16,1.16,0,0,0-1,.86,3.09,3.09,0,0,0-.05,1.32,7.79,7.79,0,0,0,1,2.58c.15.24.29.48.45.7l0-.08c.15.66.31,1.3.45,1.91l.08-.21a7.08,7.08,0,0,0-2.52,4.15,6.72,6.72,0,0,0-.11,1.42A1.43,1.43,0,0,0,472.78,313.93Z" style="fill:#6f4439"></path><path d="M472.78,307.11a5.63,5.63,0,0,0-2.56,1.12,5.78,5.78,0,0,0-2,1.91,22.73,22.73,0,0,0,2.26-1.56A23.48,23.48,0,0,0,472.78,307.11Z" style="fill:#6f4439"></path><path d="M515.48,277.06c-1.55-1.82-1.08-4.79.58-6.51a9.24,9.24,0,0,1,6.54-2.43c3.69-.08,7.63,1.3,9.67,4.39s1.4,7.93-1.87,9.66a9.14,9.14,0,0,1,4.39,2.16c1.13,1.22,1.4,3.38.11,4.42-1.46,1.19-3.62.2-5.21-.8a2.68,2.68,0,0,1-.15,3.68,4.19,4.19,0,0,1-3.83.92,10.08,10.08,0,0,1-3.65-1.81" style="fill:#263238"></path><path d="M521,278.74a10,10,0,0,0-1.79-2.61,3.49,3.49,0,0,0-2.88-1.07,1.44,1.44,0,0,0-1.18.8.79.79,0,0,0,.65,1.08l.1.1c1.07,1,2.17,2,3.28,3a3,3,0,0,0,.92.61,1,1,0,0,0,1-.18C521.58,280,521.3,279.28,521,278.74Z" style="fill:#062D28"></path><path d="M523,282.45a18.63,18.63,0,0,0-14.2-7.7c-3.28-.17-4.66.46-7,1a10.36,10.36,0,0,0-6.05,3.7,17.31,17.31,0,0,0-3.67,7.82,48.6,48.6,0,0,0-.74,8.92,16.34,16.34,0,0,0,2.49,8.5l7.54,1.58c4.18.29,10.34,5.72,14.45,4.9s8-7.39,9.37-11.53C526.94,294.13,526.5,287.08,523,282.45Z" style="fill:#263238"></path><path d="M500.79,319.75c.14-2.66.35-6,.35-6s-6.16-.9-7.59-8.88c-.71-4-.64-10.51-.41-15.85.2-4.81,4.53-11.22,10.47-11l2.65-.22,10,4.37a2.83,2.83,0,0,1,2.58,2.81l-1,35.89-6.64,9.56-10.36-6.62Z" style="fill:#ae7461"></path><path d="M505.5,303.45a1.66,1.66,0,0,0-.55-1.06,1.72,1.72,0,0,0-2.09-.19,2.32,2.32,0,0,0-.95,2.13h0a2.13,2.13,0,0,0,1.47.93l.28,0a1.93,1.93,0,0,0,1.29-.46A1.69,1.69,0,0,0,505.5,303.45Z" style="fill:#6f4439"></path><path d="M495,295a1,1,0,0,0,1,1,1,1,0,0,0,1-.95,1,1,0,0,0-1-1A1,1,0,0,0,495,295Z" style="fill:#263238"></path><path d="M494.85,291.78c.13.13.9-.46,2-.48s1.92.51,2,.38-.08-.3-.44-.55a2.78,2.78,0,0,0-1.64-.47,2.66,2.66,0,0,0-1.59.55C494.9,291.47,494.79,291.72,494.85,291.78Z" style="fill:#263238"></path><path d="M501.64,300.67a7.76,7.76,0,0,0-1.8-.28c-.28,0-.55-.08-.6-.27a1.44,1.44,0,0,1,.17-.84l.79-2.17a35.86,35.86,0,0,0,1.76-5.65,37.74,37.74,0,0,0-2.21,5.5c-.27.76-.52,1.48-.76,2.18a1.65,1.65,0,0,0-.12,1.11.69.69,0,0,0,.47.4,2.24,2.24,0,0,0,.48.06A6.51,6.51,0,0,0,501.64,300.67Z" style="fill:#263238"></path><path d="M501.14,313.77a20.37,20.37,0,0,0,10.67-3.08s-2.75,5.61-10.78,5Z" style="fill:#6f4439"></path><path d="M504.91,301.37c-.18,0-.16,1.2-1.17,2.07s-2.29.76-2.3.93.29.23.83.23a3,3,0,0,0,1.92-.71,2.55,2.55,0,0,0,.9-1.73C505.13,301.66,505,301.37,504.91,301.37Z" style="fill:#263238"></path><path d="M495,289.57c.19.27,1,.07,2,.13s1.81.31,2,.06,0-.38-.36-.64a2.93,2.93,0,0,0-1.62-.54,3,3,0,0,0-1.65.38C495.08,289.19,495,289.44,495,289.57Z" style="fill:#263238"></path><path d="M507.39,295.22a1,1,0,0,1-1,1,1,1,0,0,1-1.05-.94,1,1,0,0,1,1-1A1,1,0,0,1,507.39,295.22Z" style="fill:#263238"></path><path d="M509.8,291.87c-.13.13-.9-.46-2-.47s-1.92.52-2,.38.08-.3.44-.55a2.75,2.75,0,0,1,1.63-.47,2.67,2.67,0,0,1,1.59.54C509.75,291.57,509.86,291.81,509.8,291.87Z" style="fill:#263238"></path><path d="M509.26,288.31c-.22.25-1.07,0-2.1-.06s-1.89.14-2.09-.13.06-.37.44-.61a3.19,3.19,0,0,1,1.71-.38,3.13,3.13,0,0,1,1.66.54C509.24,287.93,509.36,288.19,509.26,288.31Z" style="fill:#263238"></path><path d="M517,298.35c0-.59.65-2,1.23-2.12,1.57-.27,4.41-.2,4.51,3.79.15,5.46-5.36,4.48-5.38,4.32S517,300.41,517,298.35Z" style="fill:#ae7461"></path><path d="M518.79,302.31s.09.06.26.13a1,1,0,0,0,.71,0,2.36,2.36,0,0,0,1-2.14,3.13,3.13,0,0,0-.3-1.36,1.12,1.12,0,0,0-.74-.71.47.47,0,0,0-.55.28c-.07.15,0,.26-.06.27s-.12-.09-.08-.31a.64.64,0,0,1,.2-.35.76.76,0,0,1,.53-.16,1.34,1.34,0,0,1,1,.82,3.25,3.25,0,0,1,.37,1.52,2.46,2.46,0,0,1-1.32,2.39,1,1,0,0,1-.88-.12C518.8,302.44,518.77,302.32,518.79,302.31Z" style="fill:#6f4439"></path><path d="M518.43,296.26,517,297.64c-5.78-5.93-17-20.66-16.34-19.78a17.47,17.47,0,0,1,8.58-.63c4.41.91,12.77,3.43,12.45,8.67A27.44,27.44,0,0,1,518.43,296.26Z" style="fill:#263238"></path><path d="M526.38,295.33a1.14,1.14,0,0,0-.07-.32,5.69,5.69,0,0,0-.34-.87,7.89,7.89,0,0,0-2.19-2.64,14.79,14.79,0,0,0-4.51-2.37c-1.8-.65-3.84-1.19-5.82-2.12a27.22,27.22,0,0,1-5.28-3.2,27.91,27.91,0,0,1-3.68-3.46,30.4,30.4,0,0,1-2.11-2.68l-.52-.77a1.66,1.66,0,0,0-.19-.26,1.56,1.56,0,0,0,.14.29c.11.18.26.46.48.8a25.69,25.69,0,0,0,2,2.75A27.27,27.27,0,0,0,508,284a26.16,26.16,0,0,0,5.32,3.25,59.7,59.7,0,0,0,5.86,2.12,15.05,15.05,0,0,1,4.47,2.27,8.22,8.22,0,0,1,2.21,2.54C526.25,294.9,526.35,295.34,526.38,295.33Z" style="fill:#455a64"></path><path d="M524.77,296.13a2.89,2.89,0,0,0-.17-1.2,5.6,5.6,0,0,0-2-2.63,12.33,12.33,0,0,0-4.48-1.94,26.88,26.88,0,0,1-5.59-2,23.78,23.78,0,0,1-4.93-3.29,24.11,24.11,0,0,1-3.33-3.51,26.77,26.77,0,0,1-1.84-2.72l-.43-.77a1.34,1.34,0,0,0-.17-.27,1,1,0,0,0,.12.29l.39.81a21.48,21.48,0,0,0,1.77,2.78,23.42,23.42,0,0,0,8.29,6.93,26.59,26.59,0,0,0,5.65,2,12.4,12.4,0,0,1,4.43,1.84,5.62,5.62,0,0,1,2,2.52A7,7,0,0,1,524.77,296.13Z" style="fill:#455a64"></path><path d="M430.86,284.77a33.78,33.78,0,0,0-9.33,15c-2.48,9.07-1.06,34.94-4.77,43.18s-21,38.86-21.33,45.54,1.27,9.34,5,15.71,11.75,16.25,17.88,16.37,7.9-5.81,7.9-5.81L415.7,394l13.78-34.36L439,321.77l4.29-18.67Z" style="fill:#263238"></path><path d="M405.74,389.39s-3.62,5.9-.45,11.13,12.29,20.56,17.2,18.74,7-4.72,6.54-5.33-3.66-13.06-2.14-24.78,13.25-56.4,15.95-66.75,4.1-30.26.06-37.47-12-.16-12-.16,5.74,20.39,4.56,30S405.74,389.39,405.74,389.39Z" style="fill:#e0e0e0"></path><path d="M405.74,389.39s.09-.16.24-.48.38-.83.66-1.46c.58-1.3,1.42-3.19,2.5-5.64,2.16-4.94,5.29-12.13,9.13-21.21s8.45-20,13.18-32.54c.59-1.57,1.19-3.16,1.74-4.79l.86-2.46.78-2.53a21.66,21.66,0,0,0,.66-2.61,15.32,15.32,0,0,0,.33-2.71,44.52,44.52,0,0,0-.21-5.52,143.66,143.66,0,0,0-4.48-22.75l-.08.3a14.65,14.65,0,0,1,4.06-2.43,5.58,5.58,0,0,1,7.83,3.16,19.38,19.38,0,0,1,1.44,4.79,58.53,58.53,0,0,1,.74,10.3,102,102,0,0,1-.65,10.56c-.28,2.6-.68,5.17-1.18,7.69s-1.2,5-1.83,7.47q-1.92,7.41-3.77,14.6c-2.44,9.57-4.76,18.82-6.84,27.66-1,4.42-2,8.74-2.89,13a66.23,66.23,0,0,0-1.69,12.42,68.32,68.32,0,0,0,.75,11.69q.41,2.79,1,5.43a18.29,18.29,0,0,0,.75,2.61c.21.28,0,.64-.23,1a6.08,6.08,0,0,1-.8,1,14,14,0,0,1-4.11,2.71,4.64,4.64,0,0,1-2.2.63,4.86,4.86,0,0,1-2.1-.77,17.82,17.82,0,0,1-3.37-2.9c-1-1.06-1.88-2.15-2.71-3.22a130.91,130.91,0,0,1-7.75-11.63,9.17,9.17,0,0,1-1.43-4.77,12.45,12.45,0,0,1,.5-3.67,16.65,16.65,0,0,1,.81-2.14c.22-.47.34-.71.34-.71a11.23,11.23,0,0,0-1.26,2.81,12.15,12.15,0,0,0-.57,3.71,9.39,9.39,0,0,0,1.41,4.89A127.27,127.27,0,0,0,413,412.51c.83,1.08,1.72,2.19,2.71,3.26a18.06,18.06,0,0,0,3.43,3,5.19,5.19,0,0,0,2.27.84,4.56,4.56,0,0,0,.64,0,3.74,3.74,0,0,0,.62-.17c.38-.15.76-.29,1.14-.47a14.39,14.39,0,0,0,4.24-2.78,6.54,6.54,0,0,0,.86-1,3.1,3.1,0,0,0,.32-.63,1,1,0,0,0,.06-.41.52.52,0,0,0-.08-.25l-.06-.14a20.71,20.71,0,0,1-.7-2.51c-.39-1.74-.72-3.55-1-5.39a69.66,69.66,0,0,1-.71-11.61,65.6,65.6,0,0,1,1.71-12.33c.87-4.21,1.87-8.52,2.91-12.94,2.1-8.83,4.42-18.08,6.87-27.65L442,326.68c.63-2.47,1.34-4.95,1.84-7.5s.91-5.13,1.19-7.75a102.76,102.76,0,0,0,.65-10.62,58.92,58.92,0,0,0-.75-10.4,20.27,20.27,0,0,0-1.49-4.94,6.16,6.16,0,0,0-8.56-3.45,15.42,15.42,0,0,0-4.24,2.54l-.13.11,0,.18a144,144,0,0,1,4.49,22.64c1.31,7.47-1.94,14.13-4.09,20.4-4.69,12.54-9.28,23.47-13.05,32.57s-6.87,16.29-9,21.27c-1,2.47-1.85,4.37-2.41,5.68-.27.64-.47,1.13-.61,1.47S405.74,389.39,405.74,389.39Z" style="fill:#263238"></path><rect x="152.68" y="362.3" width="532.26" height="74.44" transform="translate(837.62 799.04) rotate(180)" style="fill:#062D28"></rect><g style="opacity:0.4"><rect x="152.68" y="362.3" width="532.26" height="74.44" transform="translate(837.62 799.04) rotate(180)"></rect></g><path d="M539.46,288.09a33.88,33.88,0,0,0-9.33,15c-2.47,9.07-1.06,34.94-4.77,43.19s-21,38.85-21.33,45.53,1.27,9.35,5,15.71,11.76,16.25,17.89,16.37,7.89-5.81,7.89-5.81L524.3,397.33,538.08,363l9.53-37.88,4.29-18.67Z" style="fill:#263238"></path><path d="M514.35,392.71s-3.62,5.9-.46,11.13,12.29,20.56,17.21,18.74,7-4.72,6.54-5.32-3.66-13.07-2.15-24.79,13.26-56.4,16-66.74,4.1-30.27.06-37.47-12-.17-12-.17,5.75,20.4,4.56,30S514.35,392.71,514.35,392.71Z" style="fill:#e0e0e0"></path><path d="M514.35,392.71l.24-.48c.15-.35.37-.83.66-1.45.57-1.31,1.41-3.2,2.5-5.65,2.16-4.93,5.29-12.13,9.13-21.21s8.44-20,13.17-32.54c.6-1.56,1.19-3.16,1.75-4.79.28-.81.57-1.63.85-2.46l.78-2.52a20.49,20.49,0,0,0,.66-2.62,14.34,14.34,0,0,0,.33-2.7,46.62,46.62,0,0,0-.2-5.53A144.68,144.68,0,0,0,539.74,288l-.09.29a14.56,14.56,0,0,1,4.07-2.43,5.59,5.59,0,0,1,7.83,3.17,19.11,19.11,0,0,1,1.43,4.79,57.41,57.41,0,0,1,.74,10.29,101.92,101.92,0,0,1-.64,10.56c-.28,2.6-.68,5.17-1.19,7.69s-1.19,5-1.83,7.47q-1.9,7.42-3.77,14.6c-2.44,9.58-4.75,18.82-6.83,27.67-1,4.42-2,8.73-2.89,12.95a66.26,66.26,0,0,0-1.7,12.43,70.36,70.36,0,0,0,.75,11.68c.28,1.86.62,3.68,1,5.43a19.83,19.83,0,0,0,.75,2.62c.22.27,0,.64-.22,1a6.08,6.08,0,0,1-.8,1,14.1,14.1,0,0,1-4.11,2.71,4.81,4.81,0,0,1-2.21.64,5,5,0,0,1-2.1-.78,17.11,17.11,0,0,1-3.36-2.9c-1-1.06-1.89-2.15-2.72-3.22A128.39,128.39,0,0,1,514.13,404a9.19,9.19,0,0,1-1.44-4.77,12.14,12.14,0,0,1,.51-3.67,14.09,14.09,0,0,1,.81-2.14c.21-.47.34-.71.34-.71a11,11,0,0,0-1.27,2.82,12.06,12.06,0,0,0-.56,3.7,9.27,9.27,0,0,0,1.41,4.89,125.59,125.59,0,0,0,7.68,11.71c.83,1.08,1.72,2.19,2.72,3.26a17.42,17.42,0,0,0,3.43,3,5.19,5.19,0,0,0,2.27.84,3.45,3.45,0,0,0,.64,0,3.91,3.91,0,0,0,.61-.17c.38-.15.77-.29,1.14-.47a14.26,14.26,0,0,0,4.24-2.78,5.67,5.67,0,0,0,.86-1,2.49,2.49,0,0,0,.32-.63,1,1,0,0,0,.06-.4.68.68,0,0,0-.07-.26l-.06-.13a21.41,21.41,0,0,1-.7-2.52q-.6-2.61-1-5.39a68.59,68.59,0,0,1-.72-11.61,65.75,65.75,0,0,1,1.72-12.33c.86-4.21,1.86-8.52,2.91-12.94,2.09-8.83,4.41-18.08,6.87-27.65q1.85-7.17,3.77-14.59c.63-2.47,1.34-4.94,1.84-7.5s.91-5.13,1.19-7.74a100.37,100.37,0,0,0,.65-10.62,58,58,0,0,0-.75-10.41,19.84,19.84,0,0,0-1.49-4.94,6.87,6.87,0,0,0-3.54-3.67,6.8,6.8,0,0,0-5,.23,15,15,0,0,0-4.23,2.53l-.14.11.05.18a144,144,0,0,1,4.49,22.64c1.32,7.47-1.94,14.13-4.08,20.4-4.7,12.54-9.29,23.47-13.05,32.57l-9,21.27-2.42,5.69c-.26.63-.47,1.12-.61,1.47A5.23,5.23,0,0,0,514.35,392.71Z" style="fill:#263238"></path><path d="M710.8,364.14s-2.19-20.56-3.17-23.16-4.88-8.07-4.88-8.07V309.75c2.93-2.87,3.42-5.21,3.42-5.21.54-1.39-34.64-5.2-34.64-5.2s-80.25-25.77-96.84-30.71-91.23-12-91.23-12c-55.86-7.1-93.92-2.45-133.46,11.44-23.07,8.11-117.29,58-117.29,58l-9.52.78s-29.37,4.16-36,4.94c-10.9,1.29-50.14,16.4-65.27,26a89.41,89.41,0,0,0-19.12,16.49,16.77,16.77,0,0,0-4,11v30.79c-.73,10.93,26.59,32.53,26.59,32.53H159V430h1c-.11-1.48-.18-3-.18-4.48,0-30.61,22.85-55.42,51-55.42s51,24.81,51,55.42c0,1.51-.07,3-.18,4.48l-.2,18.74h292l.11-25.25c1-29.66,23.43-53.39,51-53.39s50,23.73,51,53.39L655.56,443s37.44-5.69,42.07-9.59,23.69-29.93,23.69-36.69S710.8,364.14,710.8,364.14ZM431,323.07l-116,8.79L297.06,306S342,278.73,381.5,270.49c40.07-8.35,60.33-6.09,60.33-6.09Zm25.82,0s3.65-55.63,5.1-57.58,107.57,12.45,110.12,14,15.68,28,16,29.18Z" style="fill:#062D28"></path><path d="M157.29,396.67l.27-.46c.18-.31.42-.78.79-1.37.69-1.21,1.8-2.95,3.32-5.14a78,78,0,0,1,6.15-7.59,63.92,63.92,0,0,1,9.67-8.69A52.16,52.16,0,0,1,191.41,366a57,57,0,0,1,18-2.94A75.68,75.68,0,0,1,230,365.38a61.73,61.73,0,0,1,10.62,3.69,47.12,47.12,0,0,1,10.15,6l.1.07H251L328.35,367l71.88-7.64,2.06-.22,2.06-.11,4.07-.21,8-.37,15.29-.59c9.87-.32,19.06-.52,27.45-.65,16.79-.26,30.38-.29,39.77-.34l10.81-.07,2.81,0,1,0s-.33,0-1,0l-2.81,0-10.81-.06c-9.39,0-23-.06-39.77.13-8.4.1-17.59.28-27.46.57q-7.41.22-15.3.56l-8,.36-4.08.2-2.06.11-2.07.22-71.89,7.58-77.36,8.22.21.06a48.23,48.23,0,0,0-10.3-6.07,62.92,62.92,0,0,0-10.71-3.69,76.2,76.2,0,0,0-20.7-2.3,57.28,57.28,0,0,0-18.15,3,52.29,52.29,0,0,0-14,7.56,63.68,63.68,0,0,0-9.67,8.79,75.1,75.1,0,0,0-6.1,7.67c-1.5,2.21-2.59,4-3.26,5.2S157.29,396.67,157.29,396.67Z" style="fill:#263238"></path><g style="opacity:0.2"><path d="M98.79,394.33l21.54-8.2,2.57,12.49,34.39-1.95s15.14-30.86,46.1-33.57C229.9,360.77,251,374.84,251,374.84l151.48-16s76.84-3.12,106.48-2.73,55.76,23.37,55.76,23.37,8.74-13.53,39.74-13.84,43.92,19.11,43.92,19.11a123.19,123.19,0,0,0,60.43-26.59l1.51,1.29c.31,2.77.52,4.73.52,4.73s10.52,25.76,10.52,32.53-19.05,32.79-23.69,36.69S655.56,443,655.56,443l.07-19.48c-1-29.66-23.43-53.39-51-53.39s-50,23.73-51,53.39l-.11,25.25h-292l.2-18.74c.11-1.48.18-3,.18-4.48,0-30.61-22.84-55.42-51-55.42s-51,24.81-51,55.42c0,1.51.07,3,.18,4.48h-1v18.74H125.38s-27.32-21.6-26.59-32.53V394.33Z"></path></g><path d="M618.36,301l-28.7-22a7.61,7.61,0,0,0-3.62-1.52c-60.94-8.52-108.1-16-132.67-16.92-81.19-4.75-135.57,30.06-143.32,34s-40.77,23.67-48.23,31.33c-3.73,3.83-3.16,7.2-1.65,9.61a8,8,0,0,0,7.27,3.67l177.82-10.52L591.1,311.47l25.66-3.65C619.94,307.37,621,303,618.36,301ZM431,323.07l-116,8.79L297.06,306S342,278.73,381.5,270.49c40.07-8.35,60.33-6.09,60.33-6.09Zm25.82,0s3.65-55.63,5.1-57.58,107.57,12.45,110.12,14,15.68,28,16,29.18Z" style="fill:#263238"></path><polygon points="547.6 275.45 548.52 314.28 543.05 314.28 543.05 274.8 547.6 275.45" style="fill:#263238"></polygon><path d="M292.61,304.6s-.1.19-.27.59l-.75,1.76c-.32.78-.77,1.73-1.19,2.9l-1.49,4.08a144.62,144.62,0,0,0-6.23,27.78,239.09,239.09,0,0,0-1.3,44.27c.48,8.54,1.35,17.6,2.71,27.07.68,4.74,1.47,9.58,2.46,14.5a24.48,24.48,0,0,0,.94,3.7,28,28,0,0,0,1.67,3.44,75,75,0,0,0,4.1,6.48l.08.12h.14L414,438.94l65.79-1.61c10.46-.22,20.63-.44,30.45-.51,1.22,0,2.45,0,3.66,0s2.42,0,3.66,0a17.81,17.81,0,0,0,6.95-2.09,24.71,24.71,0,0,0,5.78-4.37,30.18,30.18,0,0,0,4.48-5.65v0c11.23-16.5,21.37-31.75,30.25-45.35,4.42-6.82,8.56-13.21,12.28-19.19s7.11-11.49,10-16.61a70.42,70.42,0,0,0,3.77-7.44c.24-.62.48-1.22.71-1.82s.36-1.22.54-1.81.37-1.18.47-1.77.2-1.18.3-1.75a27.32,27.32,0,0,0-3.6-18.27,14.79,14.79,0,0,0-1.42-2l.35.5c.24.33.58.84,1,1.54a27.44,27.44,0,0,1,3.44,18.18c-.1.57-.2,1.14-.31,1.73s-.31,1.15-.47,1.75-.31,1.2-.54,1.79-.47,1.19-.71,1.8a72.14,72.14,0,0,1-3.79,7.39c-2.87,5.09-6.27,10.6-10,16.56s-7.89,12.33-12.32,19.14c-8.91,13.58-19.08,28.8-30.33,45.28h0v0a27.82,27.82,0,0,1-10.05,9.79,17.34,17.34,0,0,1-6.74,2c-1.18.06-2.39.06-3.61,0s-2.45,0-3.68,0c-9.82.07-20,.28-30.46.49L414,438.28,293.47,440.7l.22.12c-1.46-2.09-2.85-4.23-4.08-6.42A28.88,28.88,0,0,1,288,431a22.32,22.32,0,0,1-.91-3.6c-1-4.91-1.8-9.74-2.49-14.47-1.37-9.45-2.26-18.5-2.75-27a240.45,240.45,0,0,1,1.17-44.2A147.84,147.84,0,0,1,289.07,314c.54-1.54,1-2.9,1.44-4.08s.85-2.14,1.16-2.93.55-1.36.71-1.77S292.61,304.6,292.61,304.6Z" style="fill:#263238"></path><path d="M443,328.76a5.24,5.24,0,0,0-.3,1.09c-.17.73-.38,1.82-.6,3.22-.43,2.82-.88,6.91-1.17,12-.64,10.16-.38,24.23-.19,39.74s.55,29.57.82,39.74c.15,5,.27,9.13.35,12,.06,1.38.1,2.47.14,3.27,0,.35,0,.62.05.86s0,.29,0,.28a1.51,1.51,0,0,0,0-.29c0-.23,0-.51,0-.85,0-.8,0-1.9,0-3.27,0-2.91-.1-7-.17-12.05-.16-10.22-.39-24.24-.64-39.73s-.51-29.56,0-39.71c.23-5.07.62-9.16,1-12,.18-1.4.35-2.49.48-3.23.06-.33.1-.61.14-.83A.92.92,0,0,0,443,328.76Z" style="fill:#263238"></path><g style="opacity:0.2"><path d="M533.06,400s-54.2,24.31-64,26.6-168.67,3.6-168.67,3.6l-3.28-7.56,165.75-1.17S529.4,394.88,533.06,400Z"></path></g><path d="M564.68,379.44a2,2,0,0,0,.28-.27c.18-.19.47-.46.84-.82a37.4,37.4,0,0,1,3.49-2.77,51,51,0,0,1,6-3.49,61.23,61.23,0,0,1,8.58-3.25,71.87,71.87,0,0,1,10.84-2.23c2-.32,4-.41,6.13-.6,1.06-.1,2.13-.05,3.22-.08s2.18-.08,3.3,0a64.32,64.32,0,0,1,27.83,7.83A58.35,58.35,0,0,1,646,381.17l.26.22.19-.28c5.17-7.61,10-14.81,14.14-21.43s7.7-12.63,10.57-17.7,5.09-9.17,6.62-12l1.74-3.26c.18-.35.32-.63.43-.86a1.1,1.1,0,0,0,.13-.29,1.38,1.38,0,0,0-.18.26c-.12.22-.28.49-.48.83-.44.76-1,1.83-1.82,3.2-1.62,2.82-3.92,6.86-6.78,11.89s-6.47,11-10.67,17.6-9,13.76-14.2,21.37l.45-.05a57.93,57.93,0,0,0-10.89-7.47,64.32,64.32,0,0,0-28.09-7.86c-1.12-.11-2.24,0-3.33,0s-2.18,0-3.24.1c-2.12.2-4.19.3-6.16.64a69.61,69.61,0,0,0-10.89,2.32,59.83,59.83,0,0,0-8.61,3.36,47.26,47.26,0,0,0-6,3.62,32,32,0,0,0-3.43,2.88c-.36.38-.63.66-.8.87A1.67,1.67,0,0,0,564.68,379.44Z" style="fill:#263238"></path><path d="M703.36,410.37a10.79,10.79,0,0,0,.45-1.86c.25-1.2.58-2.94,1-5.11.77-4.32,1.73-10.31,2.65-16.95s1.62-12.68,2.05-17.05c.22-2.19.37-4,.46-5.19a11,11,0,0,0,.07-1.91,11.63,11.63,0,0,0-.31,1.88c-.17,1.34-.39,3.08-.66,5.16-.54,4.36-1.31,10.38-2.23,17s-1.8,12.63-2.46,17l-.77,5.15A12.26,12.26,0,0,0,703.36,410.37Z" style="fill:#263238"></path><path d="M654.54,414.73a2.37,2.37,0,0,0,.62,0H657c1.54,0,3.78-.05,6.55-.15,5.53-.19,13.18-.66,21.58-1.55s16-2,21.46-3c2.73-.48,4.93-.91,6.45-1.23l1.75-.38a2.87,2.87,0,0,0,.6-.18,1.89,1.89,0,0,0-.63,0l-1.76.27-6.48,1c-5.47.85-13.05,1.91-21.45,2.8s-16,1.43-21.54,1.75l-6.54.35-1.78.12A2.34,2.34,0,0,0,654.54,414.73Z" style="fill:#263238"></path><path d="M120.33,386.13S127,369.56,126.85,369c-1-3-4.89-11.11-4.89-11.11a76.19,76.19,0,0,0-7,4.78,90.1,90.1,0,0,0-13,12.06,13.76,13.76,0,0,0-3.21,8.89V397.5Z" style="fill:#ebebeb"></path><path d="M266.31,309.37c-.13.13,1.38,2,3.12,4.47s3.08,4.48,3.23,4.38-1-2.32-2.74-4.78S266.43,309.25,266.31,309.37Z" style="fill:#263238"></path><path d="M702.75,309.75s-50.82,4.43-50.26,5.63,50.26,17.53,50.26,17.53Z" style="fill:#ebebeb"></path><path d="M702.91,333.57c.17,0,.31-5.31.31-11.86s-.13-11.86-.3-11.86-.31,5.31-.32,11.86S702.74,333.57,702.91,333.57Z" style="fill:#263238"></path><path d="M300.34,430.15s.21,0,.61,0h1.77l6.83-.09,25.09-.43,82.8-1.67L463,427l2.62-.06a23,23,0,0,0,2.6-.13,19.1,19.1,0,0,0,4.85-1.7c3.07-1.33,6.07-2.57,9-3.77,5.82-2.37,11.27-4.51,16.24-6.46,9.95-3.9,18-7.11,23.48-9.46,2.76-1.17,4.89-2.1,6.32-2.75l1.63-.75c.37-.17.55-.27.55-.27s-.2.06-.57.21l-1.66.68c-1.48.62-3.61,1.51-6.36,2.64-5.52,2.27-13.57,5.42-23.54,9.26-5,1.93-10.44,4-16.27,6.39-2.91,1.19-5.92,2.42-9,3.74a18.54,18.54,0,0,1-4.72,1.65,21,21,0,0,1-2.54.12l-2.61.05-45.58.95-82.8,1.87-25.09.64-6.82.2-1.78.08A5.77,5.77,0,0,0,300.34,430.15Z" style="fill:#263238"></path><path d="M313.76,305.59c2.19,4.79,4.58,11.86,4.14,19.19a8.83,8.83,0,0,1-8.47,8.56l-20.9.16a6.3,6.3,0,0,1-6.26-5.54,6.24,6.24,0,0,1,.53-3.4c2.17-4.72,4-3.82,4-3.82s6.33-13.93,16-19.22A8,8,0,0,1,313.76,305.59Z" style="fill:#062D28"></path><path d="M292.13,333.47c0,.09-.83-.16-1.9-1a8.3,8.3,0,0,1-3-4.39,20.54,20.54,0,0,1-.42-5.39,6.88,6.88,0,0,1,.18-2.21,6.73,6.73,0,0,1,.33,2.2,31.1,31.1,0,0,0,.61,5.19,8.94,8.94,0,0,0,2.66,4.17C291.48,333,292.18,333.37,292.13,333.47Z" style="fill:#263238"></path><path d="M290.55,317.8a9.46,9.46,0,0,1,1.16-2.89,27.32,27.32,0,0,1,4.32-6.05,25.7,25.7,0,0,1,5.69-4.55,8.51,8.51,0,0,1,2.72-1.22c.12.22-4,2.18-7.9,6.32S290.76,317.92,290.55,317.8Z" style="fill:#fff"></path><path d="M451.84,260.51a3.34,3.34,0,0,0-.18.68c-.1.52-.23,1.17-.38,2-.32,1.72-.76,4.2-1.28,7.27-1,6.14-2.39,14.63-3.7,24.05s-2.32,18-2.83,24.2c-.14,1.55-.23,3-.3,4.2s-.14,2.3-.14,3.17l0,2a3.14,3.14,0,0,0,0,.7,3.27,3.27,0,0,0,.09-.7c0-.53.08-1.19.14-2s.14-1.93.25-3.17.22-2.63.39-4.18c.62-6.19,1.69-14.73,3-24.14s2.6-17.92,3.52-24.08l1.09-7.29c.1-.8.19-1.46.27-2A3.34,3.34,0,0,0,451.84,260.51Z" style="fill:#455a64"></path><g style="opacity:0.2"><path d="M702.75,332.91,677.62,317l-.73-4.83c-9.75,1-21.6,2-24.4,3.21C652.48,316.19,683.4,326.64,702.75,332.91Z"></path></g><g style="opacity:0.2"><path d="M126.85,369l-13.43,12.17-14.63,2.45V397.5l21.55-11.37C123,379.53,125.41,373.36,126.85,369Z"></path></g><path d="M127,369a1.55,1.55,0,0,0,.34-.12l1-.43,3.72-1.69,13.69-6.25c5.78-2.61,12.68-5.71,20.4-9,3.87-1.59,7.94-3.31,12.25-4.62,2.17-.59,4.45-.94,6.75-1.36l7-1.18c19-3.09,36.15-5.7,48.59-7.65l14.72-2.31,4-.65,1-.19.35-.09-.36,0-1.05.12-4,.54-14.75,2.1c-12.46,1.83-29.66,4.36-48.63,7.45l-7,1.19c-2.3.42-4.58.78-6.8,1.38-4.38,1.35-8.43,3.08-12.31,4.68-7.72,3.29-14.6,6.43-20.37,9.1s-10.4,4.89-13.6,6.44l-3.68,1.81-.95.49A1.34,1.34,0,0,0,127,369Z" style="fill:#263238"></path><ellipse cx="604.93" cy="427.42" rx="47.55" ry="50.73" style="fill:#263238"></ellipse><path d="M652.47,426.56s0,.09,0,.13c.38,28-20.6,51.05-46.86,51.46s-47.85-22-48.23-50V428Z" style="fill:#263238"></path><path d="M638.31,426.91c.27,19.67-14.46,35.84-32.89,36.13s-33.6-15.44-33.86-35.1,14.46-35.85,32.89-36.13S638.05,407.24,638.31,426.91Z" style="fill:#fafafa"></path><path d="M604.45,391.81c18.44-.28,33.6,15.43,33.86,35.1l-66.75,1C571.29,408.27,586,392.09,604.45,391.81Z" style="fill:#e0e0e0"></path><path d="M625.27,427.11c.16,12-8.81,21.83-20,22s-20.47-9.4-20.63-21.38,8.81-21.84,20-22S625.11,415.13,625.27,427.11Z" style="fill:#263238"></path><ellipse cx="211.43" cy="427.42" rx="47.55" ry="50.73" style="fill:#263238"></ellipse><path d="M259,426.56s0,.09,0,.13c.38,28-20.6,51.05-46.86,51.46s-47.85-22-48.23-50c0,0,0-.08,0-.13Z" style="fill:#263238"></path><path d="M244.81,426.91c.26,19.67-14.47,35.84-32.9,36.13s-33.6-15.44-33.86-35.1,14.46-35.85,32.9-36.13S244.54,407.24,244.81,426.91Z" style="fill:#fafafa"></path><path d="M211,391.81c18.43-.28,33.59,15.43,33.86,35.1l-66.76,1C177.78,408.27,192.51,392.09,211,391.81Z" style="fill:#e0e0e0"></path><path d="M231.76,427.11c.16,12-8.81,21.83-20,22s-20.46-9.4-20.63-21.38,8.81-21.84,20-22S231.6,415.13,231.76,427.11Z" style="fill:#263238"></path><path d="M391,313.22c.08-.16-8.73-5.07-19.67-11s-19.88-10.55-20-10.39,8.73,5.08,19.68,11S390.92,313.39,391,313.22Z" style="fill:#fff"></path><path d="M403.27,311.94c.08-.16-8.29-5-18.68-10.85s-18.9-10.43-19-10.27,8.29,5,18.69,10.85S403.19,312.1,403.27,311.94Z" style="fill:#fff"></path><path d="M98.78,397.5a13.25,13.25,0,0,0,.12-2c0-1.41.06-3.24.1-5.45s0-5.07.13-8.05,2.31-5.68,4.33-8.36a44.57,44.57,0,0,1,6.73-6.68c2.24-1.86,4.32-3.46,6.07-4.79l4.19-3.11a11.18,11.18,0,0,0,1.51-1.18,9.58,9.58,0,0,0-1.64,1c-1,.66-2.51,1.65-4.3,2.93s-3.91,2.85-6.18,4.7a42.49,42.49,0,0,0-6.85,6.74,37.1,37.1,0,0,0-2.87,4.15A10.65,10.65,0,0,0,98.56,382c-.1,3.09,0,5.79,0,8.1s.07,4,.1,5.45A10.54,10.54,0,0,0,98.78,397.5Z" style="fill:#263238"></path></g><g id="freepik--character-1--inject-5"><path d="M141.86,245.7a3.27,3.27,0,0,1-3-1.3,4,4,0,0,0,2.33-.12c.7-.34,1.1-1.34.55-1.88s-1.14-.35-1.76-.39a3.8,3.8,0,0,1-3.24-2.37c-.52-1.43,0-3,.15-4.5a12.18,12.18,0,0,0-5.44-11.44l-9.87-5.45c-3.58,4.38-4.7,10.28-4,15.79s3.19,10.69,6.14,15.48a18.23,18.23,0,0,0,3,3.91,7.74,7.74,0,0,0,4.43,2.18,4.18,4.18,0,0,0-.73-4,10.3,10.3,0,0,0,7.35-2.51l-2.12-1.55A8,8,0,0,0,141.86,245.7Z" style="fill:#263238"></path><path d="M106.7,230.58c.18-3.94-.13-7.5,3.84-8.59l12.39-3.37c5.37-.71,9.16,5.53,9.66,10.68.57,5.73,1,11.78.42,16.08-1.16,8.66-8,10-8,10s-.83,7.32-.76,9.83L119,278.22,108,262,106.7,230.7C106.38,230.7,106.69,230.77,106.7,230.58Z" style="fill:#ffbf9d"></path><path d="M130.85,236.44a1.12,1.12,0,0,1-1.08,1.14,1.08,1.08,0,0,1-1.22-1,1.12,1.12,0,0,1,1.08-1.14A1.08,1.08,0,0,1,130.85,236.44Z" style="fill:#263238"></path><path d="M131.34,232.71c-.14.15-1-.44-2.28-.4s-2.14.66-2.28.52.07-.33.46-.62a3.27,3.27,0,0,1,1.82-.59,3.11,3.11,0,0,1,1.82.5C131.27,232.39,131.41,232.65,131.34,232.71Z" style="fill:#263238"></path><path d="M120.6,236.44a1.12,1.12,0,0,1-1.08,1.14,1.09,1.09,0,0,1-1.23-1,1.12,1.12,0,0,1,1.08-1.14A1.09,1.09,0,0,1,120.6,236.44Z" style="fill:#263238"></path><path d="M119.52,233c-.14.15-1-.44-2.28-.4s-2.14.66-2.28.52.07-.33.46-.62a3.35,3.35,0,0,1,1.82-.59,3.13,3.13,0,0,1,1.82.5C119.45,232.71,119.59,233,119.52,233Z" style="fill:#263238"></path><path d="M123.69,242.26a8.28,8.28,0,0,1,2-.41c.32,0,.62-.11.66-.31a1.45,1.45,0,0,0-.24-.9l-1-2.28a40.11,40.11,0,0,1-2.31-6,38,38,0,0,1,2.81,5.79l1,2.3a1.72,1.72,0,0,1,.21,1.18.8.8,0,0,1-.51.46,1.9,1.9,0,0,1-.54.09A8.34,8.34,0,0,1,123.69,242.26Z" style="fill:#263238"></path><path d="M112.92,252.6s2.79,6.3,11.79,5.23l.27-2.5A23.64,23.64,0,0,1,112.92,252.6Z" style="fill:#ff9a6c"></path><path d="M119,229.2c-.11.33-1.36.21-2.81.42s-2.63.63-2.83.34c-.09-.13.11-.44.57-.77a4.85,4.85,0,0,1,2.08-.76,4.94,4.94,0,0,1,2.22.18C118.77,228.8,119.05,229.05,119,229.2Z" style="fill:#263238"></path><path d="M130.83,229.09c-.21.27-1.08,0-2.11,0s-1.9.23-2.11,0,0-.41.41-.68a3.19,3.19,0,0,1,3.4,0C130.79,228.68,130.92,229,130.83,229.09Z" style="fill:#263238"></path><path d="M119,244.58a1.62,1.62,0,0,1,1.65-1.22,1.71,1.71,0,0,1,1.33.85,2,2,0,0,1,.12,1.55l0,.11a1.9,1.9,0,0,1-2.07.48A1.64,1.64,0,0,1,119,244.58Z" style="fill:#ff9a6c"></path><path d="M123,245.87c0-.18-1.26-.09-2.24-1.05s-.94-2.25-1.12-2.24-.22.3-.19.84a3,3,0,0,0,.86,1.88,2.76,2.76,0,0,0,1.87.8C122.71,246.11,123,246,123,245.87Z" style="fill:#263238"></path><path d="M108,216.6a12.58,12.58,0,0,1,7.26-4.75c2.94-.49,4.71,0,6.64,1.67a7.32,7.32,0,0,0,2.91,1.65c1.41.26,2.58,0,4.26.86,2.3,1.12,3.3,4.05,4.37,6.29,1.32,2.79,3.2,5.35,4.06,8.3s.41,6.56-2.19,8.35c.44-2.26.81-4.74-.16-6.78a5.6,5.6,0,0,1-.16,2.44,10,10,0,0,0-2-3.71c-1-1-2.27-1.55-3.25-2.49-1.44-1.37-2.1-3.48-3.85-4.48s-4.12-.52-6.24-.51a12.17,12.17,0,0,1-9.29-4.27l.52,0A14.66,14.66,0,0,1,108,216.6Z" style="fill:#263238"></path><path d="M94.73,237.66c.81-2.53,2.23-4.85,3.12-7.35s1.22-5.06,2.37-7.39c1.55-3.14,4.44-7.21,9-7l.3.25a10.18,10.18,0,0,1,4.55.52l.06,3.36.87.72c-.36.67-.71,1.31-1,1.94a19.73,19.73,0,0,1-1.15,3.69,17.42,17.42,0,0,0-.16,4c0,2.9-2.09,6.07-5,6.48,0,0-.17,11.45.23,21l-3.65-5.18a10.65,10.65,0,0,1-4.35-4.47l-.39,1.84a10.44,10.44,0,0,1-3-6.6c-.33.59-.67,1.18-1,1.77C93.81,243.14,93.92,240.2,94.73,237.66Z" style="fill:#263238"></path><path d="M108,237c-.12-.29-5.73-2.05-5.63,3.58s5.84,4.25,5.85,4.09S108,237,108,237Z" style="fill:#ffbf9d"></path><path d="M106.38,242.65s-.1.06-.27.14a1,1,0,0,1-.75,0,2.34,2.34,0,0,1-1.18-2.1,2.92,2.92,0,0,1,.25-1.37,1.11,1.11,0,0,1,.74-.74.49.49,0,0,1,.59.25c.08.15,0,.26.08.27s.12-.1.07-.32a.65.65,0,0,0-.23-.34.75.75,0,0,0-.56-.13,1.4,1.4,0,0,0-1,.87,3.16,3.16,0,0,0-.31,1.53,2.48,2.48,0,0,0,1.5,2.34,1.12,1.12,0,0,0,.91-.16C106.37,242.78,106.4,242.66,106.38,242.65Z" style="fill:#ff9a6c"></path><path d="M104.48,244.46a1.16,1.16,0,0,1,1.27-.83l.27.08a1.09,1.09,0,0,1,.62,1.35,1.18,1.18,0,0,1-1.37.67A1.1,1.1,0,0,1,104.48,244.46Z" style="fill:#455a64"></path><path d="M114.49,222.16a15.71,15.71,0,0,0-2.24-3.53,16.33,16.33,0,0,0-3.37-2.6,3.24,3.24,0,0,1,1.21.46,9.3,9.3,0,0,1,2.45,1.9,8.63,8.63,0,0,1,1.63,2.57A3,3,0,0,1,114.49,222.16Z" style="fill:#455a64"></path><path d="M163.64,235.37l-2.89,8.13-1,1.36s-.88,4.52-.93,5.49a48.39,48.39,0,0,0,1.26,6l-2.94,4.5,8.14,3s2.2-4.11,2.82-4.58a4.92,4.92,0,0,0,1.2-2.7c.14-.9,1.36-6.23,1.36-6.23s3.61-5.89,2.1-6.19a5.33,5.33,0,0,0-1.13,0s-2.17,3.88-2.75,4l-.82-.46s1.69-5.92,1.78-7-.15-1.89-1-2c0,0-.67.26-.73.54s-1.75,6.89-2.14,6.77-.2-.73-.2-.73,2.26-8,2.15-8.47a1.3,1.3,0,0,0-1.35-1.1l-1.72,4.4s.8-3.7.18-4.37A1.13,1.13,0,0,0,163.64,235.37Z" style="fill:#ffbf9d"></path><path d="M165.37,253.36c-.07,0,0-.69-.3-1.79a6.91,6.91,0,0,0-2.53-3.74l-.11-.09,0-.12.44-1.84v0l0,0a6.45,6.45,0,0,0,.42-.64,6.81,6.81,0,0,0,.94-2.34,2.39,2.39,0,0,0,0-1.1.83.83,0,0,0-.62-.6l.14-.05c-1,.89-1.79,1.62-2.37,2.13a5.69,5.69,0,0,1-.95.75,4.65,4.65,0,0,1,.8-.9c.54-.54,1.31-1.31,2.26-2.22l.06-.06h.08a1.18,1.18,0,0,1,1,.83,2.87,2.87,0,0,1,.05,1.27,7.19,7.19,0,0,1-1,2.49,8,8,0,0,1-.45.68l0-.08-.46,1.84-.08-.2a6.76,6.76,0,0,1,2.54,4,5.68,5.68,0,0,1,.11,1.37A1.43,1.43,0,0,1,165.37,253.36Z" style="fill:#ff9a6c"></path><path d="M165.36,246.78a6,6,0,0,1,2.59,1.08,5.7,5.7,0,0,1,2.05,1.85,26.39,26.39,0,0,1-2.29-1.51A25.8,25.8,0,0,1,165.36,246.78Z" style="fill:#ff9a6c"></path><path d="M125,262.59c.23,0,23.16,12.93,23.16,12.93l9.05-19.91,13,4S161.82,283.77,160,286.8c-1.45,2.43-7.08,6.39-13,4.73s-16-4.37-16-4.37Z" style="fill:#062D28"></path><path d="M93.53,449.88l-.2,22.32,29.08.38c-.13-2.65-15.1-8.18-15.1-8.18l.75-14.29Z" style="fill:#455a64"></path><path d="M98.33,463.08a1.07,1.07,0,1,0,.49,2.09,1.08,1.08,0,1,0-.59-2.05" style="fill:#fff"></path><path d="M93.32,472.25v-2.39l28,1.38s1.28.57,1.12,1.44Z" style="fill:#263238"></path><path d="M107.78,464.27c0,.13-.71.19-1.42.61s-1.08,1-1.21.94.09-.84.95-1.34S107.82,464.14,107.78,464.27Z" style="fill:#263238"></path><path d="M110.82,465.51c0,.14-.59.36-1.08.93s-.64,1.17-.78,1.16-.22-.78.4-1.47S110.82,465.38,110.82,465.51Z" style="fill:#263238"></path><path d="M112.5,469c-.13,0-.32-.65.06-1.39s1-1,1.1-.91-.36.51-.66,1.12S112.64,469,112.5,469Z" style="fill:#263238"></path><path d="M107.58,461c-.07.13-.71-.07-1.52,0s-1.43.28-1.5.16.53-.59,1.48-.63S107.65,460.89,107.58,461Z" style="fill:#263238"></path><path d="M80.26,432.16,65.67,449.61l22.64,17.44c1.61-2.17-6.6-15.34-6.6-15.34l9.83-10.81Z" style="fill:#455a64"></path><path d="M75.5,445.38a1.22,1.22,0,0,0-1.49.52,1.07,1.07,0,0,0,.52,1.41,1.27,1.27,0,0,0,1.58-.55,1.11,1.11,0,0,0-.71-1.41" style="fill:#fff"></path><path d="M65.64,449.65l1.55-1.88,21.1,17.56s.65,1.2,0,1.79Z" style="fill:#263238"></path><path d="M82.17,451.89c-.09.1-.68-.28-1.51-.36s-1.5.14-1.57,0,.62-.6,1.62-.49S82.28,451.81,82.17,451.89Z" style="fill:#263238"></path><path d="M83.75,454.65c-.06.13-.69-.06-1.44.09s-1.26.55-1.37.46.33-.74,1.27-.92S83.84,454.55,83.75,454.65Z" style="fill:#263238"></path><path d="M82.81,458.41c-.12-.06.17-.7,1-1.06s1.48-.19,1.45-.07-.61.19-1.24.49S82.93,458.48,82.81,458.41Z" style="fill:#263238"></path><path d="M84.13,449.19c-.13.06-.52-.48-1.18-.92s-1.3-.63-1.28-.76.8-.15,1.57.37S84.25,449.14,84.13,449.19Z" style="fill:#263238"></path><path d="M136,356.89c.42,2.25,1.08,21.42,1.5,31.53s-.63,15.09-1.84,17.35-51.5,43.42-51.5,43.42l-13.9-9.83s20.45-29.48,27.71-34.76,21.15-10.14,21.15-10.14l-4-55.38,19-1Z" style="fill:#263238"></path><path d="M138.07,335.8c0,1.31,2.21,34.31-9.08,58.16,0,0-3.92,7.47-4.6,10.73s-15.33,57.37-15.33,57.37l-16.89-.58s-2.71-27.11,0-42.8,7.74-13.86,7.74-24-2.52-31.14-2.52-31.14-3.69-5.74-5-16.87c-1-9,3.43-18.71,3.43-18.71l4.41-7.45,37.26-1.87Z" style="fill:#263238"></path><path d="M138.07,335.8s0-.38,0-1.12,0-1.85-.08-3.3c-.07-2.91-.18-7.19-.32-12.73v-.09h-.09l-37.26,1.81h-.08l0,.07-4.41,7.44h0a46.12,46.12,0,0,0-2.66,8.16,34.91,34.91,0,0,0-.93,9,54,54,0,0,0,1.52,9.35,37.21,37.21,0,0,0,3.57,9.25l0-.07q1,8.25,1.74,17.05c.24,2.93.46,5.9.62,8.91.07,1.51.13,3,.14,4.55,0,.76,0,1.52,0,2.28a21.35,21.35,0,0,1-.3,2.27,14.71,14.71,0,0,1-1.6,4.33c-.75,1.37-1.59,2.74-2.29,4.18a38.11,38.11,0,0,0-3,9.13,98.89,98.89,0,0,0-1.69,19.55c0,8.76.43,17.35,1.19,25.67v.17h.18l16.89.59h.16l0-.15c4.89-18.12,9.46-35.06,13.48-50.29l1.47-5.64c.24-.93.41-1.86.71-2.74s.64-1.76,1-2.61c.73-1.71,1.51-3.37,2.3-5,.21-.4.41-.8.61-1.2s.4-.8.57-1.21l1-2.42a93.74,93.74,0,0,0,5.34-18.36,153.24,153.24,0,0,0,2.54-27.06c.05-6.35-.22-9.8-.22-9.8s0,.22,0,.64,0,1.06.05,1.88c0,1.66.08,4.11,0,7.28a156.9,156.9,0,0,1-2.66,27,94.24,94.24,0,0,1-5.37,18.3c-.34.79-.69,1.6-1,2.41-.17.41-.36.8-.57,1.2s-.41.8-.61,1.2c-.8,1.62-1.59,3.27-2.32,5-.36.86-.71,1.73-1,2.64s-.48,1.84-.72,2.76q-.72,2.77-1.47,5.63c-4.1,15.21-8.66,32.15-13.54,50.28l.2-.15-16.88-.59.19.18c-.75-8.31-1.21-16.9-1.18-25.64a98.64,98.64,0,0,1,1.68-19.47,37.73,37.73,0,0,1,3-9.05c.69-1.42,1.52-2.77,2.28-4.17a15.08,15.08,0,0,0,1.64-4.43,22.45,22.45,0,0,0,.3-2.31c0-.77.07-1.55,0-2.31,0-1.53-.07-3.05-.15-4.56-.15-3-.37-6-.63-8.93-.5-5.87-1.1-11.56-1.74-17.06v0l0,0A37,37,0,0,1,94,354.31,53.57,53.57,0,0,1,92.52,345a34.9,34.9,0,0,1,.91-8.9,46.23,46.23,0,0,1,2.62-8.1h0l4.4-7.45-.12.07,37.25-1.92-.09-.08c.18,5.53.32,9.81.41,12.72q.08,2.17.12,3.3C138,335.43,138.07,335.8,138.07,335.8Z" style="fill:#455a64"></path><path d="M124.34,262.11s17.86,17.53,18.31,25.27c.28,4.86-4.28,16-5.49,23-.2,1.21,1,4.45,1,6.49,0,2.92-6.94,3.77-10.22,3.64-5.82-.24-10.52-3.29-17-3.57l-12.14-1.5,4.25-11.29s-.94-10.27-1.25-14.2C101,279.78,100,277,101,271.55s7-12.05,7-12.05C118.35,262.93,124.25,265,124.34,262.11Z" style="fill:#e0e0e0"></path><path d="M130.91,303a2.29,2.29,0,0,0,.55-.39,16,16,0,0,0,1.32-1.24,20.32,20.32,0,0,0,3.42-4.85,19.46,19.46,0,0,0,1.82-5.58,13.79,13.79,0,0,0,.19-1.77,1.85,1.85,0,0,0,0-.65c-.07,0-.15.92-.46,2.37a22.8,22.8,0,0,1-1.91,5.45,23.22,23.22,0,0,1-3.26,4.84C131.56,302.3,130.86,302.93,130.91,303Z" style="fill:#263238"></path><path d="M128.55,312.64c0-5-2-15.34-4.1-24.6-2.46-10.83-6.41-20.16-14.67-28L107.25,259c-4.34,2.54-10.09,5.2-10.31,14-.08,3.29,5,33.62,5,33.62s-16.53,33.66-12.78,40c.27.47,35,6.54,38.58,4.39S128.55,316.07,128.55,312.64Z" style="fill:#062D28"></path><rect x="87.16" y="313.17" width="39.01" height="24.93" rx="5.88" style="fill:#455a64"></rect><path d="M91.47,316.33l-1-.11,4.76-44.45a11,11,0,0,1,4.64-7.89,10.33,10.33,0,0,1,8.47-1.53l.31.08c7.27,2,9.26,12,10.12,27.56a235,235,0,0,0,2.88,24.79l-1,.17A238.42,238.42,0,0,1,117.78,290c-.83-15.09-2.69-24.81-9.38-26.64l-.3-.08a9.18,9.18,0,0,0-7.65,1.38,10,10,0,0,0-4.21,7.18Z" style="fill:#455a64"></path><path d="M102.87,263.85a2,2,0,0,1,.69-.22,9.25,9.25,0,0,1,2-.19,11,11,0,0,1,6.15,1.91,10.3,10.3,0,0,1,3.87,5.15,8.69,8.69,0,0,1,.4,1.93,1.86,1.86,0,0,1,0,.72c-.1,0-.14-1-.73-2.52a10.64,10.64,0,0,0-3.82-4.85,11.5,11.5,0,0,0-5.86-2C103.89,263.72,102.89,263.94,102.87,263.85Z" style="fill:#263238"></path><path d="M114.61,307.87s1.37-27.22.79-34.1L97.71,268.3c-1.75,4.4-3.78,33.37-.86,43.26,3,10.23,21.3,35.39,21.3,35.39l11.6-6.1Z" style="fill:#062D28"></path><path d="M116.13,276.55s0,.19,0,.56,0,.94,0,1.64c-.06,1.47-.14,3.59-.25,6.29-.24,5.46-.59,13.29-1,22.84l0-.09L130,340.74l.1.22-.22.11-11.6,6.11-.2.11-.13-.19-1.22-1.7c-3.31-4.67-6.46-9.29-9.38-13.83s-5.65-9-7.91-13.42a40,40,0,0,1-2.84-6.7c-.14-.57-.27-1.15-.41-1.72s-.18-1.14-.28-1.7c-.2-1.13-.26-2.26-.38-3.36a121.18,121.18,0,0,1-.3-12.27,175.85,175.85,0,0,1,1.21-17.72,45.6,45.6,0,0,1,.8-4.77,8.11,8.11,0,0,1,.34-1.21c.09-.27.14-.41.14-.4s-.17.55-.38,1.63-.47,2.69-.7,4.77c-.47,4.16-.92,10.22-1,17.7,0,3.75,0,7.86.36,12.24A39.79,39.79,0,0,0,97,311.33a40.48,40.48,0,0,0,2.83,6.6c2.26,4.4,5,8.83,7.91,13.36s6.06,9.14,9.37,13.81c.42.58.84,1.16,1.22,1.7l-.33-.08,11.6-6.1-.11.33c-5.65-12.35-10.82-23.64-15.09-33l0,0v-.05c.5-9.55.91-17.37,1.19-22.84.16-2.69.28-4.81.36-6.27.05-.7.08-1.25.11-1.64S116.13,276.55,116.13,276.55Z" style="fill:#263238"></path><path d="M133.39,348.57a13.89,13.89,0,0,1,2.14,2.63,36.87,36.87,0,0,1,1.26,5.51s-.9.67-2.25-1.75a20,20,0,0,1-1.7-3.61Z" style="fill:#ffbf9d"></path><path d="M135,356.8l-1.5-8.14-4.71-7-9.36,5,.82,8.29s2.4,3.92,3.3,4.58,2.22-.21,2.22-.21c1,1,3.09.18,3.09.18,1.31,1,2.71-.44,2.71-.44s1.7,1,2.35.78a1.29,1.29,0,0,0,.61-.56A3.43,3.43,0,0,0,135,356.8Z" style="fill:#ffbf9d"></path><path d="M124.51,357.39c.1-.06.43.33.75.86s.5,1,.41,1.05-.42-.34-.74-.87S124.42,357.44,124.51,357.39Z" style="fill:#ff9a6c"></path><path d="M127.18,356.76c.1,0,.42.62.85,1.4s.82,1.4.73,1.46-.62-.48-1.07-1.29S127.08,356.79,127.18,356.76Z" style="fill:#ff9a6c"></path><path d="M130.3,356.43c.11,0,.32.59.62,1.3s.58,1.29.49,1.35-.53-.46-.84-1.21S130.2,356.45,130.3,356.43Z" style="fill:#ff9a6c"></path><path d="M133.89,351.23a12.85,12.85,0,0,1,.79,3,13.34,13.34,0,0,1,.41,3.12,25.66,25.66,0,0,1-1.2-6.17Z" style="fill:#ff9a6c"></path><path d="M124,355.79s0,.16-.16.3a1.23,1.23,0,0,1-1.59,0c-.16-.14-.2-.27-.16-.3s.44.23,1,.23S124,355.72,124,355.79Z" style="fill:#ff9a6c"></path><path d="M127.26,355.68s0,.16-.22.3a1.57,1.57,0,0,1-.86.25,1.46,1.46,0,0,1-.86-.26c-.19-.13-.26-.26-.22-.3s.49.2,1.08.2S127.19,355.6,127.26,355.68Z" style="fill:#ff9a6c"></path><path d="M133.13,353.94c0-.05.29.18.12.57a1.85,1.85,0,0,1-1.15.82,2.27,2.27,0,0,1-1.41,0c-.35-.13-.5-.29-.48-.33a4.57,4.57,0,0,0,1.78,0,2.09,2.09,0,0,0,1-.6C133.18,354.16,133.09,354,133.13,353.94Z" style="fill:#ff9a6c"></path></g></svg>
